<svg width="48" height="48" viewBox="0 0 48 48" fill="none" xmlns="http://www.w3.org/2000/svg">
<path fill-rule="evenodd" clip-rule="evenodd" d="M14 16V14.4C14 8.74931 18.3863 4 24 4C29.6137 4 34 8.74931 34 14.4V16H36C38.2091 16 40 17.7909 40 20V40C40 42.2091 38.2091 44 36 44H12C9.79086 44 8 42.2091 8 40V20C8 17.7909 9.79086 16 12 16H14ZM18 14.4C18 10.7723 20.7771 8 24 8C27.2229 8 30 10.7723 30 14.4V16H18V14.4ZM24 26C25.1046 26 26 26.8954 26 28V32C26 33.1046 25.1046 34 24 34C22.8954 34 22 33.1046 22 32V28C22 26.8954 22.8954 26 24 26Z" fill="#FE6110"/>
</svg>
