<svg width="48" height="48" viewBox="0 0 48 48" fill="none" xmlns="http://www.w3.org/2000/svg">
<path fill-rule="evenodd" clip-rule="evenodd" d="M4.00012 13.9999C4.00012 11.7907 5.79098 9.99988 8.00012 9.99988H28.0001C30.2093 9.99988 32.0001 11.7907 32.0001 13.9999V33.9999C32.0001 36.209 30.2093 37.9999 28.0001 37.9999H8.00012C5.79098 37.9999 4.00012 36.209 4.00012 33.9999V13.9999ZM16.0001 21.9999H14.0001C12.8956 21.9999 12.0001 21.1044 12.0001 19.9999C12.0001 18.8953 12.8956 17.9999 14.0001 17.9999H16.0001C17.1047 17.9999 18.0001 18.8953 18.0001 19.9999C18.0001 21.1044 17.1047 21.9999 16.0001 21.9999Z" fill="#FE6110"/>
<path d="M44.0001 15.9999V31.9999C44.0001 33.648 42.1186 34.5887 40.8001 33.5999L36.8001 30.5999C36.2965 30.2222 36.0001 29.6294 36.0001 28.9999V18.9999C36.0001 18.3704 36.2965 17.7776 36.8001 17.3999L40.8001 14.3999C42.1186 13.411 44.0001 14.3518 44.0001 15.9999Z" fill="#FE6110"/>
</svg>
