<svg width="48" height="48" viewBox="0 0 48 48" fill="none" xmlns="http://www.w3.org/2000/svg">
<path fill-rule="evenodd" clip-rule="evenodd" d="M17.7299 6.70149C17.8833 5.16789 19.1738 4 20.715 4H27.2851C28.8263 4 30.1168 5.16788 30.2702 6.70149L30.4817 8.8169C30.5174 9.17326 30.742 9.48113 31.0632 9.63943C31.7013 9.95384 32.3153 10.3095 32.9019 10.703C33.1997 10.9028 33.5791 10.9436 33.906 10.7961L35.8459 9.92066C37.2507 9.28667 38.9073 9.82033 39.678 11.1551L42.963 16.8449C43.7336 18.1797 43.3675 19.8813 42.116 20.7809L40.3869 22.0239C40.0963 22.2328 39.9419 22.5809 39.9653 22.938C39.9883 23.289 40 23.6431 40 24C40 24.3569 39.9883 24.711 39.9653 25.0621C39.9419 25.4192 40.0963 25.7673 40.3869 25.9762L42.116 27.2192C43.3675 28.1188 43.7336 29.8203 42.963 31.1551L39.678 36.8449C38.9073 38.1797 37.2507 38.7134 35.8459 38.0794L33.9059 37.2039C33.5791 37.0564 33.1996 37.0973 32.9018 37.297C32.3153 37.6905 31.7012 38.0462 31.0632 38.3606C30.742 38.5189 30.5174 38.8267 30.4817 39.1831L30.2702 41.2985C30.1168 42.8321 28.8263 44 27.2851 44H20.715C19.1738 44 17.8833 42.8321 17.7299 41.2985L17.5184 39.1831C17.4827 38.8267 17.2581 38.5189 16.9369 38.3606C16.2988 38.0462 15.6848 37.6905 15.0982 37.297C14.8004 37.0972 14.4209 37.0564 14.0941 37.2039L12.1541 38.0794C10.7493 38.7134 9.09262 38.1797 8.32199 36.8449L5.03696 31.1551C4.26633 29.8203 4.6325 28.1188 5.88396 27.2192L7.61318 25.9761C7.90377 25.7672 8.05812 25.4191 8.03472 25.062C8.01171 24.711 8.00003 24.3569 8.00003 24C8.00003 23.6432 8.01171 23.289 8.03472 22.938C8.05812 22.5809 7.90376 22.2328 7.61318 22.0239L5.88396 20.7809C4.6325 19.8813 4.26633 18.1797 5.03696 16.8449L8.32199 11.1551C9.09262 9.82033 10.7493 9.28667 12.1541 9.92065L14.094 10.7961C14.4209 10.9436 14.8004 10.9028 15.0982 10.703C15.6847 10.3095 16.2988 9.95384 16.9369 9.63942C17.2581 9.48112 17.4827 9.17325 17.5184 8.81689L17.7299 6.70149ZM24 32C28.4183 32 32 28.4183 32 24C32 19.5817 28.4183 16 24 16C19.5818 16 16 19.5817 16 24C16 28.4183 19.5818 32 24 32Z" fill="#FE6110"/>
</svg>
