<svg width="720" height="216" viewBox="0 0 720 216" fill="none" xmlns="http://www.w3.org/2000/svg">
<path d="M719 215L719 1.00011" stroke="#B3B3B3"/>
<path d="M668.281 107.533L668.281 1.00003" stroke="#B3B3B3"/>
<path d="M616.57 108.468L616.57 1.0006" stroke="#B3B3B3"/>
<path d="M565.854 107.533L565.854 1.00003" stroke="#B3B3B3"/>
<path d="M513.146 108.468L513.146 1.0006" stroke="#B3B3B3"/>
<path d="M462.43 107.533L462.43 1.00003" stroke="#B3B3B3"/>
<path d="M410.719 107.533L410.719 1.00003" stroke="#B3B3B3"/>
<path d="M360 108L360 0.999995" stroke="#B3B3B3"/>
<path d="M719 214.6L360 214.6" stroke="#B3B3B3"/>
<path d="M719 107.8L360 107.8" stroke="#B3B3B3"/>
<path d="M719 54.3994L360 54.3994" stroke="#B3B3B3"/>
<path d="M719 1L360 1.00003" stroke="#B3B3B3"/>
<path d="M360 108L360 1" stroke="#B3B3B3"/>
<path d="M308.84 215L308.84 1.00011" stroke="#B3B3B3"/>
<path d="M257.686 215L257.686 1.00011" stroke="#B3B3B3"/>
<path d="M207 215L207 107.473" stroke="#B3B3B3"/>
<path d="M154 215L154 107.473" stroke="#B3B3B3"/>
<path d="M103.314 215L103.314 1.00011" stroke="#B3B3B3"/>
<path d="M52.1602 215L52.1601 1.00011" stroke="#B3B3B3"/>
<path d="M1 215L0.999981 1.00011" stroke="#B3B3B3"/>
<path d="M360 214.6L1.00003 214.6" stroke="#B3B3B3"/>
<path d="M309 161H1.00001" stroke="#B3B3B3"/>
<path d="M360 107.8L1.00003 107.8" stroke="#B3B3B3"/>
<path d="M103 54.7642H0.999997" stroke="#B3B3B3"/>
<path d="M361 54.7642H258" stroke="#B3B3B3"/>
<path d="M360 1L1 1" stroke="#B3B3B3"/>
<g clip-path="url(#clip0_391_2401)">
<path d="M146.769 78.2578H141.788C141.203 77.0018 140.687 75.4275 140.24 73.5348C139.792 71.6595 139.44 69.6465 139.182 67.4957C138.941 65.3279 138.82 63.2203 138.82 61.1727C138.82 57.4908 139.293 53.9293 140.24 50.4883C141.203 47.0472 142.554 43.8469 144.292 40.8877C146.029 37.9283 148.051 35.3131 150.357 33.042H156.37C153.875 35.5024 151.733 38.2552 149.944 41.3005C148.171 44.3287 146.812 47.5805 145.866 51.056C144.92 54.5143 144.446 58.1275 144.446 61.8954C144.446 64.1665 144.541 66.2914 144.73 68.2701C144.937 70.2486 145.212 72.0724 145.556 73.7413C145.9 75.4103 146.305 76.9158 146.769 78.2578ZM214.675 33.042H219.656C220.241 34.298 220.758 35.8723 221.205 37.7648C221.652 39.6575 221.996 41.6791 222.237 43.8297C222.495 45.9633 222.624 48.0623 222.624 50.1269C222.624 53.8089 222.143 57.3704 221.179 60.8115C220.216 64.2526 218.865 67.4527 217.127 70.4121C215.407 73.3887 213.394 76.0038 211.088 78.2578H205.049C207.561 75.7802 209.703 73.0273 211.475 69.9991C213.265 66.971 214.632 63.7278 215.579 60.2695C216.525 56.794 216.998 53.1723 216.998 49.4043C216.981 47.1332 216.878 45.0083 216.688 43.0297C216.499 41.051 216.224 39.2273 215.863 37.5584C215.518 35.8895 215.123 34.384 214.675 33.042Z" fill="#FE6110"/>
<path d="M165.034 72.5886C162.598 72.5886 160.48 72.0491 158.682 70.9699C156.883 69.8908 155.485 68.3703 154.488 66.4082C153.507 64.4462 153.017 62.1326 153.017 59.4676C153.017 56.034 153.409 52.8948 154.194 50.0498C154.995 47.1886 156.123 44.7115 157.578 42.6187C159.033 40.5095 160.75 38.8826 162.729 37.7381C164.707 36.5936 166.882 36.0214 169.252 36.0214C171.705 36.0214 173.822 36.5691 175.604 37.6646C177.403 38.7437 178.793 40.2724 179.774 42.2508C180.771 44.2128 181.27 46.5264 181.27 49.1915C181.27 52.625 180.877 55.7724 180.093 58.6337C179.308 61.495 178.188 63.972 176.733 66.0649C175.294 68.1414 173.577 69.7518 171.582 70.8964C169.604 72.0245 167.421 72.5886 165.034 72.5886ZM158.657 59.3449C158.657 61.0944 158.927 62.5986 159.467 63.8576C160.006 65.1002 160.767 66.0649 161.748 66.7516C162.745 67.4219 163.922 67.7571 165.279 67.7571C166.734 67.7571 168.083 67.283 169.326 66.3347C170.585 65.3863 171.68 64.0701 172.612 62.3861C173.561 60.702 174.296 58.74 174.82 56.5C175.359 54.26 175.629 51.8484 175.629 49.265C175.629 47.5319 175.359 46.044 174.82 44.8014C174.28 43.5425 173.52 42.5778 172.539 41.9074C171.558 41.2207 170.397 40.8774 169.056 40.8774C167.601 40.8774 166.244 41.3597 164.985 42.3244C163.726 43.2727 162.622 44.597 161.674 46.2975C160.726 47.9815 159.982 49.9436 159.442 52.1835C158.919 54.4072 158.657 56.7943 158.657 59.3449ZM185.037 46.7634C185.266 44.6379 185.944 42.7658 187.072 41.1472C188.217 39.5285 189.713 38.2695 191.561 37.3703C193.408 36.471 195.485 36.0214 197.79 36.0214C199.899 36.0214 201.779 36.4219 203.431 37.2231C205.099 38.0079 206.407 39.0952 207.355 40.485C208.32 41.8584 208.802 43.4362 208.802 45.2184C208.802 46.3792 208.638 47.4583 208.311 48.4557C208.001 49.4531 207.469 50.4668 206.717 51.4968C205.965 52.5105 204.935 53.6224 203.627 54.8323C202.319 56.0422 200.668 57.4483 198.673 59.0506L188.642 66.9723L188.618 67.0949H205.589L204.608 72H180.132L180.99 67.61L195.558 55.7642C197.079 54.538 198.33 53.467 199.311 52.5514C200.308 51.6358 201.093 50.8101 201.665 50.0744C202.254 49.3386 202.671 48.6355 202.916 47.9652C203.161 47.2785 203.284 46.5754 203.284 45.856C203.284 44.8586 203.038 43.9839 202.548 43.2318C202.057 42.4633 201.371 41.8747 200.488 41.466C199.605 41.0409 198.591 40.8283 197.447 40.8283C196.204 40.8283 195.084 41.0654 194.087 41.5396C193.106 42.0137 192.288 42.6922 191.634 43.5752C190.98 44.4581 190.539 45.5208 190.31 46.7634C189.443 46.7634 188.569 46.7634 187.686 46.7634C186.803 46.7634 185.92 46.7634 185.037 46.7634Z" fill="#FE6110"/>
</g>
<defs>
<clipPath id="clip0_391_2401">
<rect width="84" height="45" fill="white" transform="translate(139 33)"/>
</clipPath>
</defs>
</svg>
