<svg width="772" height="721" viewBox="0 0 772 721" fill="none" xmlns="http://www.w3.org/2000/svg">
<g clip-path="url(#clip0_774_553)">
<rect x="1" width="1700" height="969" fill="#1C1C1C"/>
<path d="M426 647L852 647" stroke="#222222" stroke-width="2.39175"/>
<path d="M426 538L852 538" stroke="#222222" stroke-width="2.39175"/>
<path d="M426 431L852 431" stroke="#222222" stroke-width="2.39175"/>
<path d="M426 322L852 322" stroke="#222222" stroke-width="2.39175"/>
<path d="M426 216L852 216" stroke="#222222" stroke-width="2.39175"/>
<path d="M426 107L852 107" stroke="#222222" stroke-width="2.39175"/>
<path d="M426 2L850 1.99996" stroke="#222222" stroke-width="3.38245"/>
<path d="M427 969L427 4.19617e-05" stroke="#222222" stroke-width="2.39175"/>
<path d="M533 969L533 4.19617e-05" stroke="#222222" stroke-width="2.39175"/>
<path d="M639 969L639 4.19617e-05" stroke="#222222" stroke-width="2.39175"/>
<path d="M746 969L746 4.19617e-05" stroke="#222222" stroke-width="2.39175"/>
<path d="M0 647L426 647" stroke="#222222" stroke-width="2.39175"/>
<path d="M0 538L426 538" stroke="#222222" stroke-width="2.39175"/>
<path d="M0 431L426 431" stroke="#222222" stroke-width="2.39175"/>
<path d="M0 322L426 322" stroke="#222222" stroke-width="2.39175"/>
<path d="M0 216L426 216" stroke="#222222" stroke-width="2.39175"/>
<path d="M0 107L426 107" stroke="#222222" stroke-width="2.39175"/>
<path d="M0 2L424 1.99996" stroke="#222222" stroke-width="3.38245"/>
<path d="M1 969L0.999958 4.19617e-05" stroke="#222222" stroke-width="2.39175"/>
<path d="M107 969L107 4.19617e-05" stroke="#222222" stroke-width="2.39175"/>
<path d="M213 969L213 4.19617e-05" stroke="#222222" stroke-width="2.39175"/>
<path d="M320 969L320 4.19617e-05" stroke="#222222" stroke-width="2.39175"/>
<path d="M426 969L426 4.19617e-05" stroke="#222222" stroke-width="2.39175"/>
<path fill-rule="evenodd" clip-rule="evenodd" d="M820.099 21.5584L733.246 -28L644.188 22.8213L727.585 71.5215L820.099 21.5584ZM828.492 32.3481L735.648 82.4951V188L828.492 135.021V32.3481ZM722.169 183.047V83.9664L638 34.8248V135.021L722.169 183.047Z" fill="#40271A"/>
</g>
<defs>
<clipPath id="clip0_774_553">
<rect width="772" height="721" fill="white"/>
</clipPath>
</defs>
</svg>
