<svg width="1356" height="500" viewBox="0 0 1356 500" fill="none" xmlns="http://www.w3.org/2000/svg">
<g clip-path="url(#clip0_457_2273)">
<rect width="1356" height="500" rx="35" fill="#1C1C1C"/>
<path d="M558 303L984 303" stroke="#222222" stroke-width="2.39175"/>
<path d="M558 412L984 412" stroke="#222222" stroke-width="2.39175"/>
<path d="M558 194L984 194" stroke="#222222" stroke-width="2.39175"/>
<path d="M558 87L984 87" stroke="#222222" stroke-width="2.39175"/>
<path d="M559 625L559 -344" stroke="#222222" stroke-width="2.39175"/>
<path d="M665 625L665 -344" stroke="#222222" stroke-width="2.39175"/>
<path d="M771 625L771 -344" stroke="#222222" stroke-width="2.39175"/>
<path d="M878 625L878 -344" stroke="#222222" stroke-width="2.39175"/>
<path d="M984 625L984 -344" stroke="#222222" stroke-width="2.39175"/>
<path d="M984 303L1410 303" stroke="#222222" stroke-width="2.39175"/>
<path d="M984 412L1410 412" stroke="#222222" stroke-width="2.39175"/>
<path d="M984 194L1410 194" stroke="#222222" stroke-width="2.39175"/>
<path d="M984 87L1410 87" stroke="#222222" stroke-width="2.39175"/>
<path d="M985 625L985 -344" stroke="#222222" stroke-width="2.39175"/>
<path d="M1091 625L1091 -344" stroke="#222222" stroke-width="2.39175"/>
<path d="M1197 625L1197 -344" stroke="#222222" stroke-width="2.39175"/>
<path d="M1304 625L1304 -344" stroke="#222222" stroke-width="2.39175"/>
<path d="M133 303L559 303" stroke="#222222" stroke-width="2.39175"/>
<path d="M133 412L559 412" stroke="#222222" stroke-width="2.39175"/>
<path d="M133 194L559 194" stroke="#222222" stroke-width="2.39175"/>
<path d="M133 87L559 87" stroke="#222222" stroke-width="2.39175"/>
<path d="M134 625L134 -344" stroke="#222222" stroke-width="2.39175"/>
<path d="M240 625L240 -344" stroke="#222222" stroke-width="2.39175"/>
<path d="M346 625L346 -344" stroke="#222222" stroke-width="2.39175"/>
<path d="M453 625L453 -344" stroke="#222222" stroke-width="2.39175"/>
<path d="M559 625L559 -344" stroke="#222222" stroke-width="2.39175"/>
<path d="M-293 303L133 303" stroke="#222222" stroke-width="2.39175"/>
<path d="M-293 412L133 412" stroke="#222222" stroke-width="2.39175"/>
<path d="M-293 194L133 194" stroke="#222222" stroke-width="2.39175"/>
<path d="M-293 87L133 87" stroke="#222222" stroke-width="2.39175"/>
<path d="M27 625L27 -344" stroke="#222222" stroke-width="2.39175"/>
<path d="M133 625L133 -344" stroke="#222222" stroke-width="2.39175"/>
<path fill-rule="evenodd" clip-rule="evenodd" d="M1399.71 270.407L1200.96 157L997.16 273.297L1188 384.741L1399.71 270.407ZM1418.91 295.098L1206.45 409.852V651.285L1418.91 530.049V295.098ZM1175.61 639.95V413.219L983 300.765V530.049L1175.61 639.95Z" fill="#40271A"/>
</g>
<defs>
<clipPath id="clip0_457_2273">
<rect width="1356" height="500" rx="35" fill="white"/>
</clipPath>
</defs>
</svg>
