<svg width="1703" height="969" viewBox="0 0 1703 969" fill="none" xmlns="http://www.w3.org/2000/svg">
<g clip-path="url(#clip0_774_553)">
<rect x="1" width="1700" height="969" fill="#1C1C1C"/>
<path d="M851 969L1277 969" stroke="#222222" stroke-width="2.39175"/>
<path d="M851 647L1277 647" stroke="#222222" stroke-width="2.39175"/>
<path d="M851 756L1277 756" stroke="#222222" stroke-width="2.39175"/>
<path d="M851 860L1277 860" stroke="#222222" stroke-width="2.39175"/>
<path d="M851 538L1277 538" stroke="#222222" stroke-width="2.39175"/>
<path d="M851 431L1277 431" stroke="#222222" stroke-width="2.39175"/>
<path d="M851 322L1277 322" stroke="#222222" stroke-width="2.39175"/>
<path d="M851 216L1277 216" stroke="#222222" stroke-width="2.39175"/>
<path d="M851 107L1277 107" stroke="#222222" stroke-width="2.39175"/>
<path d="M851 2L1275 1.99996" stroke="#222222" stroke-width="3.38245"/>
<path d="M852 969L852 4.19617e-05" stroke="#222222" stroke-width="2.39175"/>
<path d="M958 969L958 4.19617e-05" stroke="#222222" stroke-width="2.39175"/>
<path d="M1064 969L1064 4.19617e-05" stroke="#222222" stroke-width="2.39175"/>
<path d="M1171 969L1171 4.19617e-05" stroke="#222222" stroke-width="2.39175"/>
<path d="M1277 969L1277 4.19617e-05" stroke="#222222" stroke-width="2.39175"/>
<path d="M1277 969L1703 969" stroke="#222222" stroke-width="2.39175"/>
<path d="M1277 647L1703 647" stroke="#222222" stroke-width="2.39175"/>
<path d="M1277 756L1703 756" stroke="#222222" stroke-width="2.39175"/>
<path d="M1277 860L1703 860" stroke="#222222" stroke-width="2.39175"/>
<path d="M1277 538L1703 538" stroke="#222222" stroke-width="2.39175"/>
<path d="M1277 431L1703 431" stroke="#222222" stroke-width="2.39175"/>
<path d="M1277 322L1703 322" stroke="#222222" stroke-width="2.39175"/>
<path d="M1277 216L1703 216" stroke="#222222" stroke-width="2.39175"/>
<path d="M1277 107L1703 107" stroke="#222222" stroke-width="2.39175"/>
<path d="M1277 2L1701 1.99996" stroke="#222222" stroke-width="3.38245"/>
<path d="M1278 969L1278 4.19617e-05" stroke="#222222" stroke-width="2.39175"/>
<path d="M1384 969L1384 4.19617e-05" stroke="#222222" stroke-width="2.39175"/>
<path d="M1490 969L1490 4.19617e-05" stroke="#222222" stroke-width="2.39175"/>
<path d="M1597 969L1597 4.19617e-05" stroke="#222222" stroke-width="2.39175"/>
<path d="M1703 969L1703 4.19617e-05" stroke="#222222" stroke-width="2.39175"/>
<path d="M426 969L852 969" stroke="#222222" stroke-width="2.39175"/>
<path d="M426 647L852 647" stroke="#222222" stroke-width="2.39175"/>
<path d="M426 756L852 756" stroke="#222222" stroke-width="2.39175"/>
<path d="M426 860L852 860" stroke="#222222" stroke-width="2.39175"/>
<path d="M426 538L852 538" stroke="#222222" stroke-width="2.39175"/>
<path d="M426 431L852 431" stroke="#222222" stroke-width="2.39175"/>
<path d="M426 322L852 322" stroke="#222222" stroke-width="2.39175"/>
<path d="M426 216L852 216" stroke="#222222" stroke-width="2.39175"/>
<path d="M426 107L852 107" stroke="#222222" stroke-width="2.39175"/>
<path d="M426 2L850 1.99996" stroke="#222222" stroke-width="3.38245"/>
<path d="M427 969L427 4.19617e-05" stroke="#222222" stroke-width="2.39175"/>
<path d="M533 969L533 4.19617e-05" stroke="#222222" stroke-width="2.39175"/>
<path d="M639 969L639 4.19617e-05" stroke="#222222" stroke-width="2.39175"/>
<path d="M746 969L746 4.19617e-05" stroke="#222222" stroke-width="2.39175"/>
<path d="M852 969L852 4.19617e-05" stroke="#222222" stroke-width="2.39175"/>
<path d="M0 969L426 969" stroke="#222222" stroke-width="2.39175"/>
<path d="M0 647L426 647" stroke="#222222" stroke-width="2.39175"/>
<path d="M0 756L426 756" stroke="#222222" stroke-width="2.39175"/>
<path d="M0 860L426 860" stroke="#222222" stroke-width="2.39175"/>
<path d="M0 538L426 538" stroke="#222222" stroke-width="2.39175"/>
<path d="M0 431L426 431" stroke="#222222" stroke-width="2.39175"/>
<path d="M0 322L426 322" stroke="#222222" stroke-width="2.39175"/>
<path d="M0 216L426 216" stroke="#222222" stroke-width="2.39175"/>
<path d="M0 107L426 107" stroke="#222222" stroke-width="2.39175"/>
<path d="M0 2L424 1.99996" stroke="#222222" stroke-width="3.38245"/>
<path d="M1 969L0.999958 4.19617e-05" stroke="#222222" stroke-width="2.39175"/>
<path d="M107 969L107 4.19617e-05" stroke="#222222" stroke-width="2.39175"/>
<path d="M213 969L213 4.19617e-05" stroke="#222222" stroke-width="2.39175"/>
<path d="M320 969L320 4.19617e-05" stroke="#222222" stroke-width="2.39175"/>
<path d="M426 969L426 4.19617e-05" stroke="#222222" stroke-width="2.39175"/>
<path fill-rule="evenodd" clip-rule="evenodd" d="M1745.71 696.407L1546.96 583L1343.16 699.297L1534 810.741L1745.71 696.407ZM1764.91 721.098L1552.45 835.852V1077.28L1764.91 956.05V721.098ZM1521.61 1065.95V839.219L1329 726.765V956.05L1521.61 1065.95Z" fill="#40271A"/>
</g>
<defs>
<clipPath id="clip0_774_553">
<rect width="1703" height="969" fill="white"/>
</clipPath>
</defs>
</svg>
