<svg width="690" height="408" viewBox="0 0 690 408" fill="none" xmlns="http://www.w3.org/2000/svg">
<path d="M32.7692 380.258H27.7883C27.2033 379.002 26.6871 377.427 26.2398 375.535C25.7924 373.659 25.4397 371.646 25.1816 369.496C24.9407 367.328 24.8203 365.22 24.8203 363.173C24.8203 359.491 25.2935 355.929 26.2398 352.488C27.2033 349.047 28.5539 345.847 30.2916 342.888C32.0294 339.928 34.0511 337.313 36.3566 335.042H42.3698C39.875 337.502 37.733 340.255 35.9436 343.301C34.1714 346.329 32.8122 349.581 31.8659 353.056C30.9196 356.514 30.4465 360.127 30.4465 363.895C30.4465 366.167 30.5411 368.291 30.7304 370.27C30.9368 372.249 31.2121 374.072 31.5562 375.741C31.9003 377.41 32.3047 378.916 32.7692 380.258ZM100.675 335.042H105.656C106.241 336.298 106.758 337.872 107.205 339.765C107.652 341.658 107.996 343.679 108.237 345.83C108.495 347.963 108.624 350.062 108.624 352.127C108.624 355.809 108.143 359.37 107.179 362.812C106.216 366.253 104.865 369.453 103.127 372.412C101.407 375.389 99.3937 378.004 97.0882 380.258H91.049C93.5609 377.78 95.7031 375.027 97.4752 371.999C99.2646 368.971 100.632 365.728 101.579 362.269C102.525 358.794 102.998 355.172 102.998 351.404C102.981 349.133 102.878 347.008 102.688 345.03C102.499 343.051 102.224 341.227 101.863 339.558C101.518 337.89 101.123 336.384 100.675 335.042Z" fill="#FE6110"/>
<path d="M53.7846 376.538C51.221 376.538 48.993 375.97 47.1004 374.834C45.2078 373.699 43.7367 372.099 42.6872 370.034C41.6549 367.969 41.1387 365.535 41.1387 362.73C41.1387 359.117 41.5516 355.814 42.3775 352.82C43.2206 349.809 44.4078 347.202 45.9391 345C47.4703 342.781 49.2769 341.069 51.3587 339.864C53.4406 338.66 55.7289 338.058 58.2237 338.058C60.8045 338.058 63.0326 338.634 64.9079 339.787C66.8006 340.922 68.2631 342.531 69.2954 344.613C70.3449 346.678 70.8697 349.112 70.8697 351.917C70.8697 355.53 70.4567 358.842 69.6309 361.853C68.805 364.864 67.6264 367.47 66.0951 369.673C64.5811 371.858 62.7745 373.552 60.6755 374.757C58.5935 375.944 56.2966 376.538 53.7846 376.538ZM47.0746 362.601C47.0746 364.442 47.3584 366.025 47.9263 367.35C48.4941 368.657 49.2941 369.673 50.3264 370.395C51.3759 371.101 52.6147 371.453 54.0428 371.453C55.5741 371.453 56.9935 370.954 58.3011 369.956C59.626 368.959 60.7787 367.574 61.7594 365.801C62.7573 364.029 63.5315 361.965 64.0821 359.607C64.6499 357.25 64.9337 354.712 64.9337 351.994C64.9337 350.17 64.6499 348.605 64.0821 347.297C63.5143 345.972 62.7143 344.957 61.682 344.252C60.6497 343.529 59.4281 343.168 58.0172 343.168C56.4859 343.168 55.0578 343.675 53.733 344.69C52.4082 345.688 51.2468 347.082 50.249 348.871C49.2511 350.643 48.4683 352.708 47.9004 355.065C47.3498 357.405 47.0746 359.917 47.0746 362.601ZM78.5501 375.918L85.157 345.129H85.0538C84.4172 345.508 83.7289 345.929 82.9891 346.394C82.2492 346.841 81.4751 347.314 80.6664 347.813C79.8749 348.295 79.0749 348.785 78.2662 349.284C77.4748 349.766 76.7092 350.239 75.9693 350.704C75.2295 351.151 74.5412 351.564 73.9047 351.942L75.1951 345.594C75.8144 345.198 76.5027 344.776 77.2597 344.329C78.034 343.865 78.8254 343.383 79.634 342.884C80.46 342.385 81.2772 341.886 82.0858 341.387C82.8945 340.888 83.6773 340.415 84.4343 339.967C85.1914 339.503 85.8796 339.073 86.499 338.677H92.2542L84.3312 375.918H78.5501Z" fill="#FE6110"/>
<path d="M1 1V401" stroke="#B3B3B3"/>
<path d="M134 1L134 90" stroke="#B3B3B3"/>
<path d="M89 1L89 90" stroke="#B3B3B3"/>
<path d="M46 1L46 90" stroke="#B3B3B3"/>
<path d="M134 223L134 401" stroke="#B3B3B3"/>
<path d="M89 223L89 312" stroke="#B3B3B3"/>
<path d="M46 223L46 312" stroke="#B3B3B3"/>
<path d="M179 1L179 90" stroke="#B3B3B3"/>
<path d="M179 223L179 401" stroke="#B3B3B3"/>
<path d="M223 223L223 401" stroke="#B3B3B3"/>
<path d="M223 1L223 90" stroke="#B3B3B3"/>
<path d="M268 1L268 90" stroke="#B3B3B3"/>
<path d="M245 1L245 90" stroke="#B3B3B3"/>
<path d="M268 223L268 401" stroke="#B3B3B3"/>
<path d="M312 1L312 90" stroke="#B3B3B3"/>
<path d="M312 223L312 401" stroke="#B3B3B3"/>
<path d="M357 223L357 401" stroke="#B3B3B3"/>
<path d="M357 1L357 90" stroke="#B3B3B3"/>
<path d="M401 223L401 401" stroke="#B3B3B3" stroke-width="1.41421"/>
<path d="M1 1H401" stroke="#B3B3B3"/>
<path d="M1 45H378" stroke="#B3B3B3"/>
<path d="M1 89.8887H401" stroke="#B3B3B3"/>
<path d="M1 223.222H401" stroke="#B3B3B3"/>
<path d="M1 267.666H401" stroke="#B3B3B3"/>
<path d="M1 312.111H401" stroke="#B3B3B3"/>
<path d="M134 357L401 357" stroke="#B3B3B3"/>
<path d="M1 401H401" stroke="#B3B3B3"/>
<path d="M245 223L245 401" stroke="#B3B3B3"/>
<path d="M378 1L378 90" stroke="#B3B3B3"/>
<path d="M333 1L333 90" stroke="#B3B3B3"/>
<path d="M290 1L290 90" stroke="#B3B3B3"/>
<path d="M378 223L378 401" stroke="#B3B3B3"/>
<path d="M333 223L333 401" stroke="#B3B3B3"/>
<path d="M290 223L290 401" stroke="#B3B3B3"/>
<path d="M423 223L423 401" stroke="#B3B3B3"/>
<path d="M467 223L467 401" stroke="#B3B3B3"/>
<path d="M512 223L512 401" stroke="#B3B3B3"/>
<path d="M556 223L556 401" stroke="#B3B3B3"/>
<path d="M556 1L556 90" stroke="#B3B3B3"/>
<path d="M601 223L601 311" stroke="#B3B3B3"/>
<path d="M601 1L601 90" stroke="#B3B3B3"/>
<path d="M644 1L644 90" stroke="#B3B3B3"/>
<path d="M644 223L644 400" stroke="#B3B3B3" stroke-width="1.41421"/>
<path d="M245 1H645" stroke="#B3B3B3"/>
<path d="M245 45H378" stroke="#B3B3B3"/>
<path d="M245 89.8887H645" stroke="#B3B3B3"/>
<path d="M245 223.222H645" stroke="#B3B3B3"/>
<path d="M245 267.666H645" stroke="#B3B3B3"/>
<path d="M245 312.111H645" stroke="#B3B3B3"/>
<path d="M245 357H556" stroke="#B3B3B3"/>
<path d="M245 401H645" stroke="#B3B3B3"/>
<path d="M556 223L556 401" stroke="#B3B3B3"/>
<path d="M689 1L689 223" stroke="#B3B3B3"/>
<path d="M601 1L601 90" stroke="#B3B3B3"/>
<path d="M601 90L601 223" stroke="#B3B3B3"/>
<path d="M644 90L644 223" stroke="#B3B3B3"/>
<path d="M689 223L689 401" stroke="#B3B3B3"/>
<path d="M601 223L601 312" stroke="#B3B3B3"/>
<path d="M556 1H645" stroke="#B3B3B3"/>
<path d="M556 45H689" stroke="#B3B3B3"/>
<path d="M556 90H689" stroke="#B3B3B3"/>
<path d="M556 223H689" stroke="#B3B3B3"/>
<path d="M601 135L689 135" stroke="#B3B3B3"/>
<path d="M601 180L689 180" stroke="#B3B3B3"/>
<path d="M556 268H689" stroke="#B3B3B3"/>
<path d="M556 312H689" stroke="#B3B3B3"/>
<path d="M644 357L689 357" stroke="#B3B3B3"/>
<path d="M644 1L689 1.00002" stroke="#B3B3B3"/>
<path d="M644 401L689 401" stroke="#B3B3B3"/>
<path d="M556 401H645" stroke="#B3B3B3"/>
<g clip-path="url(#clip0_385_2366)">
<mask id="mask0_385_2366" style="mask-type:luminance" maskUnits="userSpaceOnUse" x="566" y="322" width="69" height="69">
<path d="M567.992 336.967H566.139V338.82H567.992V336.967Z" fill="white"/>
<path d="M567.992 338.82H566.139V340.674H567.992V338.82Z" fill="white"/>
<path d="M567.992 340.674H566.139V342.527H567.992V340.674Z" fill="white"/>
<path d="M567.992 342.527H566.139V344.381H567.992V342.527Z" fill="white"/>
<path d="M567.992 346.234H566.139V348.088H567.992V346.234Z" fill="white"/>
<path d="M567.992 348.088H566.139V349.941H567.992V348.088Z" fill="white"/>
<path d="M567.992 351.795H566.139V353.648H567.992V351.795Z" fill="white"/>
<path d="M567.992 353.648H566.139V355.502H567.992V353.648Z" fill="white"/>
<path d="M567.992 355.502H566.139V357.355H567.992V355.502Z" fill="white"/>
<path d="M567.992 357.355H566.139V359.209H567.992V357.355Z" fill="white"/>
<path d="M567.992 359.209H566.139V361.062H567.992V359.209Z" fill="white"/>
<path d="M567.992 361.062H566.139V362.916H567.992V361.062Z" fill="white"/>
<path d="M567.992 364.77H566.139V366.623H567.992V364.77Z" fill="white"/>
<path d="M567.992 370.33H566.139V372.184H567.992V370.33Z" fill="white"/>
<path d="M569.846 346.234H567.992V348.088H569.846V346.234Z" fill="white"/>
<path d="M569.846 349.941H567.992V351.795H569.846V349.941Z" fill="white"/>
<path d="M569.846 353.648H567.992V355.502H569.846V353.648Z" fill="white"/>
<path d="M569.846 355.502H567.992V357.355H569.846V355.502Z" fill="white"/>
<path d="M569.846 361.062H567.992V362.916H569.846V361.062Z" fill="white"/>
<path d="M569.846 364.77H567.992V366.623H569.846V364.77Z" fill="white"/>
<path d="M569.846 366.623H567.992V368.477H569.846V366.623Z" fill="white"/>
<path d="M569.846 368.477H567.992V370.33H569.846V368.477Z" fill="white"/>
<path d="M569.846 370.33H567.992V372.184H569.846V370.33Z" fill="white"/>
<path d="M571.699 336.967H569.846V338.82H571.699V336.967Z" fill="white"/>
<path d="M571.699 340.674H569.846V342.527H571.699V340.674Z" fill="white"/>
<path d="M571.699 346.234H569.846V348.088H571.699V346.234Z" fill="white"/>
<path d="M571.699 349.941H569.846V351.795H571.699V349.941Z" fill="white"/>
<path d="M571.699 353.648H569.846V355.502H571.699V353.648Z" fill="white"/>
<path d="M571.699 357.355H569.846V359.209H571.699V357.355Z" fill="white"/>
<path d="M571.699 359.209H569.846V361.062H571.699V359.209Z" fill="white"/>
<path d="M571.699 364.77H569.846V366.623H571.699V364.77Z" fill="white"/>
<path d="M571.699 370.33H569.846V372.184H571.699V370.33Z" fill="white"/>
<path d="M571.699 372.184H569.846V374.037H571.699V372.184Z" fill="white"/>
<path d="M573.553 340.674H571.699V342.527H573.553V340.674Z" fill="white"/>
<path d="M573.553 344.381H571.699V346.234H573.553V344.381Z" fill="white"/>
<path d="M573.553 346.234H571.699V348.088H573.553V346.234Z" fill="white"/>
<path d="M573.553 348.088H571.699V349.941H573.553V348.088Z" fill="white"/>
<path d="M573.553 349.941H571.699V351.795H573.553V349.941Z" fill="white"/>
<path d="M573.553 351.795H571.699V353.648H573.553V351.795Z" fill="white"/>
<path d="M573.553 353.648H571.699V355.502H573.553V353.648Z" fill="white"/>
<path d="M573.553 355.502H571.699V357.355H573.553V355.502Z" fill="white"/>
<path d="M573.553 359.209H571.699V361.062H573.553V359.209Z" fill="white"/>
<path d="M573.553 362.916H571.699V364.77H573.553V362.916Z" fill="white"/>
<path d="M573.553 364.77H571.699V366.623H573.553V364.77Z" fill="white"/>
<path d="M573.553 366.623H571.699V368.477H573.553V366.623Z" fill="white"/>
<path d="M573.553 368.477H571.699V370.33H573.553V368.477Z" fill="white"/>
<path d="M573.553 374.037H571.699V375.891H573.553V374.037Z" fill="white"/>
<path d="M575.406 336.967H573.553V338.82H575.406V336.967Z" fill="white"/>
<path d="M575.406 338.82H573.553V340.674H575.406V338.82Z" fill="white"/>
<path d="M575.406 340.674H573.553V342.527H575.406V340.674Z" fill="white"/>
<path d="M575.406 342.527H573.553V344.381H575.406V342.527Z" fill="white"/>
<path d="M575.406 344.381H573.553V346.234H575.406V344.381Z" fill="white"/>
<path d="M575.406 346.234H573.553V348.088H575.406V346.234Z" fill="white"/>
<path d="M575.406 351.795H573.553V353.648H575.406V351.795Z" fill="white"/>
<path d="M575.406 355.502H573.553V357.355H575.406V355.502Z" fill="white"/>
<path d="M575.406 357.355H573.553V359.209H575.406V357.355Z" fill="white"/>
<path d="M575.406 362.916H573.553V364.77H575.406V362.916Z" fill="white"/>
<path d="M575.406 364.77H573.553V366.623H575.406V364.77Z" fill="white"/>
<path d="M575.406 370.33H573.553V372.184H575.406V370.33Z" fill="white"/>
<path d="M577.26 344.381H575.406V346.234H577.26V344.381Z" fill="white"/>
<path d="M577.26 346.234H575.406V348.088H577.26V346.234Z" fill="white"/>
<path d="M577.26 349.941H575.406V351.795H577.26V349.941Z" fill="white"/>
<path d="M577.26 355.502H575.406V357.355H577.26V355.502Z" fill="white"/>
<path d="M577.26 362.916H575.406V364.77H577.26V362.916Z" fill="white"/>
<path d="M577.26 364.77H575.406V366.623H577.26V364.77Z" fill="white"/>
<path d="M577.26 366.623H575.406V368.477H577.26V366.623Z" fill="white"/>
<path d="M577.26 374.037H575.406V375.891H577.26V374.037Z" fill="white"/>
<path d="M579.113 336.967H577.26V338.82H579.113V336.967Z" fill="white"/>
<path d="M579.113 340.674H577.26V342.527H579.113V340.674Z" fill="white"/>
<path d="M579.113 344.381H577.26V346.234H579.113V344.381Z" fill="white"/>
<path d="M579.113 348.088H577.26V349.941H579.113V348.088Z" fill="white"/>
<path d="M579.113 351.795H577.26V353.648H579.113V351.795Z" fill="white"/>
<path d="M579.113 355.502H577.26V357.355H579.113V355.502Z" fill="white"/>
<path d="M579.113 359.209H577.26V361.062H579.113V359.209Z" fill="white"/>
<path d="M579.113 362.916H577.26V364.77H579.113V362.916Z" fill="white"/>
<path d="M579.113 366.623H577.26V368.477H579.113V366.623Z" fill="white"/>
<path d="M579.113 370.33H577.26V372.184H579.113V370.33Z" fill="white"/>
<path d="M579.113 374.037H577.26V375.891H579.113V374.037Z" fill="white"/>
<path d="M580.967 336.967H579.113V338.82H580.967V336.967Z" fill="white"/>
<path d="M580.967 342.527H579.113V344.381H580.967V342.527Z" fill="white"/>
<path d="M580.967 351.795H579.113V353.648H580.967V351.795Z" fill="white"/>
<path d="M580.967 353.648H579.113V355.502H580.967V353.648Z" fill="white"/>
<path d="M580.967 357.355H579.113V359.209H580.967V357.355Z" fill="white"/>
<path d="M580.967 364.77H579.113V366.623H580.967V364.77Z" fill="white"/>
<path d="M580.967 366.623H579.113V368.477H580.967V366.623Z" fill="white"/>
<path d="M580.967 370.33H579.113V372.184H580.967V370.33Z" fill="white"/>
<path d="M580.967 372.184H579.113V374.037H580.967V372.184Z" fill="white"/>
<path d="M580.967 374.037H579.113V375.891H580.967V374.037Z" fill="white"/>
<path d="M582.82 331.406H580.967V333.26H582.82V331.406Z" fill="white"/>
<path d="M582.82 333.26H580.967V335.113H582.82V333.26Z" fill="white"/>
<path d="M582.82 338.82H580.967V340.674H582.82V338.82Z" fill="white"/>
<path d="M582.82 340.674H580.967V342.527H582.82V340.674Z" fill="white"/>
<path d="M582.82 348.088H580.967V349.941H582.82V348.088Z" fill="white"/>
<path d="M582.82 351.795H580.967V353.648H582.82V351.795Z" fill="white"/>
<path d="M582.82 353.648H580.967V355.502H582.82V353.648Z" fill="white"/>
<path d="M582.82 364.77H580.967V366.623H582.82V364.77Z" fill="white"/>
<path d="M582.82 366.623H580.967V368.477H582.82V366.623Z" fill="white"/>
<path d="M582.82 377.744H580.967V379.598H582.82V377.744Z" fill="white"/>
<path d="M582.82 381.451H580.967V383.305H582.82V381.451Z" fill="white"/>
<path d="M582.82 385.158H580.967V387.012H582.82V385.158Z" fill="white"/>
<path d="M582.82 388.865H580.967V390.719H582.82V388.865Z" fill="white"/>
<path d="M584.674 322.139H582.82V323.992H584.674V322.139Z" fill="white"/>
<path d="M584.674 323.992H582.82V325.846H584.674V323.992Z" fill="white"/>
<path d="M584.674 329.553H582.82V331.406H584.674V329.553Z" fill="white"/>
<path d="M584.674 335.113H582.82V336.967H584.674V335.113Z" fill="white"/>
<path d="M584.674 336.967H582.82V338.82H584.674V336.967Z" fill="white"/>
<path d="M584.674 340.674H582.82V342.527H584.674V340.674Z" fill="white"/>
<path d="M584.674 342.527H582.82V344.381H584.674V342.527Z" fill="white"/>
<path d="M584.674 346.234H582.82V348.088H584.674V346.234Z" fill="white"/>
<path d="M584.674 348.088H582.82V349.941H584.674V348.088Z" fill="white"/>
<path d="M584.674 351.795H582.82V353.648H584.674V351.795Z" fill="white"/>
<path d="M584.674 353.648H582.82V355.502H584.674V353.648Z" fill="white"/>
<path d="M584.674 355.502H582.82V357.355H584.674V355.502Z" fill="white"/>
<path d="M584.674 357.355H582.82V359.209H584.674V357.355Z" fill="white"/>
<path d="M584.674 359.209H582.82V361.062H584.674V359.209Z" fill="white"/>
<path d="M584.674 361.062H582.82V362.916H584.674V361.062Z" fill="white"/>
<path d="M584.674 362.916H582.82V364.77H584.674V362.916Z" fill="white"/>
<path d="M584.674 366.623H582.82V368.477H584.674V366.623Z" fill="white"/>
<path d="M584.674 368.477H582.82V370.33H584.674V368.477Z" fill="white"/>
<path d="M584.674 377.744H582.82V379.598H584.674V377.744Z" fill="white"/>
<path d="M584.674 381.451H582.82V383.305H584.674V381.451Z" fill="white"/>
<path d="M584.674 383.305H582.82V385.158H584.674V383.305Z" fill="white"/>
<path d="M584.674 385.158H582.82V387.012H584.674V385.158Z" fill="white"/>
<path d="M586.527 323.992H584.674V325.846H586.527V323.992Z" fill="white"/>
<path d="M586.527 325.846H584.674V327.699H586.527V325.846Z" fill="white"/>
<path d="M586.527 329.553H584.674V331.406H586.527V329.553Z" fill="white"/>
<path d="M586.527 331.406H584.674V333.26H586.527V331.406Z" fill="white"/>
<path d="M586.527 333.26H584.674V335.113H586.527V333.26Z" fill="white"/>
<path d="M586.527 336.967H584.674V338.82H586.527V336.967Z" fill="white"/>
<path d="M586.527 340.674H584.674V342.527H586.527V340.674Z" fill="white"/>
<path d="M586.527 344.381H584.674V346.234H586.527V344.381Z" fill="white"/>
<path d="M586.527 346.234H584.674V348.088H586.527V346.234Z" fill="white"/>
<path d="M586.527 349.941H584.674V351.795H586.527V349.941Z" fill="white"/>
<path d="M586.527 357.355H584.674V359.209H586.527V357.355Z" fill="white"/>
<path d="M586.527 368.477H584.674V370.33H586.527V368.477Z" fill="white"/>
<path d="M586.527 370.33H584.674V372.184H586.527V370.33Z" fill="white"/>
<path d="M586.527 377.744H584.674V379.598H586.527V377.744Z" fill="white"/>
<path d="M586.527 379.598H584.674V381.451H586.527V379.598Z" fill="white"/>
<path d="M586.527 387.012H584.674V388.865H586.527V387.012Z" fill="white"/>
<path d="M586.527 388.865H584.674V390.719H586.527V388.865Z" fill="white"/>
<path d="M588.381 322.139H586.527V323.992H588.381V322.139Z" fill="white"/>
<path d="M588.381 325.846H586.527V327.699H588.381V325.846Z" fill="white"/>
<path d="M588.381 331.406H586.527V333.26H588.381V331.406Z" fill="white"/>
<path d="M588.381 335.113H586.527V336.967H588.381V335.113Z" fill="white"/>
<path d="M588.381 338.82H586.527V340.674H588.381V338.82Z" fill="white"/>
<path d="M588.381 342.527H586.527V344.381H588.381V342.527Z" fill="white"/>
<path d="M588.381 344.381H586.527V346.234H588.381V344.381Z" fill="white"/>
<path d="M588.381 348.088H586.527V349.941H588.381V348.088Z" fill="white"/>
<path d="M588.381 349.941H586.527V351.795H588.381V349.941Z" fill="white"/>
<path d="M588.381 351.795H586.527V353.648H588.381V351.795Z" fill="white"/>
<path d="M588.381 361.062H586.527V362.916H588.381V361.062Z" fill="white"/>
<path d="M588.381 364.77H586.527V366.623H588.381V364.77Z" fill="white"/>
<path d="M588.381 366.623H586.527V368.477H588.381V366.623Z" fill="white"/>
<path d="M588.381 370.33H586.527V372.184H588.381V370.33Z" fill="white"/>
<path d="M588.381 372.184H586.527V374.037H588.381V372.184Z" fill="white"/>
<path d="M588.381 374.037H586.527V375.891H588.381V374.037Z" fill="white"/>
<path d="M588.381 377.744H586.527V379.598H588.381V377.744Z" fill="white"/>
<path d="M588.381 381.451H586.527V383.305H588.381V381.451Z" fill="white"/>
<path d="M588.381 383.305H586.527V385.158H588.381V383.305Z" fill="white"/>
<path d="M588.381 387.012H586.527V388.865H588.381V387.012Z" fill="white"/>
<path d="M588.381 388.865H586.527V390.719H588.381V388.865Z" fill="white"/>
<path d="M590.234 323.992H588.381V325.846H590.234V323.992Z" fill="white"/>
<path d="M590.234 327.699H588.381V329.553H590.234V327.699Z" fill="white"/>
<path d="M590.234 329.553H588.381V331.406H590.234V329.553Z" fill="white"/>
<path d="M590.234 331.406H588.381V333.26H590.234V331.406Z" fill="white"/>
<path d="M590.234 333.26H588.381V335.113H590.234V333.26Z" fill="white"/>
<path d="M590.234 335.113H588.381V336.967H590.234V335.113Z" fill="white"/>
<path d="M590.234 336.967H588.381V338.82H590.234V336.967Z" fill="white"/>
<path d="M590.234 340.674H588.381V342.527H590.234V340.674Z" fill="white"/>
<path d="M590.234 342.527H588.381V344.381H590.234V342.527Z" fill="white"/>
<path d="M590.234 346.234H588.381V348.088H590.234V346.234Z" fill="white"/>
<path d="M590.234 349.941H588.381V351.795H590.234V349.941Z" fill="white"/>
<path d="M590.234 355.502H588.381V357.355H590.234V355.502Z" fill="white"/>
<path d="M590.234 359.209H588.381V361.062H590.234V359.209Z" fill="white"/>
<path d="M590.234 361.062H588.381V362.916H590.234V361.062Z" fill="white"/>
<path d="M590.234 362.916H588.381V364.77H590.234V362.916Z" fill="white"/>
<path d="M590.234 374.037H588.381V375.891H590.234V374.037Z" fill="white"/>
<path d="M590.234 377.744H588.381V379.598H590.234V377.744Z" fill="white"/>
<path d="M590.234 379.598H588.381V381.451H590.234V379.598Z" fill="white"/>
<path d="M590.234 388.865H588.381V390.719H590.234V388.865Z" fill="white"/>
<path d="M592.088 322.139H590.234V323.992H592.088V322.139Z" fill="white"/>
<path d="M592.088 325.846H590.234V327.699H592.088V325.846Z" fill="white"/>
<path d="M592.088 327.699H590.234V329.553H592.088V327.699Z" fill="white"/>
<path d="M592.088 335.113H590.234V336.967H592.088V335.113Z" fill="white"/>
<path d="M592.088 342.527H590.234V344.381H592.088V342.527Z" fill="white"/>
<path d="M592.088 346.234H590.234V348.088H592.088V346.234Z" fill="white"/>
<path d="M592.088 348.088H590.234V349.941H592.088V348.088Z" fill="white"/>
<path d="M592.088 349.941H590.234V351.795H592.088V349.941Z" fill="white"/>
<path d="M592.088 351.795H590.234V353.648H592.088V351.795Z" fill="white"/>
<path d="M592.088 353.648H590.234V355.502H592.088V353.648Z" fill="white"/>
<path d="M592.088 357.355H590.234V359.209H592.088V357.355Z" fill="white"/>
<path d="M592.088 359.209H590.234V361.062H592.088V359.209Z" fill="white"/>
<path d="M592.088 361.062H590.234V362.916H592.088V361.062Z" fill="white"/>
<path d="M592.088 366.623H590.234V368.477H592.088V366.623Z" fill="white"/>
<path d="M592.088 368.477H590.234V370.33H592.088V368.477Z" fill="white"/>
<path d="M592.088 370.33H590.234V372.184H592.088V370.33Z" fill="white"/>
<path d="M592.088 372.184H590.234V374.037H592.088V372.184Z" fill="white"/>
<path d="M592.088 375.891H590.234V377.744H592.088V375.891Z" fill="white"/>
<path d="M592.088 379.598H590.234V381.451H592.088V379.598Z" fill="white"/>
<path d="M592.088 385.158H590.234V387.012H592.088V385.158Z" fill="white"/>
<path d="M593.941 322.139H592.088V323.992H593.941V322.139Z" fill="white"/>
<path d="M593.941 323.992H592.088V325.846H593.941V323.992Z" fill="white"/>
<path d="M593.941 327.699H592.088V329.553H593.941V327.699Z" fill="white"/>
<path d="M593.941 329.553H592.088V331.406H593.941V329.553Z" fill="white"/>
<path d="M593.941 331.406H592.088V333.26H593.941V331.406Z" fill="white"/>
<path d="M593.941 333.26H592.088V335.113H593.941V333.26Z" fill="white"/>
<path d="M593.941 336.967H592.088V338.82H593.941V336.967Z" fill="white"/>
<path d="M593.941 340.674H592.088V342.527H593.941V340.674Z" fill="white"/>
<path d="M593.941 344.381H592.088V346.234H593.941V344.381Z" fill="white"/>
<path d="M593.941 346.234H592.088V348.088H593.941V346.234Z" fill="white"/>
<path d="M593.941 353.648H592.088V355.502H593.941V353.648Z" fill="white"/>
<path d="M593.941 359.209H592.088V361.062H593.941V359.209Z" fill="white"/>
<path d="M593.941 361.062H592.088V362.916H593.941V361.062Z" fill="white"/>
<path d="M593.941 366.623H592.088V368.477H593.941V366.623Z" fill="white"/>
<path d="M593.941 372.184H592.088V374.037H593.941V372.184Z" fill="white"/>
<path d="M593.941 374.037H592.088V375.891H593.941V374.037Z" fill="white"/>
<path d="M593.941 377.744H592.088V379.598H593.941V377.744Z" fill="white"/>
<path d="M593.941 381.451H592.088V383.305H593.941V381.451Z" fill="white"/>
<path d="M593.941 383.305H592.088V385.158H593.941V383.305Z" fill="white"/>
<path d="M593.941 388.865H592.088V390.719H593.941V388.865Z" fill="white"/>
<path d="M595.795 323.992H593.941V325.846H595.795V323.992Z" fill="white"/>
<path d="M595.795 327.699H593.941V329.553H595.795V327.699Z" fill="white"/>
<path d="M595.795 335.113H593.941V336.967H595.795V335.113Z" fill="white"/>
<path d="M595.795 336.967H593.941V338.82H595.795V336.967Z" fill="white"/>
<path d="M595.795 338.82H593.941V340.674H595.795V338.82Z" fill="white"/>
<path d="M595.795 340.674H593.941V342.527H595.795V340.674Z" fill="white"/>
<path d="M595.795 349.941H593.941V351.795H595.795V349.941Z" fill="white"/>
<path d="M595.795 351.795H593.941V353.648H595.795V351.795Z" fill="white"/>
<path d="M595.795 353.648H593.941V355.502H595.795V353.648Z" fill="white"/>
<path d="M595.795 357.355H593.941V359.209H595.795V357.355Z" fill="white"/>
<path d="M595.795 362.916H593.941V364.77H595.795V362.916Z" fill="white"/>
<path d="M595.795 364.77H593.941V366.623H595.795V364.77Z" fill="white"/>
<path d="M595.795 366.623H593.941V368.477H595.795V366.623Z" fill="white"/>
<path d="M595.795 375.891H593.941V377.744H595.795V375.891Z" fill="white"/>
<path d="M595.795 377.744H593.941V379.598H595.795V377.744Z" fill="white"/>
<path d="M595.795 379.598H593.941V381.451H595.795V379.598Z" fill="white"/>
<path d="M595.795 383.305H593.941V385.158H595.795V383.305Z" fill="white"/>
<path d="M595.795 385.158H593.941V387.012H595.795V385.158Z" fill="white"/>
<path d="M595.795 387.012H593.941V388.865H595.795V387.012Z" fill="white"/>
<path d="M597.648 323.992H595.795V325.846H597.648V323.992Z" fill="white"/>
<path d="M597.648 325.846H595.795V327.699H597.648V325.846Z" fill="white"/>
<path d="M597.648 329.553H595.795V331.406H597.648V329.553Z" fill="white"/>
<path d="M597.648 331.406H595.795V333.26H597.648V331.406Z" fill="white"/>
<path d="M597.648 333.26H595.795V335.113H597.648V333.26Z" fill="white"/>
<path d="M597.648 335.113H595.795V336.967H597.648V335.113Z" fill="white"/>
<path d="M597.648 338.82H595.795V340.674H597.648V338.82Z" fill="white"/>
<path d="M597.648 349.941H595.795V351.795H597.648V349.941Z" fill="white"/>
<path d="M597.648 351.795H595.795V353.648H597.648V351.795Z" fill="white"/>
<path d="M597.648 355.502H595.795V357.355H597.648V355.502Z" fill="white"/>
<path d="M597.648 359.209H595.795V361.062H597.648V359.209Z" fill="white"/>
<path d="M597.648 366.623H595.795V368.477H597.648V366.623Z" fill="white"/>
<path d="M597.648 368.477H595.795V370.33H597.648V368.477Z" fill="white"/>
<path d="M597.648 370.33H595.795V372.184H597.648V370.33Z" fill="white"/>
<path d="M597.648 374.037H595.795V375.891H597.648V374.037Z" fill="white"/>
<path d="M597.648 375.891H595.795V377.744H597.648V375.891Z" fill="white"/>
<path d="M597.648 377.744H595.795V379.598H597.648V377.744Z" fill="white"/>
<path d="M597.648 381.451H595.795V383.305H597.648V381.451Z" fill="white"/>
<path d="M597.648 385.158H595.795V387.012H597.648V385.158Z" fill="white"/>
<path d="M597.648 387.012H595.795V388.865H597.648V387.012Z" fill="white"/>
<path d="M597.648 388.865H595.795V390.719H597.648V388.865Z" fill="white"/>
<path d="M599.502 325.846H597.648V327.699H599.502V325.846Z" fill="white"/>
<path d="M599.502 327.699H597.648V329.553H599.502V327.699Z" fill="white"/>
<path d="M599.502 331.406H597.648V333.26H599.502V331.406Z" fill="white"/>
<path d="M599.502 340.674H597.648V342.527H599.502V340.674Z" fill="white"/>
<path d="M599.502 342.527H597.648V344.381H599.502V342.527Z" fill="white"/>
<path d="M599.502 346.234H597.648V348.088H599.502V346.234Z" fill="white"/>
<path d="M599.502 351.795H597.648V353.648H599.502V351.795Z" fill="white"/>
<path d="M599.502 357.355H597.648V359.209H599.502V357.355Z" fill="white"/>
<path d="M599.502 359.209H597.648V361.062H599.502V359.209Z" fill="white"/>
<path d="M599.502 361.062H597.648V362.916H599.502V361.062Z" fill="white"/>
<path d="M599.502 372.184H597.648V374.037H599.502V372.184Z" fill="white"/>
<path d="M599.502 374.037H597.648V375.891H599.502V374.037Z" fill="white"/>
<path d="M599.502 379.598H597.648V381.451H599.502V379.598Z" fill="white"/>
<path d="M599.502 383.305H597.648V385.158H599.502V383.305Z" fill="white"/>
<path d="M599.502 385.158H597.648V387.012H599.502V385.158Z" fill="white"/>
<path d="M601.355 325.846H599.502V327.699H601.355V325.846Z" fill="white"/>
<path d="M601.355 327.699H599.502V329.553H601.355V327.699Z" fill="white"/>
<path d="M601.355 331.406H599.502V333.26H601.355V331.406Z" fill="white"/>
<path d="M601.355 333.26H599.502V335.113H601.355V333.26Z" fill="white"/>
<path d="M601.355 348.088H599.502V349.941H601.355V348.088Z" fill="white"/>
<path d="M601.355 351.795H599.502V353.648H601.355V351.795Z" fill="white"/>
<path d="M601.355 353.648H599.502V355.502H601.355V353.648Z" fill="white"/>
<path d="M601.355 364.77H599.502V366.623H601.355V364.77Z" fill="white"/>
<path d="M601.355 368.477H599.502V370.33H601.355V368.477Z" fill="white"/>
<path d="M601.355 370.33H599.502V372.184H601.355V370.33Z" fill="white"/>
<path d="M601.355 372.184H599.502V374.037H601.355V372.184Z" fill="white"/>
<path d="M601.355 375.891H599.502V377.744H601.355V375.891Z" fill="white"/>
<path d="M601.355 377.744H599.502V379.598H601.355V377.744Z" fill="white"/>
<path d="M601.355 379.598H599.502V381.451H601.355V379.598Z" fill="white"/>
<path d="M601.355 381.451H599.502V383.305H601.355V381.451Z" fill="white"/>
<path d="M601.355 383.305H599.502V385.158H601.355V383.305Z" fill="white"/>
<path d="M601.355 388.865H599.502V390.719H601.355V388.865Z" fill="white"/>
<path d="M603.209 323.992H601.355V325.846H603.209V323.992Z" fill="white"/>
<path d="M603.209 325.846H601.355V327.699H603.209V325.846Z" fill="white"/>
<path d="M603.209 329.553H601.355V331.406H603.209V329.553Z" fill="white"/>
<path d="M603.209 331.406H601.355V333.26H603.209V331.406Z" fill="white"/>
<path d="M603.209 335.113H601.355V336.967H603.209V335.113Z" fill="white"/>
<path d="M603.209 336.967H601.355V338.82H603.209V336.967Z" fill="white"/>
<path d="M603.209 342.527H601.355V344.381H603.209V342.527Z" fill="white"/>
<path d="M603.209 346.234H601.355V348.088H603.209V346.234Z" fill="white"/>
<path d="M603.209 349.941H601.355V351.795H603.209V349.941Z" fill="white"/>
<path d="M603.209 353.648H601.355V355.502H603.209V353.648Z" fill="white"/>
<path d="M603.209 357.355H601.355V359.209H603.209V357.355Z" fill="white"/>
<path d="M603.209 359.209H601.355V361.062H603.209V359.209Z" fill="white"/>
<path d="M603.209 362.916H601.355V364.77H603.209V362.916Z" fill="white"/>
<path d="M603.209 366.623H601.355V368.477H603.209V366.623Z" fill="white"/>
<path d="M603.209 374.037H601.355V375.891H603.209V374.037Z" fill="white"/>
<path d="M603.209 375.891H601.355V377.744H603.209V375.891Z" fill="white"/>
<path d="M603.209 383.305H601.355V385.158H603.209V383.305Z" fill="white"/>
<path d="M603.209 387.012H601.355V388.865H603.209V387.012Z" fill="white"/>
<path d="M603.209 388.865H601.355V390.719H603.209V388.865Z" fill="white"/>
<path d="M605.062 322.139H603.209V323.992H605.062V322.139Z" fill="white"/>
<path d="M605.062 323.992H603.209V325.846H605.062V323.992Z" fill="white"/>
<path d="M605.062 333.26H603.209V335.113H605.062V333.26Z" fill="white"/>
<path d="M605.062 338.82H603.209V340.674H605.062V338.82Z" fill="white"/>
<path d="M605.062 340.674H603.209V342.527H605.062V340.674Z" fill="white"/>
<path d="M605.062 342.527H603.209V344.381H605.062V342.527Z" fill="white"/>
<path d="M605.062 346.234H603.209V348.088H605.062V346.234Z" fill="white"/>
<path d="M605.062 351.795H603.209V353.648H605.062V351.795Z" fill="white"/>
<path d="M605.062 353.648H603.209V355.502H605.062V353.648Z" fill="white"/>
<path d="M605.062 355.502H603.209V357.355H605.062V355.502Z" fill="white"/>
<path d="M605.062 357.355H603.209V359.209H605.062V357.355Z" fill="white"/>
<path d="M605.062 361.062H603.209V362.916H605.062V361.062Z" fill="white"/>
<path d="M605.062 368.477H603.209V370.33H605.062V368.477Z" fill="white"/>
<path d="M605.062 370.33H603.209V372.184H605.062V370.33Z" fill="white"/>
<path d="M605.062 372.184H603.209V374.037H605.062V372.184Z" fill="white"/>
<path d="M605.062 375.891H603.209V377.744H605.062V375.891Z" fill="white"/>
<path d="M605.062 377.744H603.209V379.598H605.062V377.744Z" fill="white"/>
<path d="M605.062 379.598H603.209V381.451H605.062V379.598Z" fill="white"/>
<path d="M605.062 381.451H603.209V383.305H605.062V381.451Z" fill="white"/>
<path d="M605.062 385.158H603.209V387.012H605.062V385.158Z" fill="white"/>
<path d="M605.062 387.012H603.209V388.865H605.062V387.012Z" fill="white"/>
<path d="M605.062 388.865H603.209V390.719H605.062V388.865Z" fill="white"/>
<path d="M606.916 325.846H605.062V327.699H606.916V325.846Z" fill="white"/>
<path d="M606.916 336.967H605.062V338.82H606.916V336.967Z" fill="white"/>
<path d="M606.916 338.82H605.062V340.674H606.916V338.82Z" fill="white"/>
<path d="M606.916 342.527H605.062V344.381H606.916V342.527Z" fill="white"/>
<path d="M606.916 353.648H605.062V355.502H606.916V353.648Z" fill="white"/>
<path d="M606.916 357.355H605.062V359.209H606.916V357.355Z" fill="white"/>
<path d="M606.916 359.209H605.062V361.062H606.916V359.209Z" fill="white"/>
<path d="M606.916 361.062H605.062V362.916H606.916V361.062Z" fill="white"/>
<path d="M606.916 362.916H605.062V364.77H606.916V362.916Z" fill="white"/>
<path d="M606.916 364.77H605.062V366.623H606.916V364.77Z" fill="white"/>
<path d="M606.916 366.623H605.062V368.477H606.916V366.623Z" fill="white"/>
<path d="M606.916 368.477H605.062V370.33H606.916V368.477Z" fill="white"/>
<path d="M606.916 372.184H605.062V374.037H606.916V372.184Z" fill="white"/>
<path d="M606.916 374.037H605.062V375.891H606.916V374.037Z" fill="white"/>
<path d="M606.916 379.598H605.062V381.451H606.916V379.598Z" fill="white"/>
<path d="M606.916 381.451H605.062V383.305H606.916V381.451Z" fill="white"/>
<path d="M608.77 325.846H606.916V327.699H608.77V325.846Z" fill="white"/>
<path d="M608.77 327.699H606.916V329.553H608.77V327.699Z" fill="white"/>
<path d="M608.77 329.553H606.916V331.406H608.77V329.553Z" fill="white"/>
<path d="M608.77 333.26H606.916V335.113H608.77V333.26Z" fill="white"/>
<path d="M608.77 336.967H606.916V338.82H608.77V336.967Z" fill="white"/>
<path d="M608.77 338.82H606.916V340.674H608.77V338.82Z" fill="white"/>
<path d="M608.77 340.674H606.916V342.527H608.77V340.674Z" fill="white"/>
<path d="M608.77 342.527H606.916V344.381H608.77V342.527Z" fill="white"/>
<path d="M608.77 344.381H606.916V346.234H608.77V344.381Z" fill="white"/>
<path d="M608.77 348.088H606.916V349.941H608.77V348.088Z" fill="white"/>
<path d="M608.77 349.941H606.916V351.795H608.77V349.941Z" fill="white"/>
<path d="M608.77 353.648H606.916V355.502H608.77V353.648Z" fill="white"/>
<path d="M608.77 355.502H606.916V357.355H608.77V355.502Z" fill="white"/>
<path d="M608.77 359.209H606.916V361.062H608.77V359.209Z" fill="white"/>
<path d="M608.77 361.062H606.916V362.916H608.77V361.062Z" fill="white"/>
<path d="M608.77 368.477H606.916V370.33H608.77V368.477Z" fill="white"/>
<path d="M608.77 370.33H606.916V372.184H608.77V370.33Z" fill="white"/>
<path d="M608.77 372.184H606.916V374.037H608.77V372.184Z" fill="white"/>
<path d="M608.77 375.891H606.916V377.744H608.77V375.891Z" fill="white"/>
<path d="M608.77 387.012H606.916V388.865H608.77V387.012Z" fill="white"/>
<path d="M608.77 388.865H606.916V390.719H608.77V388.865Z" fill="white"/>
<path d="M610.623 323.992H608.77V325.846H610.623V323.992Z" fill="white"/>
<path d="M610.623 325.846H608.77V327.699H610.623V325.846Z" fill="white"/>
<path d="M610.623 336.967H608.77V338.82H610.623V336.967Z" fill="white"/>
<path d="M610.623 340.674H608.77V342.527H610.623V340.674Z" fill="white"/>
<path d="M610.623 342.527H608.77V344.381H610.623V342.527Z" fill="white"/>
<path d="M610.623 344.381H608.77V346.234H610.623V344.381Z" fill="white"/>
<path d="M610.623 346.234H608.77V348.088H610.623V346.234Z" fill="white"/>
<path d="M610.623 349.941H608.77V351.795H610.623V349.941Z" fill="white"/>
<path d="M610.623 351.795H608.77V353.648H610.623V351.795Z" fill="white"/>
<path d="M610.623 357.355H608.77V359.209H610.623V357.355Z" fill="white"/>
<path d="M610.623 359.209H608.77V361.062H610.623V359.209Z" fill="white"/>
<path d="M610.623 361.062H608.77V362.916H610.623V361.062Z" fill="white"/>
<path d="M610.623 362.916H608.77V364.77H610.623V362.916Z" fill="white"/>
<path d="M610.623 366.623H608.77V368.477H610.623V366.623Z" fill="white"/>
<path d="M610.623 368.477H608.77V370.33H610.623V368.477Z" fill="white"/>
<path d="M610.623 372.184H608.77V374.037H610.623V372.184Z" fill="white"/>
<path d="M610.623 379.598H608.77V381.451H610.623V379.598Z" fill="white"/>
<path d="M610.623 383.305H608.77V385.158H610.623V383.305Z" fill="white"/>
<path d="M610.623 388.865H608.77V390.719H610.623V388.865Z" fill="white"/>
<path d="M612.477 327.699H610.623V329.553H612.477V327.699Z" fill="white"/>
<path d="M612.477 331.406H610.623V333.26H612.477V331.406Z" fill="white"/>
<path d="M612.477 333.26H610.623V335.113H612.477V333.26Z" fill="white"/>
<path d="M612.477 338.82H610.623V340.674H612.477V338.82Z" fill="white"/>
<path d="M612.477 342.527H610.623V344.381H612.477V342.527Z" fill="white"/>
<path d="M612.477 344.381H610.623V346.234H612.477V344.381Z" fill="white"/>
<path d="M612.477 348.088H610.623V349.941H612.477V348.088Z" fill="white"/>
<path d="M612.477 349.941H610.623V351.795H612.477V349.941Z" fill="white"/>
<path d="M612.477 361.062H610.623V362.916H612.477V361.062Z" fill="white"/>
<path d="M612.477 366.623H610.623V368.477H612.477V366.623Z" fill="white"/>
<path d="M612.477 368.477H610.623V370.33H612.477V368.477Z" fill="white"/>
<path d="M612.477 383.305H610.623V385.158H612.477V383.305Z" fill="white"/>
<path d="M612.477 387.012H610.623V388.865H612.477V387.012Z" fill="white"/>
<path d="M612.477 388.865H610.623V390.719H612.477V388.865Z" fill="white"/>
<path d="M614.33 322.139H612.477V323.992H614.33V322.139Z" fill="white"/>
<path d="M614.33 325.846H612.477V327.699H614.33V325.846Z" fill="white"/>
<path d="M614.33 327.699H612.477V329.553H614.33V327.699Z" fill="white"/>
<path d="M614.33 336.967H612.477V338.82H614.33V336.967Z" fill="white"/>
<path d="M614.33 338.82H612.477V340.674H614.33V338.82Z" fill="white"/>
<path d="M614.33 340.674H612.477V342.527H614.33V340.674Z" fill="white"/>
<path d="M614.33 346.234H612.477V348.088H614.33V346.234Z" fill="white"/>
<path d="M614.33 351.795H612.477V353.648H614.33V351.795Z" fill="white"/>
<path d="M614.33 357.355H612.477V359.209H614.33V357.355Z" fill="white"/>
<path d="M614.33 361.062H612.477V362.916H614.33V361.062Z" fill="white"/>
<path d="M614.33 377.744H612.477V379.598H614.33V377.744Z" fill="white"/>
<path d="M614.33 379.598H612.477V381.451H614.33V379.598Z" fill="white"/>
<path d="M614.33 387.012H612.477V388.865H614.33V387.012Z" fill="white"/>
<path d="M616.184 322.139H614.33V323.992H616.184V322.139Z" fill="white"/>
<path d="M616.184 329.553H614.33V331.406H616.184V329.553Z" fill="white"/>
<path d="M616.184 333.26H614.33V335.113H616.184V333.26Z" fill="white"/>
<path d="M616.184 335.113H614.33V336.967H616.184V335.113Z" fill="white"/>
<path d="M616.184 336.967H614.33V338.82H616.184V336.967Z" fill="white"/>
<path d="M616.184 342.527H614.33V344.381H616.184V342.527Z" fill="white"/>
<path d="M616.184 348.088H614.33V349.941H616.184V348.088Z" fill="white"/>
<path d="M616.184 349.941H614.33V351.795H616.184V349.941Z" fill="white"/>
<path d="M616.184 361.062H614.33V362.916H616.184V361.062Z" fill="white"/>
<path d="M616.184 362.916H614.33V364.77H616.184V362.916Z" fill="white"/>
<path d="M616.184 364.77H614.33V366.623H616.184V364.77Z" fill="white"/>
<path d="M616.184 366.623H614.33V368.477H616.184V366.623Z" fill="white"/>
<path d="M616.184 368.477H614.33V370.33H616.184V368.477Z" fill="white"/>
<path d="M616.184 370.33H614.33V372.184H616.184V370.33Z" fill="white"/>
<path d="M616.184 372.184H614.33V374.037H616.184V372.184Z" fill="white"/>
<path d="M616.184 374.037H614.33V375.891H616.184V374.037Z" fill="white"/>
<path d="M616.184 377.744H614.33V379.598H616.184V377.744Z" fill="white"/>
<path d="M616.184 383.305H614.33V385.158H616.184V383.305Z" fill="white"/>
<path d="M616.184 385.158H614.33V387.012H616.184V385.158Z" fill="white"/>
<path d="M616.184 387.012H614.33V388.865H616.184V387.012Z" fill="white"/>
<path d="M616.184 388.865H614.33V390.719H616.184V388.865Z" fill="white"/>
<path d="M618.037 322.139H616.184V323.992H618.037V322.139Z" fill="white"/>
<path d="M618.037 325.846H616.184V327.699H618.037V325.846Z" fill="white"/>
<path d="M618.037 327.699H616.184V329.553H618.037V327.699Z" fill="white"/>
<path d="M618.037 329.553H616.184V331.406H618.037V329.553Z" fill="white"/>
<path d="M618.037 331.406H616.184V333.26H618.037V331.406Z" fill="white"/>
<path d="M618.037 335.113H616.184V336.967H618.037V335.113Z" fill="white"/>
<path d="M618.037 336.967H616.184V338.82H618.037V336.967Z" fill="white"/>
<path d="M618.037 351.795H616.184V353.648H618.037V351.795Z" fill="white"/>
<path d="M618.037 355.502H616.184V357.355H618.037V355.502Z" fill="white"/>
<path d="M618.037 357.355H616.184V359.209H618.037V357.355Z" fill="white"/>
<path d="M618.037 362.916H616.184V364.77H618.037V362.916Z" fill="white"/>
<path d="M618.037 364.77H616.184V366.623H618.037V364.77Z" fill="white"/>
<path d="M618.037 374.037H616.184V375.891H618.037V374.037Z" fill="white"/>
<path d="M618.037 375.891H616.184V377.744H618.037V375.891Z" fill="white"/>
<path d="M618.037 379.598H616.184V381.451H618.037V379.598Z" fill="white"/>
<path d="M618.037 381.451H616.184V383.305H618.037V381.451Z" fill="white"/>
<path d="M618.037 383.305H616.184V385.158H618.037V383.305Z" fill="white"/>
<path d="M618.037 385.158H616.184V387.012H618.037V385.158Z" fill="white"/>
<path d="M618.037 387.012H616.184V388.865H618.037V387.012Z" fill="white"/>
<path d="M619.891 322.139H618.037V323.992H619.891V322.139Z" fill="white"/>
<path d="M619.891 325.846H618.037V327.699H619.891V325.846Z" fill="white"/>
<path d="M619.891 329.553H618.037V331.406H619.891V329.553Z" fill="white"/>
<path d="M619.891 333.26H618.037V335.113H619.891V333.26Z" fill="white"/>
<path d="M619.891 336.967H618.037V338.82H619.891V336.967Z" fill="white"/>
<path d="M619.891 338.82H618.037V340.674H619.891V338.82Z" fill="white"/>
<path d="M619.891 340.674H618.037V342.527H619.891V340.674Z" fill="white"/>
<path d="M619.891 342.527H618.037V344.381H619.891V342.527Z" fill="white"/>
<path d="M619.891 344.381H618.037V346.234H619.891V344.381Z" fill="white"/>
<path d="M619.891 349.941H618.037V351.795H619.891V349.941Z" fill="white"/>
<path d="M619.891 351.795H618.037V353.648H619.891V351.795Z" fill="white"/>
<path d="M619.891 353.648H618.037V355.502H619.891V353.648Z" fill="white"/>
<path d="M619.891 361.062H618.037V362.916H619.891V361.062Z" fill="white"/>
<path d="M619.891 362.916H618.037V364.77H619.891V362.916Z" fill="white"/>
<path d="M619.891 364.77H618.037V366.623H619.891V364.77Z" fill="white"/>
<path d="M619.891 368.477H618.037V370.33H619.891V368.477Z" fill="white"/>
<path d="M619.891 370.33H618.037V372.184H619.891V370.33Z" fill="white"/>
<path d="M619.891 372.184H618.037V374.037H619.891V372.184Z" fill="white"/>
<path d="M619.891 374.037H618.037V375.891H619.891V374.037Z" fill="white"/>
<path d="M619.891 375.891H618.037V377.744H619.891V375.891Z" fill="white"/>
<path d="M619.891 377.744H618.037V379.598H619.891V377.744Z" fill="white"/>
<path d="M619.891 379.598H618.037V381.451H619.891V379.598Z" fill="white"/>
<path d="M619.891 381.451H618.037V383.305H619.891V381.451Z" fill="white"/>
<path d="M619.891 385.158H618.037V387.012H619.891V385.158Z" fill="white"/>
<path d="M619.891 387.012H618.037V388.865H619.891V387.012Z" fill="white"/>
<path d="M619.891 388.865H618.037V390.719H619.891V388.865Z" fill="white"/>
<path d="M621.744 336.967H619.891V338.82H621.744V336.967Z" fill="white"/>
<path d="M621.744 342.527H619.891V344.381H621.744V342.527Z" fill="white"/>
<path d="M621.744 346.234H619.891V348.088H621.744V346.234Z" fill="white"/>
<path d="M621.744 348.088H619.891V349.941H621.744V348.088Z" fill="white"/>
<path d="M621.744 351.795H619.891V353.648H621.744V351.795Z" fill="white"/>
<path d="M621.744 355.502H619.891V357.355H621.744V355.502Z" fill="white"/>
<path d="M621.744 364.77H619.891V366.623H621.744V364.77Z" fill="white"/>
<path d="M621.744 368.477H619.891V370.33H621.744V368.477Z" fill="white"/>
<path d="M621.744 370.33H619.891V372.184H621.744V370.33Z" fill="white"/>
<path d="M621.744 374.037H619.891V375.891H621.744V374.037Z" fill="white"/>
<path d="M621.744 381.451H619.891V383.305H621.744V381.451Z" fill="white"/>
<path d="M621.744 383.305H619.891V385.158H621.744V383.305Z" fill="white"/>
<path d="M621.744 387.012H619.891V388.865H621.744V387.012Z" fill="white"/>
<path d="M623.598 338.82H621.744V340.674H623.598V338.82Z" fill="white"/>
<path d="M623.598 344.381H621.744V346.234H623.598V344.381Z" fill="white"/>
<path d="M623.598 346.234H621.744V348.088H623.598V346.234Z" fill="white"/>
<path d="M623.598 348.088H621.744V349.941H623.598V348.088Z" fill="white"/>
<path d="M623.598 353.648H621.744V355.502H623.598V353.648Z" fill="white"/>
<path d="M623.598 355.502H621.744V357.355H623.598V355.502Z" fill="white"/>
<path d="M623.598 357.355H621.744V359.209H623.598V357.355Z" fill="white"/>
<path d="M623.598 361.062H621.744V362.916H623.598V361.062Z" fill="white"/>
<path d="M623.598 364.77H621.744V366.623H623.598V364.77Z" fill="white"/>
<path d="M623.598 374.037H621.744V375.891H623.598V374.037Z" fill="white"/>
<path d="M623.598 377.744H621.744V379.598H623.598V377.744Z" fill="white"/>
<path d="M623.598 381.451H621.744V383.305H623.598V381.451Z" fill="white"/>
<path d="M623.598 383.305H621.744V385.158H623.598V383.305Z" fill="white"/>
<path d="M623.598 385.158H621.744V387.012H623.598V385.158Z" fill="white"/>
<path d="M623.598 388.865H621.744V390.719H623.598V388.865Z" fill="white"/>
<path d="M625.451 336.967H623.598V338.82H625.451V336.967Z" fill="white"/>
<path d="M625.451 340.674H623.598V342.527H625.451V340.674Z" fill="white"/>
<path d="M625.451 346.234H623.598V348.088H625.451V346.234Z" fill="white"/>
<path d="M625.451 348.088H623.598V349.941H625.451V348.088Z" fill="white"/>
<path d="M625.451 364.77H623.598V366.623H625.451V364.77Z" fill="white"/>
<path d="M625.451 372.184H623.598V374.037H625.451V372.184Z" fill="white"/>
<path d="M625.451 374.037H623.598V375.891H625.451V374.037Z" fill="white"/>
<path d="M625.451 381.451H623.598V383.305H625.451V381.451Z" fill="white"/>
<path d="M625.451 383.305H623.598V385.158H625.451V383.305Z" fill="white"/>
<path d="M625.451 387.012H623.598V388.865H625.451V387.012Z" fill="white"/>
<path d="M627.305 338.82H625.451V340.674H627.305V338.82Z" fill="white"/>
<path d="M627.305 340.674H625.451V342.527H627.305V340.674Z" fill="white"/>
<path d="M627.305 348.088H625.451V349.941H627.305V348.088Z" fill="white"/>
<path d="M627.305 349.941H625.451V351.795H627.305V349.941Z" fill="white"/>
<path d="M627.305 357.355H625.451V359.209H627.305V357.355Z" fill="white"/>
<path d="M627.305 364.77H625.451V366.623H627.305V364.77Z" fill="white"/>
<path d="M627.305 368.477H625.451V370.33H627.305V368.477Z" fill="white"/>
<path d="M627.305 370.33H625.451V372.184H627.305V370.33Z" fill="white"/>
<path d="M627.305 372.184H625.451V374.037H627.305V372.184Z" fill="white"/>
<path d="M627.305 374.037H625.451V375.891H627.305V374.037Z" fill="white"/>
<path d="M627.305 375.891H625.451V377.744H627.305V375.891Z" fill="white"/>
<path d="M627.305 377.744H625.451V379.598H627.305V377.744Z" fill="white"/>
<path d="M627.305 379.598H625.451V381.451H627.305V379.598Z" fill="white"/>
<path d="M627.305 381.451H625.451V383.305H627.305V381.451Z" fill="white"/>
<path d="M627.305 385.158H625.451V387.012H627.305V385.158Z" fill="white"/>
<path d="M627.305 387.012H625.451V388.865H627.305V387.012Z" fill="white"/>
<path d="M627.305 388.865H625.451V390.719H627.305V388.865Z" fill="white"/>
<path d="M629.158 340.674H627.305V342.527H629.158V340.674Z" fill="white"/>
<path d="M629.158 342.527H627.305V344.381H629.158V342.527Z" fill="white"/>
<path d="M629.158 349.941H627.305V351.795H629.158V349.941Z" fill="white"/>
<path d="M629.158 357.355H627.305V359.209H629.158V357.355Z" fill="white"/>
<path d="M629.158 359.209H627.305V361.062H629.158V359.209Z" fill="white"/>
<path d="M629.158 361.062H627.305V362.916H629.158V361.062Z" fill="white"/>
<path d="M629.158 366.623H627.305V368.477H629.158V366.623Z" fill="white"/>
<path d="M629.158 370.33H627.305V372.184H629.158V370.33Z" fill="white"/>
<path d="M629.158 372.184H627.305V374.037H629.158V372.184Z" fill="white"/>
<path d="M629.158 377.744H627.305V379.598H629.158V377.744Z" fill="white"/>
<path d="M629.158 385.158H627.305V387.012H629.158V385.158Z" fill="white"/>
<path d="M631.012 338.82H629.158V340.674H631.012V338.82Z" fill="white"/>
<path d="M631.012 340.674H629.158V342.527H631.012V340.674Z" fill="white"/>
<path d="M631.012 342.527H629.158V344.381H631.012V342.527Z" fill="white"/>
<path d="M631.012 346.234H629.158V348.088H631.012V346.234Z" fill="white"/>
<path d="M631.012 348.088H629.158V349.941H631.012V348.088Z" fill="white"/>
<path d="M631.012 351.795H629.158V353.648H631.012V351.795Z" fill="white"/>
<path d="M631.012 355.502H629.158V357.355H631.012V355.502Z" fill="white"/>
<path d="M631.012 357.355H629.158V359.209H631.012V357.355Z" fill="white"/>
<path d="M631.012 362.916H629.158V364.77H631.012V362.916Z" fill="white"/>
<path d="M631.012 368.477H629.158V370.33H631.012V368.477Z" fill="white"/>
<path d="M631.012 374.037H629.158V375.891H631.012V374.037Z" fill="white"/>
<path d="M631.012 375.891H629.158V377.744H631.012V375.891Z" fill="white"/>
<path d="M631.012 385.158H629.158V387.012H631.012V385.158Z" fill="white"/>
<path d="M631.012 388.865H629.158V390.719H631.012V388.865Z" fill="white"/>
<path d="M632.865 338.82H631.012V340.674H632.865V338.82Z" fill="white"/>
<path d="M632.865 340.674H631.012V342.527H632.865V340.674Z" fill="white"/>
<path d="M632.865 342.527H631.012V344.381H632.865V342.527Z" fill="white"/>
<path d="M632.865 344.381H631.012V346.234H632.865V344.381Z" fill="white"/>
<path d="M632.865 351.795H631.012V353.648H632.865V351.795Z" fill="white"/>
<path d="M632.865 355.502H631.012V357.355H632.865V355.502Z" fill="white"/>
<path d="M632.865 359.209H631.012V361.062H632.865V359.209Z" fill="white"/>
<path d="M632.865 362.916H631.012V364.77H632.865V362.916Z" fill="white"/>
<path d="M632.865 366.623H631.012V368.477H632.865V366.623Z" fill="white"/>
<path d="M632.865 374.037H631.012V375.891H632.865V374.037Z" fill="white"/>
<path d="M632.865 377.744H631.012V379.598H632.865V377.744Z" fill="white"/>
<path d="M632.865 381.451H631.012V383.305H632.865V381.451Z" fill="white"/>
<path d="M632.865 383.305H631.012V385.158H632.865V383.305Z" fill="white"/>
<path d="M632.865 388.865H631.012V390.719H632.865V388.865Z" fill="white"/>
<path d="M634.719 338.82H632.865V340.674H634.719V338.82Z" fill="white"/>
<path d="M634.719 340.674H632.865V342.527H634.719V340.674Z" fill="white"/>
<path d="M634.719 342.527H632.865V344.381H634.719V342.527Z" fill="white"/>
<path d="M634.719 348.088H632.865V349.941H634.719V348.088Z" fill="white"/>
<path d="M634.719 349.941H632.865V351.795H634.719V349.941Z" fill="white"/>
<path d="M634.719 355.502H632.865V357.355H634.719V355.502Z" fill="white"/>
<path d="M634.719 364.77H632.865V366.623H634.719V364.77Z" fill="white"/>
<path d="M634.719 366.623H632.865V368.477H634.719V366.623Z" fill="white"/>
<path d="M634.719 374.037H632.865V375.891H634.719V374.037Z" fill="white"/>
<path d="M634.719 388.865H632.865V390.719H634.719V388.865Z" fill="white"/>
</mask>
<g mask="url(#mask0_385_2366)">
<path d="M637 320H564V393H637V320Z" fill="white" fill-opacity="0.36"/>
</g>
<path d="M579.113 322.139H566.139V335.113H579.113V322.139Z" fill="white" fill-opacity="0.36"/>
<path d="M634.719 322.139H621.744V335.113H634.719V322.139Z" fill="white" fill-opacity="0.36"/>
<path d="M579.113 377.744H566.139V390.719H579.113V377.744Z" fill="white" fill-opacity="0.36"/>
</g>
<defs>
<clipPath id="clip0_385_2366">
<rect width="73" height="73" fill="white" transform="translate(564 320)"/>
</clipPath>
</defs>
</svg>
