<svg width="377" height="25" viewBox="0 0 377 25" fill="none" xmlns="http://www.w3.org/2000/svg">
<rect y="2" width="99" height="21" fill="white"/>
<rect x="8" y="8" width="38" height="9" fill="black"/>
<rect x="85" y="8" width="2" height="9" fill="black"/>
<rect x="78" y="8" width="3" height="9" fill="black"/>
<rect x="90" y="8" width="1" height="9" fill="black"/>
<rect x="50" y="8" width="24" height="9" fill="black"/>
<rect x="107.286" y="2" width="53" height="21" fill="white"/>
<rect x="168.571" y="2" width="7" height="21" fill="white"/>
<rect x="183.857" y="2" width="4" height="21" fill="white"/>
<rect x="196.143" y="2" width="2" height="21" fill="white"/>
<rect x="206.429" y="2" width="2" height="21" fill="white"/>
<path d="M217.95 9.81641C217.907 9.81641 217.86 9.81478 217.808 9.81152C217.756 9.80827 217.707 9.80339 217.662 9.79688V9.25977C217.704 9.26628 217.748 9.27116 217.793 9.27441C217.842 9.27767 217.888 9.2793 217.93 9.2793C218.174 9.2793 218.375 9.21582 218.531 9.08887C218.69 8.96517 218.824 8.74544 218.931 8.42969L219.063 8.03418L217.09 2.74121H217.779L219.517 7.72656L219.249 7.30664H219.561L219.292 7.72656L221.026 2.74121H221.705L219.576 8.45898C219.449 8.80404 219.314 9.07422 219.17 9.26953C219.027 9.4681 218.858 9.60807 218.663 9.68945C218.471 9.77409 218.233 9.81641 217.95 9.81641ZM223.099 8H222.455V2.74121H223.226L225.292 7.11133H225.35L227.406 2.74121H228.148V8H227.503V3.9082H227.435L225.555 7.89746H225.057L223.167 3.9082H223.099V8ZM232.941 8V5.53906H230.031V8H229.386V2.74121H230.031V5.00195H232.941V2.74121H233.585V8H232.941ZM234.824 8V2.74121H235.468V4.5332H236.64C237.22 4.5332 237.682 4.68945 238.027 5.00195C238.372 5.3112 238.544 5.73112 238.544 6.26172V6.27148C238.544 6.79883 238.372 7.21875 238.027 7.53125C237.682 7.84375 237.22 8 236.64 8H234.824ZM236.64 5.07031H235.468V7.45801H236.64C237.028 7.45801 237.333 7.35059 237.558 7.13574C237.786 6.91764 237.9 6.62956 237.9 6.27148V6.26172C237.9 5.90039 237.786 5.6123 237.558 5.39746C237.33 5.17936 237.024 5.07031 236.64 5.07031ZM239.521 8V2.74121H240.166V8H239.521ZM241.414 8V2.74121H242.058V6.97461H242.41L241.956 7.21387L245.032 2.74121H245.676V8H245.032V3.7666H244.68L245.134 3.52246L242.058 8H241.414ZM243.547 1.94531C243.235 1.94531 242.963 1.88346 242.732 1.75977C242.504 1.63281 242.327 1.46029 242.2 1.24219C242.073 1.02409 242.009 0.775065 242.009 0.495117H242.59C242.59 0.77181 242.675 1.00781 242.844 1.20312C243.017 1.39844 243.251 1.49609 243.547 1.49609C243.847 1.49609 244.08 1.39844 244.246 1.20312C244.415 1.00781 244.5 0.77181 244.5 0.495117H245.085C245.085 0.775065 245.022 1.02409 244.895 1.24219C244.768 1.46029 244.589 1.63281 244.358 1.75977C244.127 1.88346 243.857 1.94531 243.547 1.94531ZM249.115 8V2.74121H253.265V8H252.621V3.27832H249.759V8H249.115ZM256.632 8.08789C256.144 8.08789 255.721 7.97884 255.363 7.76074C255.005 7.53939 254.728 7.22526 254.533 6.81836C254.341 6.41146 254.245 5.92969 254.245 5.37305V5.36328C254.245 4.80664 254.341 4.32487 254.533 3.91797C254.728 3.51107 255.005 3.19857 255.363 2.98047C255.721 2.76237 256.144 2.65332 256.632 2.65332C257.124 2.65332 257.547 2.76237 257.902 2.98047C258.26 3.19857 258.535 3.51107 258.727 3.91797C258.922 4.32487 259.02 4.80664 259.02 5.36328V5.37305C259.02 5.92969 258.922 6.41146 258.727 6.81836C258.535 7.22526 258.26 7.53939 257.902 7.76074C257.547 7.97884 257.124 8.08789 256.632 8.08789ZM256.632 7.5166C256.994 7.5166 257.303 7.43034 257.56 7.25781C257.82 7.08529 258.019 6.83952 258.156 6.52051C258.296 6.19824 258.366 5.81576 258.366 5.37305V5.36328C258.366 4.92057 258.296 4.53971 258.156 4.2207C258.019 3.89844 257.82 3.65267 257.56 3.4834C257.303 3.31087 256.994 3.22461 256.632 3.22461C256.271 3.22461 255.96 3.31087 255.7 3.4834C255.443 3.65267 255.244 3.89681 255.104 4.21582C254.967 4.53483 254.899 4.91732 254.899 5.36328V5.37305C254.899 5.81576 254.967 6.19824 255.104 6.52051C255.244 6.83952 255.443 7.08529 255.7 7.25781C255.96 7.43034 256.271 7.5166 256.632 7.5166ZM259.868 9.3916H259.267V7.45801H259.697C259.892 7.33105 260.04 7.10807 260.141 6.78906C260.242 6.4668 260.306 6.10872 260.332 5.71484L260.542 2.74121H264.033V7.45801H264.882V9.3916H264.282V8H259.868V9.3916ZM263.388 7.45801V3.27832H261.113L260.932 5.73926C260.906 6.08757 260.856 6.4082 260.781 6.70117C260.706 6.99414 260.598 7.22689 260.458 7.39941V7.45801H263.388ZM265.095 8L266.956 5.35352L265.081 2.74121H265.847L267.283 4.84082H267.341L268.767 2.74121H269.5L267.649 5.3291L269.514 8H268.757L267.322 5.84668H267.263L265.828 8H265.095ZM272.232 8.08789C271.744 8.08789 271.32 7.97884 270.962 7.76074C270.604 7.53939 270.328 7.22526 270.132 6.81836C269.94 6.41146 269.844 5.92969 269.844 5.37305V5.36328C269.844 4.80664 269.94 4.32487 270.132 3.91797C270.328 3.51107 270.604 3.19857 270.962 2.98047C271.32 2.76237 271.744 2.65332 272.232 2.65332C272.723 2.65332 273.147 2.76237 273.501 2.98047C273.86 3.19857 274.135 3.51107 274.327 3.91797C274.522 4.32487 274.62 4.80664 274.62 5.36328V5.37305C274.62 5.92969 274.522 6.41146 274.327 6.81836C274.135 7.22526 273.86 7.53939 273.501 7.76074C273.147 7.97884 272.723 8.08789 272.232 8.08789ZM272.232 7.5166C272.593 7.5166 272.903 7.43034 273.16 7.25781C273.42 7.08529 273.619 6.83952 273.755 6.52051C273.895 6.19824 273.965 5.81576 273.965 5.37305V5.36328C273.965 4.92057 273.895 4.53971 273.755 4.2207C273.619 3.89844 273.42 3.65267 273.16 3.4834C272.903 3.31087 272.593 3.22461 272.232 3.22461C271.871 3.22461 271.56 3.31087 271.299 3.4834C271.042 3.65267 270.844 3.89681 270.704 4.21582C270.567 4.53483 270.499 4.91732 270.499 5.36328V5.37305C270.499 5.81576 270.567 6.19824 270.704 6.52051C270.844 6.83952 271.042 7.08529 271.299 7.25781C271.56 7.43034 271.871 7.5166 272.232 7.5166ZM275.467 9.3916H274.867V7.45801H275.296C275.492 7.33105 275.64 7.10807 275.741 6.78906C275.842 6.4668 275.905 6.10872 275.931 5.71484L276.141 2.74121H279.632V7.45801H280.482V9.3916H279.881V8H275.467V9.3916ZM278.988 7.45801V3.27832H276.712L276.532 5.73926C276.506 6.08757 276.455 6.4082 276.38 6.70117C276.306 6.99414 276.198 7.22689 276.058 7.39941V7.45801H278.988ZM218.487 13.5586H218.228V16H217.583V10.7412H218.228V13.0459H218.487L220.772 10.7412H221.558L218.965 13.3242V13.2021L221.67 16H220.831L218.487 13.5586ZM224.987 17.8164C224.944 17.8164 224.897 17.8148 224.845 17.8115C224.793 17.8083 224.744 17.8034 224.699 17.7969V17.2598C224.741 17.2663 224.785 17.2712 224.831 17.2744C224.879 17.2777 224.925 17.2793 224.967 17.2793C225.211 17.2793 225.412 17.2158 225.568 17.0889C225.727 16.9652 225.861 16.7454 225.968 16.4297L226.1 16.0342L224.127 10.7412H224.816L226.554 15.7266L226.286 15.3066H226.598L226.33 15.7266L228.063 10.7412H228.742L226.613 16.459C226.486 16.804 226.351 17.0742 226.208 17.2695C226.064 17.4681 225.895 17.6081 225.7 17.6895C225.508 17.7741 225.27 17.8164 224.987 17.8164ZM229.492 16V10.7412H233.642V16H232.998V11.2783H230.136V16H229.492ZM234.885 17.7432V10.7412H235.53V11.791H235.588C235.693 11.5566 235.831 11.3548 236.003 11.1855C236.176 11.013 236.376 10.8812 236.604 10.79C236.835 10.6989 237.086 10.6533 237.356 10.6533C237.802 10.6533 238.191 10.7673 238.523 10.9951C238.858 11.2197 239.119 11.5355 239.304 11.9424C239.49 12.3493 239.583 12.8229 239.583 13.3633V13.373C239.583 13.9167 239.49 14.3919 239.304 14.7988C239.119 15.2057 238.858 15.5231 238.523 15.751C238.191 15.9756 237.802 16.0879 237.356 16.0879C237.092 16.0879 236.843 16.0423 236.609 15.9512C236.378 15.8568 236.174 15.7266 235.999 15.5605C235.823 15.3945 235.686 15.1976 235.588 14.9697H235.53V17.7432H234.885ZM237.224 15.5166C237.572 15.5166 237.874 15.4287 238.127 15.2529C238.381 15.0771 238.577 14.8281 238.713 14.5059C238.853 14.1836 238.923 13.806 238.923 13.373V13.3633C238.923 12.9271 238.853 12.5495 238.713 12.2305C238.577 11.9115 238.381 11.6641 238.127 11.4883C237.874 11.3125 237.572 11.2246 237.224 11.2246C236.876 11.2246 236.573 11.3141 236.316 11.4932C236.062 11.6689 235.865 11.9163 235.725 12.2354C235.585 12.5544 235.515 12.9303 235.515 13.3633V13.373C235.515 13.806 235.585 14.1836 235.725 14.5059C235.865 14.8249 236.064 15.0739 236.321 15.2529C236.578 15.4287 236.879 15.5166 237.224 15.5166ZM242.007 16.0879C241.669 16.0879 241.368 16.026 241.104 15.9023C240.84 15.7754 240.632 15.5964 240.479 15.3652C240.326 15.1341 240.25 14.8623 240.25 14.5498V14.54C240.25 14.2373 240.323 13.9769 240.469 13.7588C240.616 13.5374 240.831 13.3649 241.114 13.2412C241.397 13.1143 241.74 13.0378 242.144 13.0117L244.107 12.8848V13.4072L242.232 13.5342C241.783 13.5635 241.449 13.6628 241.231 13.832C241.016 13.998 240.909 14.2308 240.909 14.5303V14.54C240.909 14.8428 241.023 15.0837 241.25 15.2627C241.478 15.4385 241.771 15.5264 242.129 15.5264C242.445 15.5264 242.727 15.4613 242.974 15.3311C243.225 15.1976 243.423 15.0186 243.57 14.7939C243.716 14.5693 243.79 14.3187 243.79 14.042V12.4111C243.79 12.0238 243.676 11.7292 243.448 11.5273C243.22 11.3255 242.893 11.2246 242.466 11.2246C242.108 11.2246 241.81 11.2946 241.573 11.4346C241.335 11.5745 241.181 11.7764 241.109 12.04L241.104 12.0498H240.459L240.464 12.0303C240.51 11.7471 240.624 11.5029 240.806 11.2979C240.988 11.0928 241.223 10.9349 241.509 10.8242C241.796 10.7103 242.121 10.6533 242.486 10.6533C242.899 10.6533 243.251 10.7233 243.541 10.8633C243.83 11 244.05 11.1986 244.2 11.459C244.353 11.7194 244.429 12.0352 244.429 12.4062V16H243.79V15.0918H243.726C243.622 15.3001 243.485 15.4792 243.316 15.6289C243.147 15.7754 242.951 15.8893 242.73 15.9707C242.509 16.0488 242.268 16.0879 242.007 16.0879ZM245.648 16V10.7412H247.757C248.255 10.7412 248.643 10.8617 248.919 11.1025C249.199 11.3434 249.339 11.6673 249.339 12.0742V12.084C249.339 12.3672 249.251 12.6178 249.076 12.8359C248.9 13.054 248.679 13.1908 248.412 13.2461V13.3047C248.639 13.3307 248.841 13.3958 249.017 13.5C249.193 13.6042 249.331 13.7409 249.432 13.9102C249.536 14.0762 249.588 14.2731 249.588 14.501V14.5107C249.588 14.82 249.517 15.0853 249.374 15.3066C249.234 15.528 249.028 15.6989 248.758 15.8193C248.488 15.9398 248.161 16 247.777 16H245.648ZM246.292 15.458H247.752C248.143 15.458 248.438 15.3766 248.636 15.2139C248.838 15.0479 248.939 14.8102 248.939 14.501V14.4912C248.939 14.1787 248.825 13.9492 248.597 13.8027C248.369 13.653 248.045 13.5781 247.625 13.5781H246.292V15.458ZM246.292 13.041H247.577C247.944 13.041 248.223 12.9629 248.412 12.8066C248.604 12.6471 248.7 12.4258 248.7 12.1426V12.1328C248.7 11.8789 248.613 11.6738 248.441 11.5176C248.268 11.3581 248.013 11.2783 247.674 11.2783H246.292V13.041ZM251.564 13.9102C251.531 14.3626 251.465 14.7484 251.364 15.0674C251.266 15.3864 251.125 15.6305 250.939 15.7998C250.757 15.9658 250.524 16.0488 250.241 16.0488C250.163 16.0488 250.093 16.0439 250.031 16.0342C249.972 16.0244 249.927 16.013 249.894 16V15.4141C249.92 15.4238 249.959 15.4336 250.011 15.4434C250.067 15.4499 250.124 15.4531 250.182 15.4531C250.358 15.4531 250.5 15.3815 250.607 15.2383C250.714 15.0951 250.796 14.903 250.851 14.6621C250.906 14.4212 250.944 14.1527 250.963 13.8564L251.183 10.7412H254.547V16H253.903V11.2783H251.764L251.564 13.9102ZM257.915 16.0879C257.423 16.0879 256.998 15.9772 256.64 15.7559C256.285 15.5345 256.012 15.222 255.82 14.8184C255.628 14.4147 255.532 13.9378 255.532 13.3877V13.3779C255.532 12.8311 255.628 12.3542 255.82 11.9473C256.012 11.5371 256.282 11.2197 256.63 10.9951C256.982 10.7673 257.392 10.6533 257.861 10.6533C258.333 10.6533 258.738 10.764 259.077 10.9854C259.418 11.2035 259.681 11.5094 259.863 11.9033C260.048 12.2939 260.141 12.748 260.141 13.2656V13.5391H255.864V13.0117H259.814L259.497 13.4854V13.2412C259.497 12.8018 259.427 12.4339 259.287 12.1377C259.15 11.8382 258.958 11.612 258.71 11.459C258.466 11.306 258.183 11.2295 257.861 11.2295C257.535 11.2295 257.247 11.3076 256.997 11.4639C256.746 11.6201 256.547 11.8496 256.401 12.1523C256.258 12.4518 256.186 12.8148 256.186 13.2412V13.4854C256.186 13.9053 256.258 14.2666 256.401 14.5693C256.544 14.8721 256.746 15.1048 257.006 15.2676C257.267 15.4303 257.574 15.5117 257.929 15.5117C258.183 15.5117 258.409 15.4759 258.608 15.4043C258.81 15.3327 258.977 15.2383 259.111 15.1211C259.244 15.0007 259.34 14.8737 259.399 14.7402L259.414 14.7012H260.063L260.048 14.7402C259.996 14.9193 259.91 15.0902 259.79 15.2529C259.672 15.4124 259.523 15.5557 259.34 15.6826C259.158 15.8063 258.946 15.9056 258.706 15.9805C258.468 16.0521 258.204 16.0879 257.915 16.0879ZM264.675 16V13.5391H261.765V16H261.121V10.7412H261.765V13.002H264.675V10.7412H265.32V16H264.675ZM266.558 16V10.7412H267.203V14.9746H267.554L267.1 15.2139L270.176 10.7412H270.821V16H270.176V11.7666H269.825L270.279 11.5225L267.203 16H266.558ZM276.146 16.0928C275.677 16.0928 275.269 15.987 274.92 15.7754C274.575 15.5605 274.307 15.2578 274.115 14.8672C273.923 14.4733 273.82 14.0046 273.807 13.4609L273.822 13.0752C273.858 12.5674 273.973 12.1328 274.168 11.7715C274.367 11.4102 274.634 11.1335 274.969 10.9414C275.308 10.7461 275.7 10.6484 276.146 10.6484C276.628 10.6484 277.043 10.7575 277.391 10.9756C277.743 11.1937 278.013 11.5062 278.202 11.9131C278.394 12.32 278.49 12.805 278.49 13.3682V13.3779C278.49 13.9346 278.394 14.4163 278.202 14.8232C278.013 15.2301 277.743 15.5443 277.391 15.7656C277.043 15.9837 276.628 16.0928 276.146 16.0928ZM276.146 15.5166C276.498 15.5166 276.799 15.432 277.049 15.2627C277.3 15.0902 277.492 14.8444 277.625 14.5254C277.762 14.2031 277.831 13.8206 277.831 13.3779V13.3682C277.831 12.9189 277.762 12.5348 277.625 12.2158C277.492 11.8936 277.3 11.6478 277.049 11.4785C276.799 11.306 276.498 11.2197 276.146 11.2197C275.798 11.2197 275.498 11.306 275.248 11.4785C274.997 11.6478 274.803 11.8936 274.667 12.2158C274.533 12.5348 274.466 12.9189 274.466 13.3682V13.3779C274.466 13.8206 274.533 14.2031 274.667 14.5254C274.803 14.8444 274.997 15.0902 275.248 15.2627C275.498 15.432 275.798 15.5166 276.146 15.5166ZM272.064 16V10.7412H272.708V13.002H274.129V13.5391H272.708V16H272.064ZM217.583 24V18.7412H219.693C220.191 18.7412 220.578 18.8617 220.855 19.1025C221.135 19.3434 221.275 19.6673 221.275 20.0742V20.084C221.275 20.3672 221.187 20.6178 221.011 20.8359C220.835 21.054 220.614 21.1908 220.347 21.2461V21.3047C220.575 21.3307 220.777 21.3958 220.953 21.5C221.128 21.6042 221.267 21.7409 221.368 21.9102C221.472 22.0762 221.524 22.2731 221.524 22.501V22.5107C221.524 22.82 221.452 23.0853 221.309 23.3066C221.169 23.528 220.964 23.6989 220.694 23.8193C220.424 23.9398 220.097 24 219.712 24H217.583ZM218.228 23.458H219.688C220.079 23.458 220.373 23.3766 220.572 23.2139C220.774 23.0479 220.875 22.8102 220.875 22.501V22.4912C220.875 22.1787 220.761 21.9492 220.533 21.8027C220.305 21.653 219.981 21.5781 219.561 21.5781H218.228V23.458ZM218.228 21.041H219.512C219.88 21.041 220.158 20.9629 220.347 20.8066C220.539 20.6471 220.635 20.4258 220.635 20.1426V20.1328C220.635 19.8789 220.549 19.6738 220.376 19.5176C220.204 19.3581 219.948 19.2783 219.61 19.2783H218.228V21.041ZM223.958 24.0879C223.62 24.0879 223.319 24.026 223.055 23.9023C222.792 23.7754 222.583 23.5964 222.43 23.3652C222.277 23.1341 222.201 22.8623 222.201 22.5498V22.54C222.201 22.2373 222.274 21.9769 222.42 21.7588C222.567 21.5374 222.782 21.3649 223.065 21.2412C223.348 21.1143 223.692 21.0378 224.095 21.0117L226.058 20.8848V21.4072L224.183 21.5342C223.734 21.5635 223.4 21.6628 223.182 21.832C222.967 21.998 222.86 22.2308 222.86 22.5303V22.54C222.86 22.8428 222.974 23.0837 223.202 23.2627C223.43 23.4385 223.722 23.5264 224.081 23.5264C224.396 23.5264 224.678 23.4613 224.925 23.3311C225.176 23.1976 225.375 23.0186 225.521 22.7939C225.667 22.5693 225.741 22.3187 225.741 22.042V20.4111C225.741 20.0238 225.627 19.7292 225.399 19.5273C225.171 19.3255 224.844 19.2246 224.417 19.2246C224.059 19.2246 223.762 19.2946 223.524 19.4346C223.286 19.5745 223.132 19.7764 223.06 20.04L223.055 20.0498H222.411L222.416 20.0303C222.461 19.7471 222.575 19.5029 222.757 19.2979C222.94 19.0928 223.174 18.9349 223.46 18.8242C223.747 18.7103 224.072 18.6533 224.437 18.6533C224.85 18.6533 225.202 18.7233 225.492 18.8633C225.781 19 226.001 19.1986 226.151 19.459C226.304 19.7194 226.38 20.0352 226.38 20.4062V24H225.741V23.0918H225.677C225.573 23.3001 225.436 23.4792 225.267 23.6289C225.098 23.7754 224.903 23.8893 224.681 23.9707C224.46 24.0488 224.219 24.0879 223.958 24.0879ZM227.599 24V18.7412H228.244V23.458H230.504V18.7412H231.149V23.458H233.41V18.7412H234.054V24H227.599ZM235.292 24V18.7412H235.937V22.9746H236.289L235.834 23.2139L238.911 18.7412H239.555V24H238.911V19.7666H238.559L239.013 19.5225L235.937 24H235.292ZM241.443 24H240.798V18.7412H241.57L243.635 23.1113H243.694L245.75 18.7412H246.492V24H245.847V19.9082H245.779L243.899 23.8975H243.401L241.511 19.9082H241.443V24ZM249.872 25.3916H249.271V23.458H249.701C249.896 23.3311 250.044 23.1081 250.145 22.7891C250.246 22.4668 250.309 22.1087 250.335 21.7148L250.545 18.7412H254.037V23.458H254.886V25.3916H254.286V24H249.872V25.3916ZM253.392 23.458V19.2783H251.117L250.936 21.7393C250.91 22.0876 250.86 22.4082 250.785 22.7012C250.71 22.9941 250.602 23.2269 250.462 23.3994V23.458H253.392ZM257.697 24.0879C257.208 24.0879 256.785 23.9788 256.427 23.7607C256.069 23.5394 255.792 23.2253 255.597 22.8184C255.405 22.4115 255.309 21.9297 255.309 21.373V21.3633C255.309 20.8066 255.405 20.3249 255.597 19.918C255.792 19.5111 256.069 19.1986 256.427 18.9805C256.785 18.7624 257.208 18.6533 257.697 18.6533C258.188 18.6533 258.611 18.7624 258.966 18.9805C259.324 19.1986 259.599 19.5111 259.792 19.918C259.987 20.3249 260.084 20.8066 260.084 21.3633V21.373C260.084 21.9297 259.987 22.4115 259.792 22.8184C259.599 23.2253 259.324 23.5394 258.966 23.7607C258.611 23.9788 258.188 24.0879 257.697 24.0879ZM257.697 23.5166C258.058 23.5166 258.367 23.4303 258.625 23.2578C258.885 23.0853 259.083 22.8395 259.22 22.5205C259.36 22.1982 259.43 21.8158 259.43 21.373V21.3633C259.43 20.9206 259.36 20.5397 259.22 20.2207C259.083 19.8984 258.885 19.6527 258.625 19.4834C258.367 19.3109 258.058 19.2246 257.697 19.2246C257.335 19.2246 257.025 19.3109 256.764 19.4834C256.507 19.6527 256.308 19.8968 256.168 20.2158C256.032 20.5348 255.963 20.9173 255.963 21.3633V21.373C255.963 21.8158 256.032 22.1982 256.168 22.5205C256.308 22.8395 256.507 23.0853 256.764 23.2578C257.025 23.4303 257.335 23.5166 257.697 23.5166ZM261.708 24H261.064V18.7412H261.835L263.901 23.1113H263.959L266.015 18.7412H266.757V24H266.113V19.9082H266.044L264.165 23.8975H263.667L261.777 19.9082H261.708V24ZM270.125 24.0879C269.636 24.0879 269.213 23.9788 268.855 23.7607C268.497 23.5394 268.22 23.2253 268.025 22.8184C267.833 22.4115 267.737 21.9297 267.737 21.373V21.3633C267.737 20.8066 267.833 20.3249 268.025 19.918C268.22 19.5111 268.497 19.1986 268.855 18.9805C269.213 18.7624 269.636 18.6533 270.125 18.6533C270.616 18.6533 271.039 18.7624 271.394 18.9805C271.752 19.1986 272.027 19.5111 272.219 19.918C272.415 20.3249 272.512 20.8066 272.512 21.3633V21.373C272.512 21.9297 272.415 22.4115 272.219 22.8184C272.027 23.2253 271.752 23.5394 271.394 23.7607C271.039 23.9788 270.616 24.0879 270.125 24.0879ZM270.125 23.5166C270.486 23.5166 270.795 23.4303 271.052 23.2578C271.313 23.0853 271.511 22.8395 271.648 22.5205C271.788 22.1982 271.858 21.8158 271.858 21.373V21.3633C271.858 20.9206 271.788 20.5397 271.648 20.2207C271.511 19.8984 271.313 19.6527 271.052 19.4834C270.795 19.3109 270.486 19.2246 270.125 19.2246C269.763 19.2246 269.452 19.3109 269.192 19.4834C268.935 19.6527 268.736 19.8968 268.596 20.2158C268.459 20.5348 268.391 20.9173 268.391 21.3633V21.373C268.391 21.8158 268.459 22.1982 268.596 22.5205C268.736 22.8395 268.935 23.0853 269.192 23.2578C269.452 23.4303 269.763 23.5166 270.125 23.5166ZM274.136 24H273.492V18.7412H274.263L276.329 23.1113H276.387L278.443 18.7412H279.185V24H278.541V19.9082H278.472L276.592 23.8975H276.094L274.205 19.9082H274.136V24Z" fill="white"/>
<rect x="291" y="2" width="86" height="21" fill="white"/>
</svg>
