<svg width="1349" height="46" viewBox="0 0 1349 46" fill="none" xmlns="http://www.w3.org/2000/svg">
<rect y="4" width="177" height="38" fill="white"/>
<rect x="11" y="14.1367" width="68.2496" height="16.8408" fill="black"/>
<rect x="149.271" y="14.1367" width="3.54543" height="16.8408" fill="black"/>
<rect x="136.861" y="14.1367" width="5.31815" height="16.8408" fill="black"/>
<rect x="165.67" y="14.1367" width="1.32954" height="16.8408" fill="black"/>
<rect x="158.578" y="14.1367" width="1.32954" height="16.8408" fill="black"/>
<rect x="87.2266" y="14.1367" width="42.5452" height="16.8408" fill="black"/>
<rect x="194.154" y="4" width="96" height="38" fill="white"/>
<rect x="307.309" y="4" width="51" height="38" fill="white"/>
<rect x="375.461" y="4" width="23" height="38" fill="white"/>
<rect x="415.615" y="4" width="36" height="38" fill="white"/>
<path d="M470.746 17.9062C470.678 17.9062 470.603 17.9036 470.52 17.8984C470.436 17.8932 470.358 17.8854 470.285 17.875V17.0156C470.353 17.026 470.423 17.0339 470.496 17.0391C470.574 17.0443 470.647 17.0469 470.715 17.0469C471.105 17.0469 471.426 16.9453 471.676 16.7422C471.931 16.5443 472.145 16.1927 472.316 15.6875L472.527 15.0547L469.371 6.58594H470.473L473.254 14.5625L472.824 13.8906H473.324L472.895 14.5625L475.668 6.58594H476.754L473.348 15.7344C473.145 16.2865 472.928 16.7188 472.699 17.0312C472.47 17.349 472.199 17.5729 471.887 17.7031C471.579 17.8385 471.199 17.9062 470.746 17.9062ZM478.985 15H477.954V6.58594H479.188L482.493 13.5781H482.587L485.876 6.58594H487.063V15H486.032V8.45312H485.923L482.915 14.8359H482.118L479.095 8.45312H478.985V15ZM494.732 15V11.0625H490.076V15H489.045V6.58594H490.076V10.2031H494.732V6.58594H495.763V15H494.732ZM497.745 15V6.58594H498.776V9.45312H500.651C501.578 9.45312 502.317 9.70312 502.87 10.2031C503.422 10.6979 503.698 11.3698 503.698 12.2188V12.2344C503.698 13.0781 503.422 13.75 502.87 14.25C502.317 14.75 501.578 15 500.651 15H497.745ZM500.651 10.3125H498.776V14.1328H500.651C501.271 14.1328 501.76 13.9609 502.12 13.6172C502.484 13.2682 502.666 12.8073 502.666 12.2344V12.2188C502.666 11.6406 502.484 11.1797 502.12 10.8359C501.755 10.487 501.265 10.3125 500.651 10.3125ZM505.26 15V6.58594H506.291V15H505.26ZM508.288 15V6.58594H509.32V13.3594H509.882L509.155 13.7422L514.077 6.58594H515.109V15H514.077V8.22656H513.515L514.241 7.83594L509.32 15H508.288ZM511.702 5.3125C511.202 5.3125 510.767 5.21354 510.398 5.01562C510.033 4.8125 509.749 4.53646 509.546 4.1875C509.343 3.83854 509.241 3.4401 509.241 2.99219H510.171C510.171 3.4349 510.307 3.8125 510.577 4.125C510.853 4.4375 511.228 4.59375 511.702 4.59375C512.182 4.59375 512.554 4.4375 512.82 4.125C513.09 3.8125 513.226 3.4349 513.226 2.99219H514.163C514.163 3.4401 514.062 3.83854 513.859 4.1875C513.655 4.53646 513.369 4.8125 512.999 5.01562C512.629 5.21354 512.197 5.3125 511.702 5.3125ZM520.524 17.2266H519.563V14.1328H520.251C520.563 13.9297 520.8 13.5729 520.962 13.0625C521.123 12.5469 521.225 11.974 521.266 11.3438L521.602 6.58594H527.188V14.1328H528.548V17.2266H527.587V15H520.524V17.2266ZM526.157 14.1328V7.44531H522.516L522.227 11.3828C522.186 11.9401 522.105 12.4531 521.985 12.9219C521.865 13.3906 521.693 13.763 521.47 14.0391V14.1328H526.157ZM533.045 15.1406C532.263 15.1406 531.586 14.9661 531.013 14.6172C530.44 14.263 529.998 13.7604 529.685 13.1094C529.378 12.4583 529.224 11.6875 529.224 10.7969V10.7812C529.224 9.89062 529.378 9.11979 529.685 8.46875C529.998 7.81771 530.44 7.31771 531.013 6.96875C531.586 6.61979 532.263 6.44531 533.045 6.44531C533.831 6.44531 534.508 6.61979 535.076 6.96875C535.649 7.31771 536.089 7.81771 536.396 8.46875C536.709 9.11979 536.865 9.89062 536.865 10.7812V10.7969C536.865 11.6875 536.709 12.4583 536.396 13.1094C536.089 13.7604 535.649 14.263 535.076 14.6172C534.508 14.9661 533.831 15.1406 533.045 15.1406ZM533.045 14.2266C533.623 14.2266 534.117 14.0885 534.529 13.8125C534.946 13.5365 535.263 13.1432 535.482 12.6328C535.706 12.1172 535.818 11.5052 535.818 10.7969V10.7812C535.818 10.0729 535.706 9.46354 535.482 8.95312C535.263 8.4375 534.946 8.04427 534.529 7.77344C534.117 7.4974 533.623 7.35938 533.045 7.35938C532.466 7.35938 531.969 7.4974 531.552 7.77344C531.141 8.04427 530.823 8.4349 530.599 8.94531C530.38 9.45573 530.271 10.0677 530.271 10.7812V10.7969C530.271 11.5052 530.38 12.1172 530.599 12.6328C530.823 13.1432 531.141 13.5365 531.552 13.8125C531.969 14.0885 532.466 14.2266 533.045 14.2266ZM539.463 15H538.432V6.58594H539.666L542.971 13.5781H543.065L546.354 6.58594H547.541V15H546.51V8.45312H546.401L543.393 14.8359H542.596L539.573 8.45312H539.463V15ZM553.035 15V6.58594H556.41C557.207 6.58594 557.827 6.77865 558.27 7.16406C558.717 7.54948 558.941 8.06771 558.941 8.71875V8.73438C558.941 9.1875 558.801 9.58854 558.52 9.9375C558.238 10.2865 557.884 10.5052 557.457 10.5938V10.6875C557.822 10.7292 558.145 10.8333 558.426 11C558.707 11.1667 558.928 11.3854 559.09 11.6562C559.257 11.9219 559.34 12.237 559.34 12.6016V12.6172C559.34 13.112 559.225 13.5365 558.996 13.8906C558.772 14.2448 558.444 14.5182 558.012 14.7109C557.579 14.9036 557.056 15 556.441 15H553.035ZM554.066 14.1328H556.402C557.027 14.1328 557.499 14.0026 557.816 13.7422C558.139 13.4766 558.301 13.0964 558.301 12.6016V12.5859C558.301 12.0859 558.118 11.7188 557.754 11.4844C557.389 11.2448 556.871 11.125 556.199 11.125H554.066V14.1328ZM554.066 10.2656H556.121C556.71 10.2656 557.155 10.1406 557.457 9.89062C557.764 9.63542 557.918 9.28125 557.918 8.82812V8.8125C557.918 8.40625 557.78 8.07812 557.504 7.82812C557.228 7.57292 556.819 7.44531 556.277 7.44531H554.066V10.2656ZM565.896 11.0938H565.482V15H564.451V6.58594H565.482V10.2734H565.896L569.552 6.58594H570.81L566.662 10.7188V10.5234L570.99 15H569.646L565.896 11.0938ZM574.291 15.1406C573.75 15.1406 573.268 15.0417 572.846 14.8438C572.424 14.6406 572.091 14.3542 571.846 13.9844C571.601 13.6146 571.479 13.1797 571.479 12.6797V12.6641C571.479 12.1797 571.596 11.763 571.83 11.4141C572.065 11.0599 572.409 10.7839 572.862 10.5859C573.315 10.3828 573.864 10.2604 574.51 10.2188L577.651 10.0156V10.8516L574.651 11.0547C573.932 11.1016 573.398 11.2604 573.049 11.5312C572.705 11.7969 572.534 12.1693 572.534 12.6484V12.6641C572.534 13.1484 572.716 13.5339 573.08 13.8203C573.445 14.1016 573.914 14.2422 574.487 14.2422C574.992 14.2422 575.442 14.138 575.838 13.9297C576.239 13.7161 576.557 13.4297 576.791 13.0703C577.026 12.7109 577.143 12.3099 577.143 11.8672V9.25781C577.143 8.63802 576.961 8.16667 576.596 7.84375C576.232 7.52083 575.708 7.35938 575.026 7.35938C574.453 7.35938 573.976 7.47135 573.596 7.69531C573.216 7.91927 572.968 8.24219 572.854 8.66406L572.846 8.67969H571.815L571.823 8.64844C571.896 8.19531 572.078 7.80469 572.37 7.47656C572.661 7.14844 573.036 6.89583 573.495 6.71875C573.953 6.53646 574.474 6.44531 575.057 6.44531C575.718 6.44531 576.281 6.55729 576.745 6.78125C577.208 7 577.56 7.31771 577.799 7.73438C578.044 8.15104 578.166 8.65625 578.166 9.25V15H577.143V13.5469H577.041C576.875 13.8802 576.656 14.1667 576.385 14.4062C576.114 14.6406 575.802 14.8229 575.448 14.9531C575.093 15.0781 574.708 15.1406 574.291 15.1406ZM580.499 15H579.21L583.038 10.6328L579.374 6.58594H580.632L583.859 10.2891H584.335V6.58594H585.335V10.2891H585.812L589.038 6.58594H590.28L586.632 10.6094L590.476 15H589.163L585.812 11.0781H585.335V15H584.335V11.0781H583.859L580.499 15ZM591.418 17.2266H590.457V14.1328H591.145C591.457 13.9297 591.694 13.5729 591.855 13.0625C592.017 12.5469 592.118 11.974 592.16 11.3438L592.496 6.58594H598.082V14.1328H599.441V17.2266H598.48V15H591.418V17.2266ZM597.051 14.1328V7.44531H593.41L593.121 11.3828C593.079 11.9401 592.999 12.4531 592.879 12.9219C592.759 13.3906 592.587 13.763 592.363 14.0391V14.1328H597.051ZM603.938 15.1406C603.157 15.1406 602.48 14.9661 601.907 14.6172C601.334 14.263 600.891 13.7604 600.579 13.1094C600.272 12.4583 600.118 11.6875 600.118 10.7969V10.7812C600.118 9.89062 600.272 9.11979 600.579 8.46875C600.891 7.81771 601.334 7.31771 601.907 6.96875C602.48 6.61979 603.157 6.44531 603.938 6.44531C604.725 6.44531 605.402 6.61979 605.97 6.96875C606.542 7.31771 606.983 7.81771 607.29 8.46875C607.602 9.11979 607.759 9.89062 607.759 10.7812V10.7969C607.759 11.6875 607.602 12.4583 607.29 13.1094C606.983 13.7604 606.542 14.263 605.97 14.6172C605.402 14.9661 604.725 15.1406 603.938 15.1406ZM603.938 14.2266C604.516 14.2266 605.011 14.0885 605.423 13.8125C605.839 13.5365 606.157 13.1432 606.376 12.6328C606.6 12.1172 606.712 11.5052 606.712 10.7969V10.7812C606.712 10.0729 606.6 9.46354 606.376 8.95312C606.157 8.4375 605.839 8.04427 605.423 7.77344C605.011 7.4974 604.516 7.35938 603.938 7.35938C603.36 7.35938 602.863 7.4974 602.446 7.77344C602.035 8.04427 601.717 8.4349 601.493 8.94531C601.274 9.45573 601.165 10.0677 601.165 10.7812V10.7969C601.165 11.5052 601.274 12.1172 601.493 12.6328C601.717 13.1432 602.035 13.5365 602.446 13.8125C602.863 14.0885 603.36 14.2266 603.938 14.2266ZM609.326 15V6.58594H610.357V13.3594H610.92L610.193 13.7422L615.115 6.58594H616.146V15H615.115V8.22656H614.552L615.279 7.83594L610.357 15H609.326ZM612.74 5.3125C612.24 5.3125 611.805 5.21354 611.435 5.01562C611.071 4.8125 610.787 4.53646 610.584 4.1875C610.38 3.83854 610.279 3.4401 610.279 2.99219H611.209C611.209 3.4349 611.344 3.8125 611.615 4.125C611.891 4.4375 612.266 4.59375 612.74 4.59375C613.219 4.59375 613.591 4.4375 613.857 4.125C614.128 3.8125 614.263 3.4349 614.263 2.99219H615.201C615.201 3.4401 615.099 3.83854 614.896 4.1875C614.693 4.53646 614.407 4.8125 614.037 5.01562C613.667 5.21354 613.235 5.3125 612.74 5.3125ZM621.562 17.2266H620.601V14.1328H621.288C621.601 13.9297 621.838 13.5729 621.999 13.0625C622.161 12.5469 622.262 11.974 622.304 11.3438L622.64 6.58594H628.226V14.1328H629.585V17.2266H628.624V15H621.562V17.2266ZM627.195 14.1328V7.44531H623.554L623.265 11.3828C623.223 11.9401 623.142 12.4531 623.023 12.9219C622.903 13.3906 622.731 13.763 622.507 14.0391V14.1328H627.195ZM634.074 15.1406C633.288 15.1406 632.608 14.9635 632.035 14.6094C631.467 14.2552 631.03 13.7552 630.723 13.1094C630.415 12.4635 630.262 11.7005 630.262 10.8203V10.8047C630.262 9.92969 630.415 9.16667 630.723 8.51562C631.03 7.85938 631.462 7.35156 632.02 6.99219C632.582 6.6276 633.238 6.44531 633.988 6.44531C634.743 6.44531 635.392 6.6224 635.934 6.97656C636.48 7.32552 636.9 7.8151 637.191 8.44531C637.488 9.07031 637.637 9.79688 637.637 10.625V11.0625H630.793V10.2188H637.113L636.605 10.9766V10.5859C636.605 9.88281 636.493 9.29427 636.27 8.82031C636.051 8.34115 635.743 7.97917 635.348 7.73438C634.957 7.48958 634.504 7.36719 633.988 7.36719C633.467 7.36719 633.007 7.49219 632.605 7.74219C632.204 7.99219 631.887 8.35938 631.652 8.84375C631.423 9.32292 631.309 9.90365 631.309 10.5859V10.9766C631.309 11.6484 631.423 12.2266 631.652 12.7109C631.882 13.1953 632.204 13.5677 632.621 13.8281C633.038 14.0885 633.53 14.2188 634.098 14.2188C634.504 14.2188 634.866 14.1615 635.184 14.0469C635.507 13.9323 635.775 13.7812 635.988 13.5938C636.202 13.401 636.355 13.1979 636.449 12.9844L636.473 12.9219H637.512L637.488 12.9844C637.405 13.2708 637.267 13.5443 637.074 13.8047C636.887 14.0599 636.647 14.2891 636.355 14.4922C636.064 14.6901 635.725 14.849 635.34 14.9688C634.96 15.0833 634.538 15.1406 634.074 15.1406ZM644.751 6.58594V7.44531H641.884V15H640.852V7.44531H637.977V6.58594H644.751ZM648.123 15.1406C647.581 15.1406 647.099 15.0417 646.677 14.8438C646.255 14.6406 645.922 14.3542 645.677 13.9844C645.433 13.6146 645.31 13.1797 645.31 12.6797V12.6641C645.31 12.1797 645.427 11.763 645.662 11.4141C645.896 11.0599 646.24 10.7839 646.693 10.5859C647.146 10.3828 647.696 10.2604 648.341 10.2188L651.482 10.0156V10.8516L648.482 11.0547C647.763 11.1016 647.229 11.2604 646.88 11.5312C646.537 11.7969 646.365 12.1693 646.365 12.6484V12.6641C646.365 13.1484 646.547 13.5339 646.912 13.8203C647.276 14.1016 647.745 14.2422 648.318 14.2422C648.823 14.2422 649.274 14.138 649.67 13.9297C650.071 13.7161 650.388 13.4297 650.623 13.0703C650.857 12.7109 650.974 12.3099 650.974 11.8672V9.25781C650.974 8.63802 650.792 8.16667 650.427 7.84375C650.063 7.52083 649.539 7.35938 648.857 7.35938C648.284 7.35938 647.808 7.47135 647.427 7.69531C647.047 7.91927 646.8 8.24219 646.685 8.66406L646.677 8.67969H645.646L645.654 8.64844C645.727 8.19531 645.909 7.80469 646.201 7.47656C646.492 7.14844 646.867 6.89583 647.326 6.71875C647.784 6.53646 648.305 6.44531 648.888 6.44531C649.55 6.44531 650.112 6.55729 650.576 6.78125C651.039 7 651.391 7.31771 651.63 7.73438C651.875 8.15104 651.998 8.65625 651.998 9.25V15H650.974V13.5469H650.873C650.706 13.8802 650.487 14.1667 650.216 14.4062C649.946 14.6406 649.633 14.8229 649.279 14.9531C648.925 15.0781 648.539 15.1406 648.123 15.1406ZM655.62 11.6562C655.567 12.3802 655.461 12.9974 655.299 13.5078C655.143 14.0182 654.916 14.4089 654.62 14.6797C654.328 14.9453 653.955 15.0781 653.502 15.0781C653.377 15.0781 653.265 15.0703 653.166 15.0547C653.073 15.0391 653 15.0208 652.948 15V14.0625C652.989 14.0781 653.052 14.0938 653.135 14.1094C653.224 14.1198 653.315 14.125 653.409 14.125C653.69 14.125 653.916 14.0104 654.088 13.7812C654.26 13.5521 654.39 13.2448 654.479 12.8594C654.567 12.474 654.627 12.0443 654.659 11.5703L655.01 6.58594H660.393V15H659.362V7.44531H655.94L655.62 11.6562ZM662.382 15V6.58594H663.413V13.3594H663.976L663.249 13.7422L668.171 6.58594H669.202V15H668.171V8.22656H667.609L668.335 7.83594L663.413 15H662.382ZM672.113 15.0625C671.889 15.0625 671.697 14.9818 671.535 14.8203C671.374 14.6589 671.293 14.4661 671.293 14.2422C671.293 14.013 671.374 13.8203 671.535 13.6641C671.697 13.5026 671.889 13.4219 672.113 13.4219C672.348 13.4219 672.543 13.5026 672.699 13.6641C672.861 13.8203 672.941 14.013 672.941 14.2422C672.941 14.4661 672.861 14.6589 672.699 14.8203C672.543 14.9818 672.348 15.0625 672.113 15.0625ZM672.113 8.64844C671.889 8.64844 671.697 8.56771 671.535 8.40625C671.374 8.24479 671.293 8.05208 671.293 7.82812C671.293 7.59896 671.374 7.40625 671.535 7.25C671.697 7.08854 671.889 7.00781 672.113 7.00781C672.348 7.00781 672.543 7.08854 672.699 7.25C672.861 7.40625 672.941 7.59896 672.941 7.82812C672.941 8.05208 672.861 8.24479 672.699 8.40625C672.543 8.56771 672.348 8.64844 672.113 8.64844ZM471.605 25.0938H471.191V29H470.16V20.5859H471.191V24.2734H471.605L475.262 20.5859H476.52L472.371 24.7188V24.5234L476.699 29H475.355L471.605 25.0938ZM480.954 29.1406C480.173 29.1406 479.496 28.9661 478.923 28.6172C478.35 28.263 477.907 27.7604 477.595 27.1094C477.287 26.4583 477.134 25.6875 477.134 24.7969V24.7812C477.134 23.8906 477.287 23.1198 477.595 22.4688C477.907 21.8177 478.35 21.3177 478.923 20.9688C479.496 20.6198 480.173 20.4453 480.954 20.4453C481.74 20.4453 482.417 20.6198 482.985 20.9688C483.558 21.3177 483.998 21.8177 484.305 22.4688C484.618 23.1198 484.774 23.8906 484.774 24.7812V24.7969C484.774 25.6875 484.618 26.4583 484.305 27.1094C483.998 27.7604 483.558 28.263 482.985 28.6172C482.417 28.9661 481.74 29.1406 480.954 29.1406ZM480.954 28.2266C481.532 28.2266 482.027 28.0885 482.438 27.8125C482.855 27.5365 483.173 27.1432 483.391 26.6328C483.615 26.1172 483.727 25.5052 483.727 24.7969V24.7812C483.727 24.0729 483.615 23.4635 483.391 22.9531C483.173 22.4375 482.855 22.0443 482.438 21.7734C482.027 21.4974 481.532 21.3594 480.954 21.3594C480.376 21.3594 479.878 21.4974 479.462 21.7734C479.05 22.0443 478.733 22.4349 478.509 22.9453C478.29 23.4557 478.18 24.0677 478.18 24.7812V24.7969C478.18 25.5052 478.29 26.1172 478.509 26.6328C478.733 27.1432 479.05 27.5365 479.462 27.8125C479.878 28.0885 480.376 28.2266 480.954 28.2266ZM487.373 29H486.341V20.5859H487.576L490.88 27.5781H490.974L494.263 20.5859H495.451V29H494.42V22.4531H494.31L491.302 28.8359H490.505L487.482 22.4531H487.373V29ZM501.432 31.7891V29.1172C500.547 29.1016 499.773 28.9167 499.112 28.5625C498.45 28.2083 497.935 27.7109 497.565 27.0703C497.2 26.4297 497.018 25.6771 497.018 24.8125V24.7969C497.018 23.9219 497.2 23.1667 497.565 22.5312C497.935 21.8906 498.45 21.3932 499.112 21.0391C499.773 20.6849 500.547 20.5 501.432 20.4844V17.6484H502.424V20.4844C503.31 20.5 504.083 20.6849 504.745 21.0391C505.406 21.3932 505.919 21.8906 506.284 22.5312C506.653 23.1667 506.838 23.9193 506.838 24.7891V24.8047C506.838 25.6797 506.653 26.4375 506.284 27.0781C505.914 27.7135 505.398 28.2083 504.737 28.5625C504.08 28.9167 503.31 29.1016 502.424 29.1172V31.7891H501.432ZM501.432 28.2266V21.375C500.75 21.3906 500.153 21.5391 499.643 21.8203C499.138 22.0964 498.745 22.487 498.463 22.9922C498.187 23.4974 498.049 24.099 498.049 24.7969V24.8125C498.049 25.5052 498.187 26.1042 498.463 26.6094C498.745 27.1094 499.138 27.5 499.643 27.7812C500.153 28.0625 500.75 28.2109 501.432 28.2266ZM502.424 28.2266C503.107 28.2109 503.7 28.0651 504.205 27.7891C504.711 27.5078 505.101 27.1146 505.377 26.6094C505.659 26.099 505.799 25.4974 505.799 24.8047V24.7891C505.799 24.0964 505.659 23.4974 505.377 22.9922C505.101 22.487 504.711 22.0964 504.205 21.8203C503.7 21.5391 503.107 21.3906 502.424 21.375V28.2266ZM511.804 29.1406C511.023 29.1406 510.346 28.9661 509.773 28.6172C509.2 28.263 508.757 27.7604 508.445 27.1094C508.137 26.4583 507.984 25.6875 507.984 24.7969V24.7812C507.984 23.8906 508.137 23.1198 508.445 22.4688C508.757 21.8177 509.2 21.3177 509.773 20.9688C510.346 20.6198 511.023 20.4453 511.804 20.4453C512.59 20.4453 513.267 20.6198 513.835 20.9688C514.408 21.3177 514.848 21.8177 515.155 22.4688C515.468 23.1198 515.624 23.8906 515.624 24.7812V24.7969C515.624 25.6875 515.468 26.4583 515.155 27.1094C514.848 27.7604 514.408 28.263 513.835 28.6172C513.267 28.9661 512.59 29.1406 511.804 29.1406ZM511.804 28.2266C512.382 28.2266 512.877 28.0885 513.288 27.8125C513.705 27.5365 514.023 27.1432 514.241 26.6328C514.465 26.1172 514.577 25.5052 514.577 24.7969V24.7812C514.577 24.0729 514.465 23.4635 514.241 22.9531C514.023 22.4375 513.705 22.0443 513.288 21.7734C512.877 21.4974 512.382 21.3594 511.804 21.3594C511.226 21.3594 510.728 21.4974 510.312 21.7734C509.9 22.0443 509.583 22.4349 509.359 22.9453C509.14 23.4557 509.03 24.0677 509.03 24.7812V24.7969C509.03 25.5052 509.14 26.1172 509.359 26.6328C509.583 27.1432 509.9 27.5365 510.312 27.8125C510.728 28.0885 511.226 28.2266 511.804 28.2266ZM517.199 31.7891V20.5859H518.23V22.2656H518.324C518.491 21.8906 518.712 21.5677 518.988 21.2969C519.264 21.0208 519.585 20.8099 519.949 20.6641C520.319 20.5182 520.72 20.4453 521.152 20.4453C521.866 20.4453 522.488 20.6276 523.02 20.9922C523.556 21.3516 523.973 21.8568 524.27 22.5078C524.566 23.1589 524.715 23.9167 524.715 24.7812V24.7969C524.715 25.6667 524.566 26.4271 524.27 27.0781C523.973 27.7292 523.556 28.237 523.02 28.6016C522.488 28.9609 521.866 29.1406 521.152 29.1406C520.73 29.1406 520.332 29.0677 519.957 28.9219C519.587 28.7708 519.262 28.5625 518.98 28.2969C518.699 28.0312 518.48 27.7161 518.324 27.3516H518.23V31.7891H517.199ZM520.941 28.2266C521.499 28.2266 521.98 28.0859 522.387 27.8047C522.793 27.5234 523.105 27.125 523.324 26.6094C523.548 26.0938 523.66 25.4896 523.66 24.7969V24.7812C523.66 24.0833 523.548 23.4792 523.324 22.9688C523.105 22.4583 522.793 22.0625 522.387 21.7812C521.98 21.5 521.499 21.3594 520.941 21.3594C520.384 21.3594 519.9 21.5026 519.488 21.7891C519.082 22.0703 518.767 22.4661 518.543 22.9766C518.319 23.487 518.207 24.0885 518.207 24.7812V24.7969C518.207 25.4896 518.319 26.0938 518.543 26.6094C518.767 27.1198 519.085 27.5182 519.496 27.8047C519.908 28.0859 520.389 28.2266 520.941 28.2266ZM531.829 20.5859V21.4453H528.962V29H527.93V21.4453H525.055V20.5859H531.829ZM531.787 31.7266L532.498 27.5781H533.693L532.568 31.7266H531.787ZM542.937 29.1484C542.103 29.1484 541.4 28.9583 540.827 28.5781C540.254 28.1979 539.822 27.638 539.53 26.8984C539.239 26.1536 539.093 25.237 539.093 24.1484V24.1328C539.093 22.9609 539.171 21.9609 539.327 21.1328C539.489 20.2995 539.739 19.6172 540.077 19.0859C540.416 18.5547 540.853 18.1562 541.39 17.8906C541.932 17.625 542.583 17.474 543.343 17.4375L544.257 17.3984C544.611 17.3828 544.96 17.3464 545.304 17.2891C545.648 17.2266 545.973 17.1328 546.28 17.0078V17.9219C546.14 18.0312 545.89 18.125 545.53 18.2031C545.171 18.276 544.76 18.3255 544.296 18.3516L543.366 18.3906C542.653 18.4219 542.064 18.5703 541.601 18.8359C541.142 19.1016 540.786 19.5156 540.53 20.0781C540.275 20.6406 540.096 21.3802 539.991 22.2969L539.976 22.4531H540.07C540.257 22.0573 540.499 21.7266 540.796 21.4609C541.093 21.1901 541.434 20.9844 541.82 20.8438C542.205 20.7031 542.624 20.6328 543.077 20.6328C543.833 20.6328 544.486 20.8047 545.038 21.1484C545.596 21.487 546.025 21.9688 546.327 22.5938C546.635 23.2188 546.788 23.9583 546.788 24.8125V24.8281C546.788 25.7135 546.632 26.4792 546.32 27.125C546.012 27.7708 545.57 28.2708 544.991 28.625C544.413 28.974 543.728 29.1484 542.937 29.1484ZM542.937 28.2266C543.52 28.2266 544.02 28.0911 544.437 27.8203C544.853 27.5443 545.174 27.1536 545.398 26.6484C545.627 26.138 545.741 25.5312 545.741 24.8281V24.8125C545.741 24.1302 545.627 23.5469 545.398 23.0625C545.174 22.5729 544.853 22.1979 544.437 21.9375C544.02 21.6771 543.52 21.5469 542.937 21.5469C542.359 21.5469 541.859 21.6771 541.437 21.9375C541.02 22.1979 540.7 22.5729 540.476 23.0625C540.252 23.5469 540.14 24.1302 540.14 24.8125V24.8281C540.14 25.5312 540.252 26.138 540.476 26.6484C540.7 27.1536 541.02 27.5443 541.437 27.8203C541.859 28.0911 542.359 28.2266 542.937 28.2266ZM551.746 29.1406C550.96 29.1406 550.28 28.9635 549.707 28.6094C549.139 28.2552 548.702 27.7552 548.395 27.1094C548.087 26.4635 547.934 25.7005 547.934 24.8203V24.8047C547.934 23.9297 548.087 23.1667 548.395 22.5156C548.702 21.8594 549.134 21.3516 549.691 20.9922C550.254 20.6276 550.91 20.4453 551.66 20.4453C552.415 20.4453 553.064 20.6224 553.605 20.9766C554.152 21.3255 554.572 21.8151 554.863 22.4453C555.16 23.0703 555.309 23.7969 555.309 24.625V25.0625H548.465V24.2188H554.785L554.277 24.9766V24.5859C554.277 23.8828 554.165 23.2943 553.941 22.8203C553.723 22.3411 553.415 21.9792 553.02 21.7344C552.629 21.4896 552.176 21.3672 551.66 21.3672C551.139 21.3672 550.678 21.4922 550.277 21.7422C549.876 21.9922 549.559 22.3594 549.324 22.8438C549.095 23.3229 548.98 23.9036 548.98 24.5859V24.9766C548.98 25.6484 549.095 26.2266 549.324 26.7109C549.553 27.1953 549.876 27.5677 550.293 27.8281C550.71 28.0885 551.202 28.2188 551.77 28.2188C552.176 28.2188 552.538 28.1615 552.855 28.0469C553.178 27.9323 553.447 27.7812 553.66 27.5938C553.874 27.401 554.027 27.1979 554.121 26.9844L554.145 26.9219H555.184L555.16 26.9844C555.077 27.2708 554.939 27.5443 554.746 27.8047C554.559 28.0599 554.319 28.2891 554.027 28.4922C553.736 28.6901 553.397 28.849 553.012 28.9688C552.632 29.0833 552.21 29.1406 551.746 29.1406ZM559.696 29.1484C559.097 29.1484 558.563 29.0547 558.095 28.8672C557.626 28.6797 557.246 28.4193 556.954 28.0859C556.662 27.7526 556.48 27.3646 556.407 26.9219L556.391 26.8438H557.438L557.454 26.9141C557.558 27.3099 557.803 27.638 558.188 27.8984C558.579 28.1536 559.082 28.2812 559.696 28.2812C560.363 28.2812 560.891 28.1328 561.282 27.8359C561.673 27.5339 561.868 27.1406 561.868 26.6562V26.6406C561.868 26.1146 561.673 25.7266 561.282 25.4766C560.891 25.2266 560.347 25.1016 559.649 25.1016H558.321V24.2422H559.649C560.264 24.2422 560.74 24.1146 561.079 23.8594C561.417 23.599 561.587 23.2292 561.587 22.75V22.7344C561.587 22.3229 561.428 21.9818 561.11 21.7109C560.792 21.4349 560.334 21.2969 559.735 21.2969C559.162 21.2969 558.691 21.4271 558.321 21.6875C557.951 21.9479 557.722 22.2839 557.634 22.6953L557.618 22.7422H556.61L556.626 22.6797C556.699 22.237 556.871 21.849 557.141 21.5156C557.412 21.1771 557.766 20.9141 558.204 20.7266C558.647 20.5339 559.154 20.4375 559.727 20.4375C560.337 20.4375 560.852 20.5339 561.274 20.7266C561.701 20.9193 562.027 21.1849 562.251 21.5234C562.48 21.8568 562.595 22.2396 562.595 22.6719V22.6875C562.595 23.1615 562.449 23.5703 562.157 23.9141C561.865 24.2526 561.498 24.4661 561.055 24.5547V24.6562C561.425 24.7188 561.746 24.8359 562.016 25.0078C562.292 25.1745 562.503 25.3906 562.649 25.6562C562.8 25.9167 562.876 26.224 562.876 26.5781V26.5938C562.876 27.1146 562.74 27.5677 562.47 27.9531C562.204 28.3333 561.832 28.6276 561.352 28.8359C560.878 29.0443 560.326 29.1484 559.696 29.1484ZM567.795 29.1406C567.013 29.1406 566.336 28.9661 565.763 28.6172C565.19 28.263 564.748 27.7604 564.435 27.1094C564.128 26.4583 563.974 25.6875 563.974 24.7969V24.7812C563.974 23.8906 564.128 23.1198 564.435 22.4688C564.748 21.8177 565.19 21.3177 565.763 20.9688C566.336 20.6198 567.013 20.4453 567.795 20.4453C568.581 20.4453 569.258 20.6198 569.826 20.9688C570.399 21.3177 570.839 21.8177 571.146 22.4688C571.459 23.1198 571.615 23.8906 571.615 24.7812V24.7969C571.615 25.6875 571.459 26.4583 571.146 27.1094C570.839 27.7604 570.399 28.263 569.826 28.6172C569.258 28.9661 568.581 29.1406 567.795 29.1406ZM567.795 28.2266C568.373 28.2266 568.867 28.0885 569.279 27.8125C569.696 27.5365 570.013 27.1432 570.232 26.6328C570.456 26.1172 570.568 25.5052 570.568 24.7969V24.7812C570.568 24.0729 570.456 23.4635 570.232 22.9531C570.013 22.4375 569.696 22.0443 569.279 21.7734C568.867 21.4974 568.373 21.3594 567.795 21.3594C567.216 21.3594 566.719 21.4974 566.302 21.7734C565.891 22.0443 565.573 22.4349 565.349 22.9453C565.13 23.4557 565.021 24.0677 565.021 24.7812V24.7969C565.021 25.5052 565.13 26.1172 565.349 26.6328C565.573 27.1432 565.891 27.5365 566.302 27.8125C566.719 28.0885 567.216 28.2266 567.795 28.2266ZM573.182 29V20.5859H579.823V29H578.791V21.4453H574.213V29H573.182ZM584.132 29.1406C583.59 29.1406 583.109 29.0417 582.687 28.8438C582.265 28.6406 581.932 28.3542 581.687 27.9844C581.442 27.6146 581.32 27.1797 581.32 26.6797V26.6641C581.32 26.1797 581.437 25.763 581.671 25.4141C581.905 25.0599 582.249 24.7839 582.702 24.5859C583.155 24.3828 583.705 24.2604 584.351 24.2188L587.491 24.0156V24.8516L584.491 25.0547C583.773 25.1016 583.239 25.2604 582.89 25.5312C582.546 25.7969 582.374 26.1693 582.374 26.6484V26.6641C582.374 27.1484 582.557 27.5339 582.921 27.8203C583.286 28.1016 583.754 28.2422 584.327 28.2422C584.833 28.2422 585.283 28.138 585.679 27.9297C586.08 27.7161 586.398 27.4297 586.632 27.0703C586.866 26.7109 586.984 26.3099 586.984 25.8672V23.2578C586.984 22.638 586.801 22.1667 586.437 21.8438C586.072 21.5208 585.549 21.3594 584.866 21.3594C584.293 21.3594 583.817 21.4714 583.437 21.6953C583.057 21.9193 582.809 22.2422 582.695 22.6641L582.687 22.6797H581.655L581.663 22.6484C581.736 22.1953 581.918 21.8047 582.21 21.4766C582.502 21.1484 582.877 20.8958 583.335 20.7188C583.793 20.5365 584.314 20.4453 584.898 20.4453C585.559 20.4453 586.122 20.5573 586.585 20.7812C587.049 21 587.4 21.3177 587.64 21.7344C587.885 22.151 588.007 22.6562 588.007 23.25V29H586.984V27.5469H586.882C586.715 27.8802 586.497 28.1667 586.226 28.4062C585.955 28.6406 585.642 28.8229 585.288 28.9531C584.934 29.0781 584.549 29.1406 584.132 29.1406ZM593.34 29.1406C592.564 29.1406 591.892 28.9635 591.324 28.6094C590.757 28.25 590.316 27.7422 590.004 27.0859C589.697 26.4297 589.543 25.6589 589.543 24.7734V24.7578C589.543 23.8776 589.697 23.1172 590.004 22.4766C590.311 21.8307 590.749 21.3307 591.316 20.9766C591.889 20.6224 592.561 20.4453 593.332 20.4453C593.973 20.4453 594.535 20.5599 595.02 20.7891C595.504 21.013 595.895 21.3203 596.191 21.7109C596.493 22.1016 596.689 22.5417 596.777 23.0312V23.0625H595.754V23.0469C595.629 22.5625 595.355 22.1615 594.934 21.8438C594.512 21.5208 593.978 21.3594 593.332 21.3594C592.775 21.3594 592.29 21.5 591.879 21.7812C591.467 22.0573 591.15 22.4505 590.926 22.9609C590.702 23.4661 590.59 24.0651 590.59 24.7578V24.7734C590.59 25.4714 590.702 26.0807 590.926 26.6016C591.155 27.1172 591.475 27.5182 591.887 27.8047C592.298 28.0859 592.78 28.2266 593.332 28.2266C593.957 28.2266 594.475 28.0859 594.887 27.8047C595.303 27.5234 595.587 27.1276 595.738 26.6172L595.754 26.5781L596.77 26.5703L596.762 26.6406C596.652 27.1302 596.449 27.5651 596.152 27.9453C595.861 28.3203 595.478 28.6146 595.004 28.8281C594.535 29.0365 593.98 29.1406 593.34 29.1406ZM603.954 29V25.0625H599.298V29H598.266V20.5859H599.298V24.2031H603.954V20.5859H604.985V29H603.954ZM610.373 29.1406C609.591 29.1406 608.914 28.9661 608.341 28.6172C607.768 28.263 607.326 27.7604 607.013 27.1094C606.706 26.4583 606.552 25.6875 606.552 24.7969V24.7812C606.552 23.8906 606.706 23.1198 607.013 22.4688C607.326 21.8177 607.768 21.3177 608.341 20.9688C608.914 20.6198 609.591 20.4453 610.373 20.4453C611.159 20.4453 611.836 20.6198 612.404 20.9688C612.977 21.3177 613.417 21.8177 613.724 22.4688C614.037 23.1198 614.193 23.8906 614.193 24.7812V24.7969C614.193 25.6875 614.037 26.4583 613.724 27.1094C613.417 27.7604 612.977 28.263 612.404 28.6172C611.836 28.9661 611.159 29.1406 610.373 29.1406ZM610.373 28.2266C610.951 28.2266 611.446 28.0885 611.857 27.8125C612.274 27.5365 612.591 27.1432 612.81 26.6328C613.034 26.1172 613.146 25.5052 613.146 24.7969V24.7812C613.146 24.0729 613.034 23.4635 612.81 22.9531C612.591 22.4375 612.274 22.0443 611.857 21.7734C611.446 21.4974 610.951 21.3594 610.373 21.3594C609.795 21.3594 609.297 21.4974 608.88 21.7734C608.469 22.0443 608.151 22.4349 607.927 22.9453C607.709 23.4557 607.599 24.0677 607.599 24.7812V24.7969C607.599 25.5052 607.709 26.1172 607.927 26.6328C608.151 27.1432 608.469 27.5365 608.88 27.8125C609.297 28.0885 609.795 28.2266 610.373 28.2266ZM619.143 29.1406C618.367 29.1406 617.695 28.9635 617.127 28.6094C616.56 28.25 616.12 27.7422 615.807 27.0859C615.5 26.4297 615.346 25.6589 615.346 24.7734V24.7578C615.346 23.8776 615.5 23.1172 615.807 22.4766C616.114 21.8307 616.552 21.3307 617.12 20.9766C617.692 20.6224 618.364 20.4453 619.135 20.4453C619.776 20.4453 620.338 20.5599 620.823 20.7891C621.307 21.013 621.698 21.3203 621.995 21.7109C622.297 22.1016 622.492 22.5417 622.58 23.0312V23.0625H621.557V23.0469C621.432 22.5625 621.159 22.1615 620.737 21.8438C620.315 21.5208 619.781 21.3594 619.135 21.3594C618.578 21.3594 618.093 21.5 617.682 21.7812C617.271 22.0573 616.953 22.4505 616.729 22.9609C616.505 23.4661 616.393 24.0651 616.393 24.7578V24.7734C616.393 25.4714 616.505 26.0807 616.729 26.6016C616.958 27.1172 617.278 27.5182 617.69 27.8047C618.101 28.0859 618.583 28.2266 619.135 28.2266C619.76 28.2266 620.278 28.0859 620.69 27.8047C621.107 27.5234 621.39 27.1276 621.541 26.6172L621.557 26.5781L622.573 26.5703L622.565 26.6406C622.455 27.1302 622.252 27.5651 621.955 27.9453C621.664 28.3203 621.281 28.6146 620.807 28.8281C620.338 29.0365 619.784 29.1406 619.143 29.1406ZM629.741 20.5859V21.4453H626.874V29H625.843V21.4453H622.968V20.5859H629.741ZM630.988 29V20.5859H632.02V23.4531H633.895C634.822 23.4531 635.561 23.7031 636.113 24.2031C636.665 24.6979 636.941 25.3698 636.941 26.2188V26.2344C636.941 27.0781 636.665 27.75 636.113 28.25C635.561 28.75 634.822 29 633.895 29H630.988ZM633.895 24.3125H632.02V28.1328H633.895C634.514 28.1328 635.004 27.9609 635.363 27.6172C635.728 27.2682 635.91 26.8073 635.91 26.2344V26.2188C635.91 25.6406 635.728 25.1797 635.363 24.8359C634.999 24.487 634.509 24.3125 633.895 24.3125ZM638.024 31.7266L638.735 27.5781H639.93L638.805 31.7266H638.024ZM472.488 43.1406C471.947 43.1406 471.465 43.0417 471.043 42.8438C470.621 42.6406 470.288 42.3542 470.043 41.9844C469.798 41.6146 469.676 41.1797 469.676 40.6797V40.6641C469.676 40.1797 469.793 39.763 470.027 39.4141C470.262 39.0599 470.605 38.7839 471.059 38.5859C471.512 38.3828 472.061 38.2604 472.707 38.2188L475.848 38.0156V38.8516L472.848 39.0547C472.129 39.1016 471.595 39.2604 471.246 39.5312C470.902 39.7969 470.73 40.1693 470.73 40.6484V40.6641C470.73 41.1484 470.913 41.5339 471.277 41.8203C471.642 42.1016 472.111 42.2422 472.684 42.2422C473.189 42.2422 473.639 42.138 474.035 41.9297C474.436 41.7161 474.754 41.4297 474.988 41.0703C475.223 40.7109 475.34 40.3099 475.34 39.8672V37.2578C475.34 36.638 475.158 36.1667 474.793 35.8438C474.428 35.5208 473.905 35.3594 473.223 35.3594C472.65 35.3594 472.173 35.4714 471.793 35.6953C471.413 35.9193 471.165 36.2422 471.051 36.6641L471.043 36.6797H470.012L470.02 36.6484C470.092 36.1953 470.275 35.8047 470.566 35.4766C470.858 35.1484 471.233 34.8958 471.691 34.7188C472.15 34.5365 472.671 34.4453 473.254 34.4453C473.915 34.4453 474.478 34.5573 474.941 34.7812C475.405 35 475.757 35.3177 475.996 35.7344C476.241 36.151 476.363 36.6562 476.363 37.25V43H475.34V41.5469H475.238C475.072 41.8802 474.853 42.1667 474.582 42.4062C474.311 42.6406 473.999 42.8229 473.645 42.9531C473.29 43.0781 472.905 43.1406 472.488 43.1406ZM478.313 43V34.5859H481.688C482.485 34.5859 483.105 34.7786 483.548 35.1641C483.996 35.5495 484.22 36.0677 484.22 36.7188V36.7344C484.22 37.1875 484.079 37.5885 483.798 37.9375C483.516 38.2865 483.162 38.5052 482.735 38.5938V38.6875C483.1 38.7292 483.423 38.8333 483.704 39C483.985 39.1667 484.207 39.3854 484.368 39.6562C484.535 39.9219 484.618 40.237 484.618 40.6016V40.6172C484.618 41.112 484.503 41.5365 484.274 41.8906C484.05 42.2448 483.722 42.5182 483.29 42.7109C482.858 42.9036 482.334 43 481.72 43H478.313ZM479.345 42.1328H481.68C482.305 42.1328 482.777 42.0026 483.095 41.7422C483.417 41.4766 483.579 41.0964 483.579 40.6016V40.5859C483.579 40.0859 483.397 39.7188 483.032 39.4844C482.667 39.2448 482.149 39.125 481.477 39.125H479.345V42.1328ZM479.345 38.2656H481.399C481.988 38.2656 482.433 38.1406 482.735 37.8906C483.042 37.6354 483.196 37.2812 483.196 36.8281V36.8125C483.196 36.4062 483.058 36.0781 482.782 35.8281C482.506 35.5729 482.097 35.4453 481.555 35.4453H479.345V38.2656ZM491.716 34.5859V35.4453H488.849V43H487.818V35.4453H484.943V34.5859H491.716ZM496.026 43.1406C495.245 43.1406 494.567 42.9661 493.995 42.6172C493.422 42.263 492.979 41.7604 492.666 41.1094C492.359 40.4583 492.205 39.6875 492.205 38.7969V38.7812C492.205 37.8906 492.359 37.1198 492.666 36.4688C492.979 35.8177 493.422 35.3177 493.995 34.9688C494.567 34.6198 495.245 34.4453 496.026 34.4453C496.812 34.4453 497.489 34.6198 498.057 34.9688C498.63 35.3177 499.07 35.8177 499.377 36.4688C499.69 37.1198 499.846 37.8906 499.846 38.7812V38.7969C499.846 39.6875 499.69 40.4583 499.377 41.1094C499.07 41.7604 498.63 42.263 498.057 42.6172C497.489 42.9661 496.812 43.1406 496.026 43.1406ZM496.026 42.2266C496.604 42.2266 497.099 42.0885 497.51 41.8125C497.927 41.5365 498.245 41.1432 498.463 40.6328C498.687 40.1172 498.799 39.5052 498.799 38.7969V38.7812C498.799 38.0729 498.687 37.4635 498.463 36.9531C498.245 36.4375 497.927 36.0443 497.51 35.7734C497.099 35.4974 496.604 35.3594 496.026 35.3594C495.448 35.3594 494.95 35.4974 494.534 35.7734C494.122 36.0443 493.804 36.4349 493.58 36.9453C493.362 37.4557 493.252 38.0677 493.252 38.7812V38.7969C493.252 39.5052 493.362 40.1172 493.58 40.6328C493.804 41.1432 494.122 41.5365 494.534 41.8125C494.95 42.0885 495.448 42.2266 496.026 42.2266ZM507.101 43V39.0625H502.445V43H501.413V34.5859H502.445V38.2031H507.101V34.5859H508.132V43H507.101ZM513.52 43.1406C512.738 43.1406 512.061 42.9661 511.488 42.6172C510.915 42.263 510.473 41.7604 510.16 41.1094C509.853 40.4583 509.699 39.6875 509.699 38.7969V38.7812C509.699 37.8906 509.853 37.1198 510.16 36.4688C510.473 35.8177 510.915 35.3177 511.488 34.9688C512.061 34.6198 512.738 34.4453 513.52 34.4453C514.306 34.4453 514.983 34.6198 515.551 34.9688C516.124 35.3177 516.564 35.8177 516.871 36.4688C517.184 37.1198 517.34 37.8906 517.34 38.7812V38.7969C517.34 39.6875 517.184 40.4583 516.871 41.1094C516.564 41.7604 516.124 42.263 515.551 42.6172C514.983 42.9661 514.306 43.1406 513.52 43.1406ZM513.52 42.2266C514.098 42.2266 514.592 42.0885 515.004 41.8125C515.421 41.5365 515.738 41.1432 515.957 40.6328C516.181 40.1172 516.293 39.5052 516.293 38.7969V38.7812C516.293 38.0729 516.181 37.4635 515.957 36.9531C515.738 36.4375 515.421 36.0443 515.004 35.7734C514.592 35.4974 514.098 35.3594 513.52 35.3594C512.941 35.3594 512.444 35.4974 512.027 35.7734C511.616 36.0443 511.298 36.4349 511.074 36.9453C510.855 37.4557 510.746 38.0677 510.746 38.7812V38.7969C510.746 39.5052 510.855 40.1172 511.074 40.6328C511.298 41.1432 511.616 41.5365 512.027 41.8125C512.444 42.0885 512.941 42.2266 513.52 42.2266ZM519.938 43H518.907V34.5859H520.141L523.446 41.5781H523.54L526.829 34.5859H528.016V43H526.985V36.4531H526.876L523.868 42.8359H523.071L520.048 36.4531H519.938V43ZM535.685 43V39.0625H531.029V43H529.998V34.5859H531.029V38.2031H535.685V34.5859H536.716V43H535.685ZM542.104 43.1406C541.323 43.1406 540.646 42.9661 540.073 42.6172C539.5 42.263 539.057 41.7604 538.745 41.1094C538.437 40.4583 538.284 39.6875 538.284 38.7969V38.7812C538.284 37.8906 538.437 37.1198 538.745 36.4688C539.057 35.8177 539.5 35.3177 540.073 34.9688C540.646 34.6198 541.323 34.4453 542.104 34.4453C542.89 34.4453 543.567 34.6198 544.135 34.9688C544.708 35.3177 545.148 35.8177 545.455 36.4688C545.768 37.1198 545.924 37.8906 545.924 38.7812V38.7969C545.924 39.6875 545.768 40.4583 545.455 41.1094C545.148 41.7604 544.708 42.263 544.135 42.6172C543.567 42.9661 542.89 43.1406 542.104 43.1406ZM542.104 42.2266C542.682 42.2266 543.177 42.0885 543.588 41.8125C544.005 41.5365 544.323 41.1432 544.541 40.6328C544.765 40.1172 544.877 39.5052 544.877 38.7969V38.7812C544.877 38.0729 544.765 37.4635 544.541 36.9531C544.323 36.4375 544.005 36.0443 543.588 35.7734C543.177 35.4974 542.682 35.3594 542.104 35.3594C541.526 35.3594 541.028 35.4974 540.612 35.7734C540.2 36.0443 539.883 36.4349 539.659 36.9453C539.44 37.4557 539.33 38.0677 539.33 38.7812V38.7969C539.33 39.5052 539.44 40.1172 539.659 40.6328C539.883 41.1432 540.2 41.5365 540.612 41.8125C541.028 42.0885 541.526 42.2266 542.104 42.2266ZM550.874 43.1406C550.098 43.1406 549.426 42.9635 548.859 42.6094C548.291 42.25 547.851 41.7422 547.538 41.0859C547.231 40.4297 547.077 39.6589 547.077 38.7734V38.7578C547.077 37.8776 547.231 37.1172 547.538 36.4766C547.846 35.8307 548.283 35.3307 548.851 34.9766C549.424 34.6224 550.096 34.4453 550.866 34.4453C551.507 34.4453 552.07 34.5599 552.554 34.7891C553.038 35.013 553.429 35.3203 553.726 35.7109C554.028 36.1016 554.223 36.5417 554.312 37.0312V37.0625H553.288V37.0469C553.163 36.5625 552.89 36.1615 552.468 35.8438C552.046 35.5208 551.512 35.3594 550.866 35.3594C550.309 35.3594 549.825 35.5 549.413 35.7812C549.002 36.0573 548.684 36.4505 548.46 36.9609C548.236 37.4661 548.124 38.0651 548.124 38.7578V38.7734C548.124 39.4714 548.236 40.0807 548.46 40.6016C548.689 41.1172 549.01 41.5182 549.421 41.8047C549.833 42.0859 550.314 42.2266 550.866 42.2266C551.491 42.2266 552.01 42.0859 552.421 41.8047C552.838 41.5234 553.122 41.1276 553.273 40.6172L553.288 40.5781L554.304 40.5703L554.296 40.6406C554.187 41.1302 553.984 41.5651 553.687 41.9453C553.395 42.3203 553.012 42.6146 552.538 42.8281C552.07 43.0365 551.515 43.1406 550.874 43.1406ZM561.473 34.5859V35.4453H558.605V43H557.574V35.4453H554.699V34.5859H561.473ZM562.72 43V34.5859H563.751V37.4531H565.626C566.553 37.4531 567.292 37.7031 567.845 38.2031C568.397 38.6979 568.673 39.3698 568.673 40.2188V40.2344C568.673 41.0781 568.397 41.75 567.845 42.25C567.292 42.75 566.553 43 565.626 43H562.72ZM565.626 38.3125H563.751V42.1328H565.626C566.246 42.1328 566.735 41.9609 567.095 41.6172C567.459 41.2682 567.641 40.8073 567.641 40.2344V40.2188C567.641 39.6406 567.459 39.1797 567.095 38.8359C566.73 38.487 566.24 38.3125 565.626 38.3125ZM571.045 43.0625C570.821 43.0625 570.628 42.9818 570.466 42.8203C570.305 42.6589 570.224 42.4661 570.224 42.2422C570.224 42.013 570.305 41.8203 570.466 41.6641C570.628 41.5026 570.821 41.4219 571.045 41.4219C571.279 41.4219 571.474 41.5026 571.63 41.6641C571.792 41.8203 571.873 42.013 571.873 42.2422C571.873 42.4661 571.792 42.6589 571.63 42.8203C571.474 42.9818 571.279 43.0625 571.045 43.0625Z" fill="white"/>
<rect x="691.924" y="4" width="154" height="38" fill="white"/>
<rect x="863.076" y="4" width="96" height="38" fill="white"/>
<rect x="976.23" y="4" width="12" height="38" fill="white"/>
<rect x="1005.38" y="4" width="8" height="38" fill="white"/>
<rect x="1030.54" y="4" width="3" height="38" fill="white"/>
<rect x="1050.69" y="4" width="3" height="38" fill="white"/>
<path d="M1072.82 17.4062C1072.75 17.4062 1072.68 17.4036 1072.6 17.3984C1072.51 17.3932 1072.43 17.3854 1072.36 17.375V16.5156C1072.43 16.526 1072.5 16.5339 1072.57 16.5391C1072.65 16.5443 1072.72 16.5469 1072.79 16.5469C1073.18 16.5469 1073.5 16.4453 1073.75 16.2422C1074.01 16.0443 1074.22 15.6927 1074.39 15.1875L1074.6 14.5547L1071.45 6.08594H1072.55L1075.33 14.0625L1074.9 13.3906H1075.4L1074.97 14.0625L1077.74 6.08594H1078.83L1075.42 15.2344C1075.22 15.7865 1075 16.2188 1074.78 16.5312C1074.55 16.849 1074.28 17.0729 1073.96 17.2031C1073.66 17.3385 1073.28 17.4062 1072.82 17.4062ZM1081.06 14.5H1080.03V6.08594H1081.26L1084.57 13.0781H1084.66L1087.95 6.08594H1089.14V14.5H1088.11V7.95312H1088L1084.99 14.3359H1084.19L1081.17 7.95312H1081.06V14.5ZM1096.81 14.5V10.5625H1092.15V14.5H1091.12V6.08594H1092.15V9.70312H1096.81V6.08594H1097.84V14.5H1096.81ZM1099.82 14.5V6.08594H1100.85V8.95312H1102.73C1103.65 8.95312 1104.39 9.20312 1104.95 9.70312C1105.5 10.1979 1105.77 10.8698 1105.77 11.7188V11.7344C1105.77 12.5781 1105.5 13.25 1104.95 13.75C1104.39 14.25 1103.65 14.5 1102.73 14.5H1099.82ZM1102.73 9.8125H1100.85V13.6328H1102.73C1103.35 13.6328 1103.84 13.4609 1104.2 13.1172C1104.56 12.7682 1104.74 12.3073 1104.74 11.7344V11.7188C1104.74 11.1406 1104.56 10.6797 1104.2 10.3359C1103.83 9.98698 1103.34 9.8125 1102.73 9.8125ZM1107.34 14.5V6.08594H1108.37V14.5H1107.34ZM1110.36 14.5V6.08594H1111.4V12.8594H1111.96L1111.23 13.2422L1116.15 6.08594H1117.18V14.5H1116.15V7.72656H1115.59L1116.32 7.33594L1111.4 14.5H1110.36ZM1113.78 4.8125C1113.28 4.8125 1112.84 4.71354 1112.47 4.51562C1112.11 4.3125 1111.83 4.03646 1111.62 3.6875C1111.42 3.33854 1111.32 2.9401 1111.32 2.49219H1112.25C1112.25 2.9349 1112.38 3.3125 1112.65 3.625C1112.93 3.9375 1113.3 4.09375 1113.78 4.09375C1114.26 4.09375 1114.63 3.9375 1114.9 3.625C1115.17 3.3125 1115.3 2.9349 1115.3 2.49219H1116.24C1116.24 2.9401 1116.14 3.33854 1115.93 3.6875C1115.73 4.03646 1115.45 4.3125 1115.08 4.51562C1114.71 4.71354 1114.27 4.8125 1113.78 4.8125ZM1122.69 14.5V6.08594H1129.33V14.5H1128.3V6.94531H1123.72V14.5H1122.69ZM1134.71 14.6406C1133.93 14.6406 1133.26 14.4661 1132.68 14.1172C1132.11 13.763 1131.67 13.2604 1131.36 12.6094C1131.05 11.9583 1130.89 11.1875 1130.89 10.2969V10.2812C1130.89 9.39062 1131.05 8.61979 1131.36 7.96875C1131.67 7.31771 1132.11 6.81771 1132.68 6.46875C1133.26 6.11979 1133.93 5.94531 1134.71 5.94531C1135.5 5.94531 1136.18 6.11979 1136.75 6.46875C1137.32 6.81771 1137.76 7.31771 1138.07 7.96875C1138.38 8.61979 1138.53 9.39062 1138.53 10.2812V10.2969C1138.53 11.1875 1138.38 11.9583 1138.07 12.6094C1137.76 13.2604 1137.32 13.763 1136.75 14.1172C1136.18 14.4661 1135.5 14.6406 1134.71 14.6406ZM1134.71 13.7266C1135.29 13.7266 1135.79 13.5885 1136.2 13.3125C1136.62 13.0365 1136.93 12.6432 1137.15 12.1328C1137.38 11.6172 1137.49 11.0052 1137.49 10.2969V10.2812C1137.49 9.57292 1137.38 8.96354 1137.15 8.45312C1136.93 7.9375 1136.62 7.54427 1136.2 7.27344C1135.79 6.9974 1135.29 6.85938 1134.71 6.85938C1134.14 6.85938 1133.64 6.9974 1133.22 7.27344C1132.81 7.54427 1132.49 7.9349 1132.27 8.44531C1132.05 8.95573 1131.94 9.56771 1131.94 10.2812V10.2969C1131.94 11.0052 1132.05 11.6172 1132.27 12.1328C1132.49 12.6432 1132.81 13.0365 1133.22 13.3125C1133.64 13.5885 1134.14 13.7266 1134.71 13.7266ZM1139.89 16.7266H1138.93V13.6328H1139.62C1139.93 13.4297 1140.17 13.0729 1140.33 12.5625C1140.49 12.0469 1140.59 11.474 1140.63 10.8438L1140.97 6.08594H1146.56V13.6328H1147.91V16.7266H1146.95V14.5H1139.89V16.7266ZM1145.52 13.6328V6.94531H1141.88L1141.59 10.8828C1141.55 11.4401 1141.47 11.9531 1141.35 12.4219C1141.23 12.8906 1141.06 13.263 1140.84 13.5391V13.6328H1145.52ZM1148.26 14.5L1151.23 10.2656L1148.23 6.08594H1149.46L1151.76 9.44531H1151.85L1154.13 6.08594H1155.3L1152.34 10.2266L1155.33 14.5H1154.11L1151.82 11.0547H1151.72L1149.43 14.5H1148.26ZM1159.67 14.6406C1158.89 14.6406 1158.22 14.4661 1157.64 14.1172C1157.07 13.763 1156.63 13.2604 1156.31 12.6094C1156.01 11.9583 1155.85 11.1875 1155.85 10.2969V10.2812C1155.85 9.39062 1156.01 8.61979 1156.31 7.96875C1156.63 7.31771 1157.07 6.81771 1157.64 6.46875C1158.22 6.11979 1158.89 5.94531 1159.67 5.94531C1160.46 5.94531 1161.14 6.11979 1161.71 6.46875C1162.28 6.81771 1162.72 7.31771 1163.03 7.96875C1163.34 8.61979 1163.49 9.39062 1163.49 10.2812V10.2969C1163.49 11.1875 1163.34 11.9583 1163.03 12.6094C1162.72 13.2604 1162.28 13.763 1161.71 14.1172C1161.14 14.4661 1160.46 14.6406 1159.67 14.6406ZM1159.67 13.7266C1160.25 13.7266 1160.75 13.5885 1161.16 13.3125C1161.57 13.0365 1161.89 12.6432 1162.11 12.1328C1162.34 11.6172 1162.45 11.0052 1162.45 10.2969V10.2812C1162.45 9.57292 1162.34 8.96354 1162.11 8.45312C1161.89 7.9375 1161.57 7.54427 1161.16 7.27344C1160.75 6.9974 1160.25 6.85938 1159.67 6.85938C1159.1 6.85938 1158.6 6.9974 1158.18 7.27344C1157.77 7.54427 1157.45 7.9349 1157.23 8.44531C1157.01 8.95573 1156.9 9.56771 1156.9 10.2812V10.2969C1156.9 11.0052 1157.01 11.6172 1157.23 12.1328C1157.45 12.6432 1157.77 13.0365 1158.18 13.3125C1158.6 13.5885 1159.1 13.7266 1159.67 13.7266ZM1164.85 16.7266H1163.89V13.6328H1164.58C1164.89 13.4297 1165.13 13.0729 1165.29 12.5625C1165.45 12.0469 1165.55 11.474 1165.59 10.8438L1165.93 6.08594H1171.51V13.6328H1172.87V16.7266H1171.91V14.5H1164.85V16.7266ZM1170.48 13.6328V6.94531H1166.84L1166.55 10.8828C1166.51 11.4401 1166.43 11.9531 1166.31 12.4219C1166.19 12.8906 1166.02 13.263 1165.8 13.5391V13.6328H1170.48ZM1073.68 24.5938H1073.27V28.5H1072.24V20.0859H1073.27V23.7734H1073.68L1077.34 20.0859H1078.6L1074.45 24.2188V24.0234L1078.78 28.5H1077.43L1073.68 24.5938ZM1084.08 31.4062C1084.01 31.4062 1083.94 31.4036 1083.86 31.3984C1083.77 31.3932 1083.69 31.3854 1083.62 31.375V30.5156C1083.69 30.526 1083.76 30.5339 1083.83 30.5391C1083.91 30.5443 1083.98 30.5469 1084.05 30.5469C1084.44 30.5469 1084.76 30.4453 1085.01 30.2422C1085.27 30.0443 1085.48 29.6927 1085.65 29.1875L1085.86 28.5547L1082.71 20.0859H1083.81L1086.59 28.0625L1086.16 27.3906H1086.66L1086.23 28.0625L1089 20.0859H1090.09L1086.68 29.2344C1086.48 29.7865 1086.26 30.2188 1086.03 30.5312C1085.81 30.849 1085.53 31.0729 1085.22 31.2031C1084.91 31.3385 1084.53 31.4062 1084.08 31.4062ZM1091.29 28.5V20.0859H1097.93V28.5H1096.9V20.9453H1092.32V28.5H1091.29ZM1099.92 31.2891V20.0859H1100.95V21.7656H1101.04C1101.21 21.3906 1101.43 21.0677 1101.71 20.7969C1101.98 20.5208 1102.3 20.3099 1102.67 20.1641C1103.04 20.0182 1103.44 19.9453 1103.87 19.9453C1104.59 19.9453 1105.21 20.1276 1105.74 20.4922C1106.28 20.8516 1106.69 21.3568 1106.99 22.0078C1107.29 22.6589 1107.43 23.4167 1107.43 24.2812V24.2969C1107.43 25.1667 1107.29 25.9271 1106.99 26.5781C1106.69 27.2292 1106.28 27.737 1105.74 28.1016C1105.21 28.4609 1104.59 28.6406 1103.87 28.6406C1103.45 28.6406 1103.05 28.5677 1102.68 28.4219C1102.31 28.2708 1101.98 28.0625 1101.7 27.7969C1101.42 27.5312 1101.2 27.2161 1101.04 26.8516H1100.95V31.2891H1099.92ZM1103.66 27.7266C1104.22 27.7266 1104.7 27.5859 1105.11 27.3047C1105.51 27.0234 1105.83 26.625 1106.04 26.1094C1106.27 25.5938 1106.38 24.9896 1106.38 24.2969V24.2812C1106.38 23.5833 1106.27 22.9792 1106.04 22.4688C1105.83 21.9583 1105.51 21.5625 1105.11 21.2812C1104.7 21 1104.22 20.8594 1103.66 20.8594C1103.1 20.8594 1102.62 21.0026 1102.21 21.2891C1101.8 21.5703 1101.49 21.9661 1101.26 22.4766C1101.04 22.987 1100.93 23.5885 1100.93 24.2812V24.2969C1100.93 24.9896 1101.04 25.5938 1101.26 26.1094C1101.49 26.6198 1101.8 27.0182 1102.22 27.3047C1102.63 27.5859 1103.11 27.7266 1103.66 27.7266ZM1111.31 28.6406C1110.77 28.6406 1110.29 28.5417 1109.87 28.3438C1109.45 28.1406 1109.11 27.8542 1108.87 27.4844C1108.62 27.1146 1108.5 26.6797 1108.5 26.1797V26.1641C1108.5 25.6797 1108.62 25.263 1108.85 24.9141C1109.09 24.5599 1109.43 24.2839 1109.88 24.0859C1110.34 23.8828 1110.89 23.7604 1111.53 23.7188L1114.67 23.5156V24.3516L1111.67 24.5547C1110.96 24.6016 1110.42 24.7604 1110.07 25.0312C1109.73 25.2969 1109.56 25.6693 1109.56 26.1484V26.1641C1109.56 26.6484 1109.74 27.0339 1110.1 27.3203C1110.47 27.6016 1110.94 27.7422 1111.51 27.7422C1112.01 27.7422 1112.47 27.638 1112.86 27.4297C1113.26 27.2161 1113.58 26.9297 1113.81 26.5703C1114.05 26.2109 1114.17 25.8099 1114.17 25.3672V22.7578C1114.17 22.138 1113.98 21.6667 1113.62 21.3438C1113.25 21.0208 1112.73 20.8594 1112.05 20.8594C1111.48 20.8594 1111 20.9714 1110.62 21.1953C1110.24 21.4193 1109.99 21.7422 1109.88 22.1641L1109.87 22.1797H1108.84L1108.85 22.1484C1108.92 21.6953 1109.1 21.3047 1109.39 20.9766C1109.68 20.6484 1110.06 20.3958 1110.52 20.2188C1110.98 20.0365 1111.5 19.9453 1112.08 19.9453C1112.74 19.9453 1113.3 20.0573 1113.77 20.2812C1114.23 20.5 1114.58 20.8177 1114.82 21.2344C1115.07 21.651 1115.19 22.1562 1115.19 22.75V28.5H1114.17V27.0469H1114.06C1113.9 27.3802 1113.68 27.6667 1113.41 27.9062C1113.14 28.1406 1112.82 28.3229 1112.47 28.4531C1112.12 28.5781 1111.73 28.6406 1111.31 28.6406ZM1117.14 28.5V20.0859H1120.51C1121.31 20.0859 1121.93 20.2786 1122.37 20.6641C1122.82 21.0495 1123.05 21.5677 1123.05 22.2188V22.2344C1123.05 22.6875 1122.91 23.0885 1122.62 23.4375C1122.34 23.7865 1121.99 24.0052 1121.56 24.0938V24.1875C1121.93 24.2292 1122.25 24.3333 1122.53 24.5C1122.81 24.6667 1123.03 24.8854 1123.19 25.1562C1123.36 25.4219 1123.44 25.737 1123.44 26.1016V26.1172C1123.44 26.612 1123.33 27.0365 1123.1 27.3906C1122.88 27.7448 1122.55 28.0182 1122.12 28.2109C1121.68 28.4036 1121.16 28.5 1120.55 28.5H1117.14ZM1118.17 27.6328H1120.51C1121.13 27.6328 1121.6 27.5026 1121.92 27.2422C1122.24 26.9766 1122.41 26.5964 1122.41 26.1016V26.0859C1122.41 25.5859 1122.22 25.2188 1121.86 24.9844C1121.49 24.7448 1120.98 24.625 1120.3 24.625H1118.17V27.6328ZM1118.17 23.7656H1120.23C1120.81 23.7656 1121.26 23.6406 1121.56 23.3906C1121.87 23.1354 1122.02 22.7812 1122.02 22.3281V22.3125C1122.02 21.9062 1121.88 21.5781 1121.61 21.3281C1121.33 21.0729 1120.92 20.9453 1120.38 20.9453H1118.17V23.7656ZM1126.61 25.1562C1126.55 25.8802 1126.45 26.4974 1126.28 27.0078C1126.13 27.5182 1125.9 27.9089 1125.61 28.1797C1125.31 28.4453 1124.94 28.5781 1124.49 28.5781C1124.36 28.5781 1124.25 28.5703 1124.15 28.5547C1124.06 28.5391 1123.99 28.5208 1123.93 28.5V27.5625C1123.97 27.5781 1124.04 27.5938 1124.12 27.6094C1124.21 27.6198 1124.3 27.625 1124.39 27.625C1124.68 27.625 1124.9 27.5104 1125.07 27.2812C1125.25 27.0521 1125.38 26.7448 1125.46 26.3594C1125.55 25.974 1125.61 25.5443 1125.64 25.0703L1126 20.0859H1131.38V28.5H1130.35V20.9453H1126.93L1126.61 25.1562ZM1136.77 28.6406C1135.98 28.6406 1135.3 28.4635 1134.73 28.1094C1134.16 27.7552 1133.72 27.2552 1133.41 26.6094C1133.11 25.9635 1132.95 25.2005 1132.95 24.3203V24.3047C1132.95 23.4297 1133.11 22.6667 1133.41 22.0156C1133.72 21.3594 1134.15 20.8516 1134.71 20.4922C1135.27 20.1276 1135.93 19.9453 1136.68 19.9453C1137.44 19.9453 1138.08 20.1224 1138.63 20.4766C1139.17 20.8255 1139.59 21.3151 1139.88 21.9453C1140.18 22.5703 1140.33 23.2969 1140.33 24.125V24.5625H1133.48V23.7188H1139.81L1139.3 24.4766V24.0859C1139.3 23.3828 1139.19 22.7943 1138.96 22.3203C1138.74 21.8411 1138.44 21.4792 1138.04 21.2344C1137.65 20.9896 1137.2 20.8672 1136.68 20.8672C1136.16 20.8672 1135.7 20.9922 1135.3 21.2422C1134.9 21.4922 1134.58 21.8594 1134.34 22.3438C1134.11 22.8229 1134 23.4036 1134 24.0859V24.4766C1134 25.1484 1134.11 25.7266 1134.34 26.2109C1134.57 26.6953 1134.9 27.0677 1135.31 27.3281C1135.73 27.5885 1136.22 27.7188 1136.79 27.7188C1137.2 27.7188 1137.56 27.6615 1137.88 27.5469C1138.2 27.4323 1138.47 27.2812 1138.68 27.0938C1138.89 26.901 1139.05 26.6979 1139.14 26.4844L1139.16 26.4219H1140.2L1140.18 26.4844C1140.1 26.7708 1139.96 27.0443 1139.77 27.3047C1139.58 27.5599 1139.34 27.7891 1139.05 27.9922C1138.76 28.1901 1138.42 28.349 1138.03 28.4688C1137.65 28.5833 1137.23 28.6406 1136.77 28.6406ZM1147.58 28.5V24.5625H1142.93V28.5H1141.9V20.0859H1142.93V23.7031H1147.58V20.0859H1148.61V28.5H1147.58ZM1150.6 28.5V20.0859H1151.63V26.8594H1152.19L1151.46 27.2422L1156.38 20.0859H1157.42V28.5H1156.38V21.7266H1155.82L1156.55 21.3359L1151.63 28.5H1150.6ZM1165.94 28.6484C1165.19 28.6484 1164.53 28.4792 1163.98 28.1406C1163.42 27.7969 1162.99 27.3125 1162.69 26.6875C1162.38 26.0573 1162.21 25.3073 1162.19 24.4375L1162.22 23.8203C1162.27 23.0078 1162.46 22.3125 1162.77 21.7344C1163.09 21.1562 1163.52 20.7135 1164.05 20.4062C1164.6 20.0938 1165.22 19.9375 1165.94 19.9375C1166.71 19.9375 1167.37 20.112 1167.93 20.4609C1168.49 20.8099 1168.92 21.3099 1169.23 21.9609C1169.53 22.612 1169.69 23.388 1169.69 24.2891V24.3047C1169.69 25.1953 1169.53 25.9661 1169.23 26.6172C1168.92 27.2682 1168.49 27.7708 1167.93 28.125C1167.37 28.474 1166.71 28.6484 1165.94 28.6484ZM1165.94 27.7266C1166.5 27.7266 1166.98 27.5911 1167.38 27.3203C1167.78 27.0443 1168.09 26.651 1168.3 26.1406C1168.52 25.625 1168.63 25.013 1168.63 24.3047V24.2891C1168.63 23.5703 1168.52 22.9557 1168.3 22.4453C1168.09 21.9297 1167.78 21.5365 1167.38 21.2656C1166.98 20.9896 1166.5 20.8516 1165.94 20.8516C1165.38 20.8516 1164.9 20.9896 1164.5 21.2656C1164.1 21.5365 1163.79 21.9297 1163.57 22.4453C1163.36 22.9557 1163.25 23.5703 1163.25 24.2891V24.3047C1163.25 25.013 1163.36 25.625 1163.57 26.1406C1163.79 26.651 1164.1 27.0443 1164.5 27.3203C1164.9 27.5911 1165.38 27.7266 1165.94 27.7266ZM1159.41 28.5V20.0859H1160.44V23.7031H1162.71V24.5625H1160.44V28.5H1159.41ZM1072.24 42.5V34.0859H1075.61C1076.41 34.0859 1077.03 34.2786 1077.47 34.6641C1077.92 35.0495 1078.14 35.5677 1078.14 36.2188V36.2344C1078.14 36.6875 1078 37.0885 1077.72 37.4375C1077.44 37.7865 1077.09 38.0052 1076.66 38.0938V38.1875C1077.02 38.2292 1077.35 38.3333 1077.63 38.5C1077.91 38.6667 1078.13 38.8854 1078.29 39.1562C1078.46 39.4219 1078.54 39.737 1078.54 40.1016V40.1172C1078.54 40.612 1078.43 41.0365 1078.2 41.3906C1077.97 41.7448 1077.65 42.0182 1077.21 42.2109C1076.78 42.4036 1076.26 42.5 1075.64 42.5H1072.24ZM1073.27 41.6328H1075.6C1076.23 41.6328 1076.7 41.5026 1077.02 41.2422C1077.34 40.9766 1077.5 40.5964 1077.5 40.1016V40.0859C1077.5 39.5859 1077.32 39.2188 1076.96 38.9844C1076.59 38.7448 1076.07 38.625 1075.4 38.625H1073.27V41.6328ZM1073.27 37.7656H1075.32C1075.91 37.7656 1076.36 37.6406 1076.66 37.3906C1076.97 37.1354 1077.12 36.7812 1077.12 36.3281V36.3125C1077.12 35.9062 1076.98 35.5781 1076.71 35.3281C1076.43 35.0729 1076.02 34.9453 1075.48 34.9453H1073.27V37.7656ZM1082.44 42.6406C1081.89 42.6406 1081.41 42.5417 1080.99 42.3438C1080.57 42.1406 1080.24 41.8542 1079.99 41.4844C1079.75 41.1146 1079.62 40.6797 1079.62 40.1797V40.1641C1079.62 39.6797 1079.74 39.263 1079.98 38.9141C1080.21 38.5599 1080.55 38.2839 1081.01 38.0859C1081.46 37.8828 1082.01 37.7604 1082.66 37.7188L1085.8 37.5156V38.3516L1082.8 38.5547C1082.08 38.6016 1081.54 38.7604 1081.19 39.0312C1080.85 39.2969 1080.68 39.6693 1080.68 40.1484V40.1641C1080.68 40.6484 1080.86 41.0339 1081.23 41.3203C1081.59 41.6016 1082.06 41.7422 1082.63 41.7422C1083.14 41.7422 1083.59 41.638 1083.98 41.4297C1084.38 41.2161 1084.7 40.9297 1084.94 40.5703C1085.17 40.2109 1085.29 39.8099 1085.29 39.3672V36.7578C1085.29 36.138 1085.11 35.6667 1084.74 35.3438C1084.38 35.0208 1083.85 34.8594 1083.17 34.8594C1082.6 34.8594 1082.12 34.9714 1081.74 35.1953C1081.36 35.4193 1081.11 35.7422 1081 36.1641L1080.99 36.1797H1079.96L1079.97 36.1484C1080.04 35.6953 1080.22 35.3047 1080.51 34.9766C1080.81 34.6484 1081.18 34.3958 1081.64 34.2188C1082.1 34.0365 1082.62 33.9453 1083.2 33.9453C1083.86 33.9453 1084.43 34.0573 1084.89 34.2812C1085.35 34.5 1085.7 34.8177 1085.94 35.2344C1086.19 35.651 1086.31 36.1562 1086.31 36.75V42.5H1085.29V41.0469H1085.19C1085.02 41.3802 1084.8 41.6667 1084.53 41.9062C1084.26 42.1406 1083.95 42.3229 1083.59 42.4531C1083.24 42.5781 1082.85 42.6406 1082.44 42.6406ZM1088.26 42.5V34.0859H1089.29V41.6328H1092.91V34.0859H1093.94V41.6328H1097.56V34.0859H1098.59V42.5H1088.26ZM1100.57 42.5V34.0859H1101.6V40.8594H1102.16L1101.44 41.2422L1106.36 34.0859H1107.39V42.5H1106.36V35.7266H1105.8L1106.52 35.3359L1101.6 42.5H1100.57ZM1110.41 42.5H1109.38V34.0859H1110.61L1113.92 41.0781H1114.01L1117.3 34.0859H1118.49V42.5H1117.46V35.9531H1117.35L1114.34 42.3359H1113.54L1110.52 35.9531H1110.41V42.5ZM1123.9 44.7266H1122.94V41.6328H1123.62C1123.94 41.4297 1124.17 41.0729 1124.33 40.5625C1124.5 40.0469 1124.6 39.474 1124.64 38.8438L1124.98 34.0859H1130.56V41.6328H1131.92V44.7266H1130.96V42.5H1123.9V44.7266ZM1129.53 41.6328V34.9453H1125.89L1125.6 38.8828C1125.56 39.4401 1125.48 39.9531 1125.36 40.4219C1125.24 40.8906 1125.07 41.263 1124.84 41.5391V41.6328H1129.53ZM1136.42 42.6406C1135.64 42.6406 1134.96 42.4661 1134.39 42.1172C1133.81 41.763 1133.37 41.2604 1133.06 40.6094C1132.75 39.9583 1132.6 39.1875 1132.6 38.2969V38.2812C1132.6 37.3906 1132.75 36.6198 1133.06 35.9688C1133.37 35.3177 1133.81 34.8177 1134.39 34.4688C1134.96 34.1198 1135.64 33.9453 1136.42 33.9453C1137.2 33.9453 1137.88 34.1198 1138.45 34.4688C1139.02 34.8177 1139.46 35.3177 1139.77 35.9688C1140.08 36.6198 1140.24 37.3906 1140.24 38.2812V38.2969C1140.24 39.1875 1140.08 39.9583 1139.77 40.6094C1139.46 41.2604 1139.02 41.763 1138.45 42.1172C1137.88 42.4661 1137.2 42.6406 1136.42 42.6406ZM1136.42 41.7266C1137 41.7266 1137.49 41.5885 1137.9 41.3125C1138.32 41.0365 1138.64 40.6432 1138.86 40.1328C1139.08 39.6172 1139.19 39.0052 1139.19 38.2969V38.2812C1139.19 37.5729 1139.08 36.9635 1138.86 36.4531C1138.64 35.9375 1138.32 35.5443 1137.9 35.2734C1137.49 34.9974 1137 34.8594 1136.42 34.8594C1135.84 34.8594 1135.34 34.9974 1134.93 35.2734C1134.51 35.5443 1134.2 35.9349 1133.97 36.4453C1133.75 36.9557 1133.64 37.5677 1133.64 38.2812V38.2969C1133.64 39.0052 1133.75 39.6172 1133.97 40.1328C1134.2 40.6432 1134.51 41.0365 1134.93 41.3125C1135.34 41.5885 1135.84 41.7266 1136.42 41.7266ZM1142.84 42.5H1141.81V34.0859H1143.04L1146.34 41.0781H1146.44L1149.73 34.0859H1150.91V42.5H1149.88V35.9531H1149.77L1146.77 42.3359H1145.97L1142.95 35.9531H1142.84V42.5ZM1156.3 42.6406C1155.52 42.6406 1154.84 42.4661 1154.27 42.1172C1153.7 41.763 1153.26 41.2604 1152.94 40.6094C1152.64 39.9583 1152.48 39.1875 1152.48 38.2969V38.2812C1152.48 37.3906 1152.64 36.6198 1152.94 35.9688C1153.26 35.3177 1153.7 34.8177 1154.27 34.4688C1154.84 34.1198 1155.52 33.9453 1156.3 33.9453C1157.09 33.9453 1157.77 34.1198 1158.33 34.4688C1158.91 34.8177 1159.35 35.3177 1159.65 35.9688C1159.97 36.6198 1160.12 37.3906 1160.12 38.2812V38.2969C1160.12 39.1875 1159.97 39.9583 1159.65 40.6094C1159.35 41.2604 1158.91 41.763 1158.33 42.1172C1157.77 42.4661 1157.09 42.6406 1156.3 42.6406ZM1156.3 41.7266C1156.88 41.7266 1157.37 41.5885 1157.79 41.3125C1158.2 41.0365 1158.52 40.6432 1158.74 40.1328C1158.96 39.6172 1159.08 39.0052 1159.08 38.2969V38.2812C1159.08 37.5729 1158.96 36.9635 1158.74 36.4531C1158.52 35.9375 1158.2 35.5443 1157.79 35.2734C1157.37 34.9974 1156.88 34.8594 1156.3 34.8594C1155.72 34.8594 1155.23 34.9974 1154.81 35.2734C1154.4 35.5443 1154.08 35.9349 1153.86 36.4453C1153.64 36.9557 1153.53 37.5677 1153.53 38.2812V38.2969C1153.53 39.0052 1153.64 39.6172 1153.86 40.1328C1154.08 40.6432 1154.4 41.0365 1154.81 41.3125C1155.23 41.5885 1155.72 41.7266 1156.3 41.7266ZM1162.72 42.5H1161.69V34.0859H1162.92L1166.23 41.0781H1166.32L1169.61 34.0859H1170.8V42.5H1169.77V35.9531H1169.66L1166.65 42.3359H1165.85L1162.83 35.9531H1162.72V42.5Z" fill="white"/>
<rect x="1194" y="4" width="155" height="38" fill="white"/>
</svg>
