<svg width="183" height="174" viewBox="0 0 183 174" fill="none" xmlns="http://www.w3.org/2000/svg">
<path fill-rule="evenodd" clip-rule="evenodd" d="M161.339 40.4023C136.497 39.0203 131 26.8503 129.5 0.15625C126.729 28.6527 120.092 39.1411 97.3665 40.4023H96.4611C96.2866 40.4023 96.1176 40.4023 95.9485 40.4023H96.4611C96.7284 40.4023 96.9956 40.4075 97.2628 40.4075C95.7739 40.4916 94.2087 40.5337 92.5726 40.5337H92C92.1909 40.5389 92.3817 40.5389 92.5726 40.5337H100.955C121.036 41.7317 126.915 51.2166 129.375 76.8229C130.711 52.8298 135.586 41.8473 157.538 40.5337H165.844C166.226 40.5389 166.607 40.5389 167 40.5337H165.844C164.295 40.5284 162.812 40.4864 161.394 40.4075C161.519 40.4075 161.65 40.4023 161.775 40.4023H162.806C162.463 40.4023 162.119 40.4023 161.775 40.4023H161.339Z" fill="#FE6110"/>
<path d="M10.4124 164.759C15.2411 129.988 68.5223 133.314 109.696 148.8C162.453 168.643 207.591 111.576 150.24 69.1298C153.393 115.133 92.7088 85.5329 52.0075 85.6701C-1.025 90.2851 1.02745 146.187 10.4124 164.759Z" fill="#FE6110"/>
<path d="M141.219 144.906C121.706 149.112 107.209 138.936 102.4 133.322C116.522 134.037 124.119 133.016 129.75 129.076C116.226 130.867 98.8773 118.097 99.7258 118.091C106.063 118.046 121.597 115.393 124.107 112.833C116.51 110.346 109.745 106.158 102.175 98.5873C149.4 107.569 153.486 92.2901 155.088 79.5703C166.972 89.6521 170.076 104.88 169.62 112.508C168.91 124.375 160.732 140.7 141.219 144.906Z" fill="white"/>
</svg>
