<svg width="662" height="371" viewBox="0 0 662 371" fill="none" xmlns="http://www.w3.org/2000/svg">
<path opacity="0.8" d="M560.182 357.273C559.14 357.273 558.248 356.977 557.506 356.385C556.764 355.786 556.194 354.939 555.797 353.846C555.4 352.752 555.201 351.46 555.201 349.969V349.939C555.201 348.442 555.4 347.146 555.797 346.053C556.194 344.959 556.764 344.116 557.506 343.523C558.248 342.931 559.14 342.635 560.182 342.635C561.223 342.635 562.115 342.934 562.857 343.533C563.6 344.126 564.173 344.969 564.576 346.062C564.98 347.15 565.182 348.442 565.182 349.939V349.969C565.182 351.466 564.98 352.762 564.576 353.855C564.173 354.949 563.6 355.792 562.857 356.385C562.115 356.977 561.223 357.273 560.182 357.273ZM560.182 356.102C560.95 356.102 561.604 355.854 562.145 355.359C562.691 354.858 563.111 354.148 563.404 353.23C563.697 352.312 563.844 351.225 563.844 349.969V349.939C563.844 348.676 563.697 347.589 563.404 346.678C563.111 345.76 562.691 345.053 562.145 344.559C561.604 344.057 560.95 343.807 560.182 343.807C559.42 343.807 558.766 344.057 558.219 344.559C557.672 345.06 557.252 345.77 556.959 346.688C556.673 347.599 556.529 348.683 556.529 349.939V349.969C556.529 351.225 556.673 352.312 556.959 353.23C557.252 354.148 557.672 354.858 558.219 355.359C558.766 355.854 559.42 356.102 560.182 356.102ZM571.418 342.635C572.095 342.635 572.746 342.765 573.371 343.025C574.003 343.286 574.562 343.693 575.051 344.246C575.546 344.799 575.933 345.516 576.213 346.395C576.499 347.267 576.643 348.322 576.643 349.559V349.578C576.643 351.186 576.428 352.566 575.998 353.719C575.575 354.865 574.966 355.743 574.172 356.355C573.378 356.967 572.427 357.273 571.32 357.273C570.533 357.273 569.826 357.13 569.201 356.844C568.583 356.551 568.068 356.147 567.658 355.633C567.248 355.118 566.971 354.529 566.828 353.865L566.799 353.738H568.137L568.176 353.846C568.306 354.295 568.518 354.689 568.811 355.027C569.104 355.359 569.462 355.62 569.885 355.809C570.314 355.991 570.796 356.082 571.33 356.082C572.255 356.082 573.01 355.805 573.596 355.252C574.182 354.699 574.618 353.96 574.904 353.035C575.191 352.104 575.344 351.079 575.363 349.959C575.37 349.868 575.373 349.777 575.373 349.686C575.373 349.594 575.373 349.507 575.373 349.422L574.992 347.527C574.992 346.844 574.836 346.222 574.523 345.662C574.211 345.102 573.788 344.656 573.254 344.324C572.72 343.986 572.111 343.816 571.428 343.816C570.77 343.816 570.174 343.976 569.641 344.295C569.107 344.614 568.68 345.047 568.361 345.594C568.049 346.134 567.893 346.743 567.893 347.42V347.439C567.893 348.117 568.046 348.722 568.352 349.256C568.664 349.79 569.084 350.213 569.611 350.525C570.145 350.831 570.747 350.984 571.418 350.984C572.082 350.984 572.684 350.831 573.225 350.525C573.765 350.219 574.195 349.806 574.514 349.285C574.833 348.764 574.992 348.185 574.992 347.547V347.527H575.51V349.539H575.256C575.087 350.021 574.81 350.46 574.426 350.857C574.048 351.248 573.586 351.561 573.039 351.795C572.492 352.029 571.88 352.146 571.203 352.146C570.324 352.146 569.533 351.945 568.83 351.541C568.127 351.131 567.57 350.571 567.16 349.861C566.757 349.152 566.555 348.354 566.555 347.469V347.449C566.555 346.525 566.766 345.701 567.189 344.979C567.613 344.249 568.189 343.676 568.918 343.26C569.654 342.843 570.487 342.635 571.418 342.635ZM584.979 357V353.816H577.889V352.605C578.247 352.026 578.608 351.447 578.973 350.867C579.344 350.288 579.725 349.699 580.115 349.1C580.506 348.501 580.919 347.879 581.355 347.234C581.792 346.583 582.257 345.9 582.752 345.184C583.247 344.461 583.784 343.696 584.363 342.889H586.277V352.625H588.387V353.816H586.277V357H584.979ZM579.266 352.635H584.988V344.148H584.9C584.386 344.878 583.908 345.558 583.465 346.189C583.029 346.814 582.618 347.407 582.234 347.967C581.857 348.527 581.499 349.064 581.16 349.578C580.828 350.092 580.506 350.594 580.193 351.082C579.881 351.57 579.572 352.059 579.266 352.547V352.635ZM594.828 357.273C594.145 357.273 593.49 357.143 592.865 356.883C592.24 356.622 591.68 356.215 591.186 355.662C590.697 355.109 590.31 354.396 590.023 353.523C589.743 352.645 589.604 351.587 589.604 350.35V350.33C589.604 348.715 589.815 347.335 590.238 346.189C590.668 345.044 591.28 344.165 592.074 343.553C592.868 342.941 593.819 342.635 594.926 342.635C595.714 342.635 596.417 342.781 597.035 343.074C597.66 343.361 598.178 343.761 598.588 344.275C598.998 344.783 599.275 345.372 599.418 346.043L599.447 346.17H598.109L598.07 346.062C597.947 345.613 597.735 345.223 597.436 344.891C597.143 344.552 596.781 344.292 596.352 344.109C595.928 343.921 595.45 343.826 594.916 343.826C593.992 343.826 593.236 344.103 592.65 344.656C592.064 345.21 591.628 345.949 591.342 346.873C591.062 347.798 590.909 348.823 590.883 349.949C590.876 350.034 590.873 350.122 590.873 350.213C590.873 350.304 590.873 350.395 590.873 350.486L591.254 352.381C591.254 353.064 591.407 353.686 591.713 354.246C592.025 354.806 592.452 355.255 592.992 355.594C593.533 355.926 594.141 356.092 594.818 356.092C595.476 356.092 596.072 355.932 596.605 355.613C597.139 355.294 597.562 354.861 597.875 354.314C598.188 353.768 598.344 353.159 598.344 352.488V352.469C598.344 351.792 598.191 351.186 597.885 350.652C597.585 350.118 597.169 349.699 596.635 349.393C596.107 349.08 595.505 348.924 594.828 348.924C594.171 348.924 593.568 349.077 593.021 349.383C592.481 349.689 592.051 350.102 591.732 350.623C591.413 351.144 591.254 351.723 591.254 352.361V352.381H590.727V350.369H590.99C591.16 349.887 591.433 349.451 591.811 349.061C592.195 348.663 592.66 348.348 593.207 348.113C593.76 347.879 594.372 347.762 595.043 347.762C595.928 347.762 596.719 347.967 597.416 348.377C598.119 348.781 598.673 349.337 599.076 350.047C599.48 350.75 599.682 351.548 599.682 352.439V352.459C599.682 353.383 599.47 354.21 599.047 354.939C598.63 355.662 598.054 356.232 597.318 356.648C596.589 357.065 595.759 357.273 594.828 357.273ZM608.018 357V353.816H600.928V352.605C601.286 352.026 601.647 351.447 602.012 350.867C602.383 350.288 602.764 349.699 603.154 349.1C603.545 348.501 603.958 347.879 604.395 347.234C604.831 346.583 605.296 345.9 605.791 345.184C606.286 344.461 606.823 343.696 607.402 342.889H609.316V352.625H611.426V353.816H609.316V357H608.018ZM602.305 352.635H608.027V344.148H607.939C607.425 344.878 606.947 345.558 606.504 346.189C606.068 346.814 605.658 347.407 605.273 347.967C604.896 348.527 604.538 349.064 604.199 349.578C603.867 350.092 603.545 350.594 603.232 351.082C602.92 351.57 602.611 352.059 602.305 352.547V352.635ZM617.564 357.225C616.614 357.225 615.787 357.062 615.084 356.736C614.387 356.404 613.834 355.955 613.424 355.389C613.014 354.822 612.77 354.178 612.691 353.455L612.682 353.357H613.961L613.971 353.436C614.036 353.943 614.221 354.396 614.527 354.793C614.833 355.184 615.243 355.493 615.758 355.721C616.279 355.949 616.881 356.062 617.564 356.062C618.242 356.062 618.84 355.939 619.361 355.691C619.882 355.444 620.289 355.105 620.582 354.676C620.882 354.24 621.031 353.745 621.031 353.191V353.172C621.031 352.247 620.706 351.535 620.055 351.033C619.41 350.525 618.525 350.271 617.398 350.271H615.709V349.139H617.34C617.971 349.139 618.525 349.025 619 348.797C619.482 348.562 619.856 348.243 620.123 347.84C620.396 347.436 620.533 346.974 620.533 346.453V346.434C620.533 345.906 620.41 345.451 620.162 345.066C619.915 344.682 619.563 344.383 619.107 344.168C618.658 343.953 618.124 343.846 617.506 343.846C616.9 343.846 616.363 343.953 615.895 344.168C615.426 344.383 615.051 344.679 614.771 345.057C614.492 345.434 614.326 345.874 614.273 346.375L614.264 346.473H612.984L612.994 346.375C613.066 345.646 613.297 345.008 613.688 344.461C614.078 343.908 614.599 343.475 615.25 343.162C615.901 342.843 616.653 342.684 617.506 342.684C618.372 342.684 619.13 342.84 619.781 343.152C620.439 343.458 620.95 343.882 621.314 344.422C621.686 344.962 621.871 345.584 621.871 346.287V346.307C621.871 346.886 621.744 347.404 621.49 347.859C621.243 348.309 620.891 348.686 620.436 348.992C619.986 349.292 619.462 349.503 618.863 349.627V349.666C619.918 349.744 620.768 350.092 621.412 350.711C622.057 351.329 622.379 352.14 622.379 353.143V353.162C622.379 353.937 622.171 354.633 621.754 355.252C621.337 355.864 620.764 356.346 620.035 356.697C619.312 357.049 618.489 357.225 617.564 357.225ZM628.977 357.273C628.293 357.273 627.639 357.143 627.014 356.883C626.389 356.622 625.829 356.215 625.334 355.662C624.846 355.109 624.458 354.396 624.172 353.523C623.892 352.645 623.752 351.587 623.752 350.35V350.33C623.752 348.715 623.964 347.335 624.387 346.189C624.816 345.044 625.428 344.165 626.223 343.553C627.017 342.941 627.967 342.635 629.074 342.635C629.862 342.635 630.565 342.781 631.184 343.074C631.809 343.361 632.326 343.761 632.736 344.275C633.146 344.783 633.423 345.372 633.566 346.043L633.596 346.17H632.258L632.219 346.062C632.095 345.613 631.883 345.223 631.584 344.891C631.291 344.552 630.93 344.292 630.5 344.109C630.077 343.921 629.598 343.826 629.064 343.826C628.14 343.826 627.385 344.103 626.799 344.656C626.213 345.21 625.777 345.949 625.49 346.873C625.21 347.798 625.057 348.823 625.031 349.949C625.025 350.034 625.021 350.122 625.021 350.213C625.021 350.304 625.021 350.395 625.021 350.486L625.402 352.381C625.402 353.064 625.555 353.686 625.861 354.246C626.174 354.806 626.6 355.255 627.141 355.594C627.681 355.926 628.29 356.092 628.967 356.092C629.624 356.092 630.22 355.932 630.754 355.613C631.288 355.294 631.711 354.861 632.023 354.314C632.336 353.768 632.492 353.159 632.492 352.488V352.469C632.492 351.792 632.339 351.186 632.033 350.652C631.734 350.118 631.317 349.699 630.783 349.393C630.256 349.08 629.654 348.924 628.977 348.924C628.319 348.924 627.717 349.077 627.17 349.383C626.63 349.689 626.2 350.102 625.881 350.623C625.562 351.144 625.402 351.723 625.402 352.361V352.381H624.875V350.369H625.139C625.308 349.887 625.581 349.451 625.959 349.061C626.343 348.663 626.809 348.348 627.355 348.113C627.909 347.879 628.521 347.762 629.191 347.762C630.077 347.762 630.868 347.967 631.564 348.377C632.268 348.781 632.821 349.337 633.225 350.047C633.628 350.75 633.83 351.548 633.83 352.439V352.459C633.83 353.383 633.618 354.21 633.195 354.939C632.779 355.662 632.202 356.232 631.467 356.648C630.738 357.065 629.908 357.273 628.977 357.273ZM640.115 357.225C639.165 357.225 638.338 357.062 637.635 356.736C636.938 356.404 636.385 355.955 635.975 355.389C635.564 354.822 635.32 354.178 635.242 353.455L635.232 353.357H636.512L636.521 353.436C636.587 353.943 636.772 354.396 637.078 354.793C637.384 355.184 637.794 355.493 638.309 355.721C638.829 355.949 639.432 356.062 640.115 356.062C640.792 356.062 641.391 355.939 641.912 355.691C642.433 355.444 642.84 355.105 643.133 354.676C643.432 354.24 643.582 353.745 643.582 353.191V353.172C643.582 352.247 643.257 351.535 642.605 351.033C641.961 350.525 641.076 350.271 639.949 350.271H638.26V349.139H639.891C640.522 349.139 641.076 349.025 641.551 348.797C642.033 348.562 642.407 348.243 642.674 347.84C642.947 347.436 643.084 346.974 643.084 346.453V346.434C643.084 345.906 642.96 345.451 642.713 345.066C642.465 344.682 642.114 344.383 641.658 344.168C641.209 343.953 640.675 343.846 640.057 343.846C639.451 343.846 638.914 343.953 638.445 344.168C637.977 344.383 637.602 344.679 637.322 345.057C637.042 345.434 636.876 345.874 636.824 346.375L636.814 346.473H635.535L635.545 346.375C635.617 345.646 635.848 345.008 636.238 344.461C636.629 343.908 637.15 343.475 637.801 343.162C638.452 342.843 639.204 342.684 640.057 342.684C640.923 342.684 641.681 342.84 642.332 343.152C642.99 343.458 643.501 343.882 643.865 344.422C644.236 344.962 644.422 345.584 644.422 346.287V346.307C644.422 346.886 644.295 347.404 644.041 347.859C643.794 348.309 643.442 348.686 642.986 348.992C642.537 349.292 642.013 349.503 641.414 349.627V349.666C642.469 349.744 643.318 350.092 643.963 350.711C644.607 351.329 644.93 352.14 644.93 353.143V353.162C644.93 353.937 644.721 354.633 644.305 355.252C643.888 355.864 643.315 356.346 642.586 356.697C641.863 357.049 641.04 357.225 640.115 357.225Z" fill="white"/>
<path d="M170.008 213.639C168.479 213.639 167.126 213.551 165.948 213.376C164.795 213.226 163.993 213.1 163.542 213V197.51C163.993 197.61 164.519 197.71 165.121 197.81C165.747 197.886 166.399 197.923 167.076 197.923C168.905 197.923 170.397 197.56 171.55 196.833C172.703 196.081 173.58 194.928 174.182 193.374C174.808 191.795 175.197 189.765 175.347 187.283L177.002 158.746H231.481V213H212.607V172.695H193.733L192.454 191.419C192.103 196.382 191.126 200.518 189.522 203.826C187.917 207.11 185.536 209.566 182.378 211.195C179.22 212.825 175.097 213.639 170.008 213.639ZM243.61 213.602C240.978 213.602 238.81 212.799 237.105 211.195C235.426 209.591 234.586 207.598 234.586 205.217C234.586 202.836 235.439 200.843 237.143 199.239C238.847 197.61 241.003 196.795 243.61 196.795C246.267 196.795 248.435 197.61 250.114 199.239C251.819 200.843 252.671 202.836 252.671 205.217C252.671 207.598 251.819 209.591 250.114 211.195C248.41 212.799 246.242 213.602 243.61 213.602ZM255.701 213V158.746H273.974V187.997H281.681L266.153 195.818L302.172 158.746H318.114V213H299.879V183.335H291.833L307.624 175.44L271.643 213H255.701ZM330.205 213.602C327.573 213.602 325.405 212.799 323.701 211.195C322.021 209.591 321.182 207.598 321.182 205.217C321.182 202.836 322.034 200.843 323.738 199.239C325.443 197.61 327.598 196.795 330.205 196.795C332.862 196.795 335.03 197.61 336.71 199.239C338.414 200.843 339.266 202.836 339.266 205.217C339.266 207.598 338.414 209.591 336.71 211.195C335.005 212.799 332.837 213.602 330.205 213.602ZM371.661 214.09C364.667 214.09 358.614 212.95 353.501 210.669C348.413 208.388 344.49 205.142 341.733 200.931C338.975 196.72 337.597 191.695 337.597 185.854V185.779C337.597 179.939 338.975 174.926 341.733 170.74C344.49 166.529 348.413 163.296 353.501 161.04C358.614 158.759 364.667 157.618 371.661 157.618C377.827 157.618 383.316 158.596 388.128 160.551C392.966 162.506 396.839 165.263 399.746 168.823C402.654 172.357 404.346 176.505 404.822 181.267L404.859 181.719H386.286L386.248 181.343C385.747 179.337 384.845 177.62 383.541 176.192C382.263 174.763 380.621 173.685 378.616 172.958C376.636 172.206 374.368 171.83 371.811 171.83C368.703 171.83 366.021 172.394 363.765 173.522C361.509 174.625 359.78 176.229 358.576 178.335C357.373 180.415 356.772 182.897 356.772 185.779V185.854C356.772 188.737 357.373 191.231 358.576 193.336C359.78 195.442 361.509 197.059 363.765 198.186C366.021 199.314 368.715 199.878 371.848 199.878C374.33 199.878 376.561 199.515 378.541 198.788C380.546 198.036 382.213 196.946 383.541 195.517C384.87 194.063 385.772 192.321 386.248 190.291L386.324 189.877H404.897L404.822 190.366C404.346 195.154 402.641 199.327 399.708 202.886C396.801 206.42 392.941 209.178 388.128 211.158C383.316 213.113 377.827 214.09 371.661 214.09ZM413.041 213.602C410.409 213.602 408.241 212.799 406.536 211.195C404.857 209.591 404.017 207.598 404.017 205.217C404.017 202.836 404.869 200.843 406.574 199.239C408.278 197.61 410.434 196.795 413.041 196.795C415.698 196.795 417.866 197.61 419.545 199.239C421.25 200.843 422.102 202.836 422.102 205.217C422.102 207.598 421.25 209.591 419.545 211.195C417.841 212.799 415.673 213.602 413.041 213.602ZM422.124 213L445.585 158.746H464.083V172.545H457.767L442.014 213H422.124ZM435.998 202.548L440.848 190.554H474.348L479.16 202.548H435.998ZM473.821 213L458.068 172.545V158.746H470.212L493.673 213H473.821Z" fill="white"/>
<path d="M6 0H0V371H6V0Z" fill="white" fill-opacity="0.15"/>
<path d="M12 0H9V371H12V0Z" fill="white" fill-opacity="0.15"/>
<path d="M23 0H17V371H23V0Z" fill="white" fill-opacity="0.15"/>
<path d="M29 0H26V371H29V0Z" fill="white" fill-opacity="0.15"/>
<path d="M41 0H35V371H41V0Z" fill="white" fill-opacity="0.15"/>
<path d="M46 0H43V371H46V0Z" fill="white" fill-opacity="0.15"/>
<path d="M55 0H52V371H55V0Z" fill="white" fill-opacity="0.15"/>
<path d="M66 0H60V371H66V0Z" fill="white" fill-opacity="0.15"/>
<path d="M75 0H69V371H75V0Z" fill="white" fill-opacity="0.15"/>
<path d="M81 0H78V371H81V0Z" fill="white" fill-opacity="0.15"/>
<path d="M92 0H86V371H92V0Z" fill="white" fill-opacity="0.15"/>
<path d="M98 0H95V371H98V0Z" fill="white" fill-opacity="0.15"/>
<path d="M110 0H104V371H110V0Z" fill="white" fill-opacity="0.15"/>
<path d="M115 0H112V371H115V0Z" fill="white" fill-opacity="0.15"/>
<path d="M124 0H121V371H124V0Z" fill="white" fill-opacity="0.15"/>
<path d="M136 0H130V371H136V0Z" fill="white" fill-opacity="0.15"/>
<path d="M141 0H138V371H141V0Z" fill="white" fill-opacity="0.15"/>
<path d="M150 0H147V371H150V0Z" fill="white" fill-opacity="0.15"/>
<path d="M158 0H155V371H158V0Z" fill="white" fill-opacity="0.15"/>
<path d="M170 0H164V371H170V0Z" fill="white" fill-opacity="0.15"/>
<path d="M179 0H173V371H179V0Z" fill="white" fill-opacity="0.15"/>
<path d="M184 0H181V371H184V0Z" fill="white" fill-opacity="0.15"/>
<path d="M196 0H190V371H196V0Z" fill="white" fill-opacity="0.15"/>
<path d="M205 0H199V371H205V0Z" fill="white" fill-opacity="0.15"/>
<path d="M210 0H207V371H210V0Z" fill="white" fill-opacity="0.15"/>
<path d="M219 0H216V371H219V0Z" fill="white" fill-opacity="0.15"/>
<path d="M228 0H225V371H228V0Z" fill="white" fill-opacity="0.15"/>
<path d="M239 0H233V371H239V0Z" fill="white" fill-opacity="0.15"/>
<path d="M245 0H242V371H245V0Z" fill="white" fill-opacity="0.15"/>
<path d="M253 0H250V371H253V0Z" fill="white" fill-opacity="0.15"/>
<path d="M262 0H259V371H262V0Z" fill="white" fill-opacity="0.15"/>
<path d="M274 0H268V371H274V0Z" fill="white" fill-opacity="0.15"/>
<path d="M282 0H276V371H282V0Z" fill="white" fill-opacity="0.15"/>
<path d="M288 0H285V371H288V0Z" fill="white" fill-opacity="0.15"/>
<path d="M300 0H294V371H300V0Z" fill="white" fill-opacity="0.15"/>
<path d="M305 0H302V371H305V0Z" fill="white" fill-opacity="0.15"/>
<path d="M317 0H311V371H317V0Z" fill="white" fill-opacity="0.15"/>
<path d="M322 0H319V371H322V0Z" fill="white" fill-opacity="0.15"/>
<path d="M331 0H328V371H331V0Z" fill="white" fill-opacity="0.15"/>
<path d="M343 0H340V371H343V0Z" fill="white" fill-opacity="0.15"/>
<path d="M355 0H349V371H355V0Z" fill="white" fill-opacity="0.15"/>
<path d="M360 0H357V371H360V0Z" fill="white" fill-opacity="0.15"/>
<path d="M372 0H366V371H372V0Z" fill="white" fill-opacity="0.15"/>
<path d="M377 0H374V371H377V0Z" fill="white" fill-opacity="0.15"/>
<path d="M386 0H383V371H386V0Z" fill="white" fill-opacity="0.15"/>
<path d="M398 0H392V371H398V0Z" fill="white" fill-opacity="0.15"/>
<path d="M406 0H400V371H406V0Z" fill="white" fill-opacity="0.15"/>
<path d="M412 0H409V371H412V0Z" fill="white" fill-opacity="0.15"/>
<path d="M424 0H418V371H424V0Z" fill="white" fill-opacity="0.15"/>
<path d="M429 0H426V371H429V0Z" fill="white" fill-opacity="0.15"/>
<path d="M441 0H435V371H441V0Z" fill="white" fill-opacity="0.15"/>
<path d="M446 0H443V371H446V0Z" fill="white" fill-opacity="0.15"/>
<path d="M455 0H452V371H455V0Z" fill="white" fill-opacity="0.15"/>
<path d="M467 0H461V371H467V0Z" fill="white" fill-opacity="0.15"/>
<path d="M472 0H469V371H472V0Z" fill="white" fill-opacity="0.15"/>
<path d="M481 0H478V371H481V0Z" fill="white" fill-opacity="0.15"/>
<path d="M490 0H487V371H490V0Z" fill="white" fill-opacity="0.15"/>
<path d="M501 0H495V371H501V0Z" fill="white" fill-opacity="0.15"/>
<path d="M510 0H504V371H510V0Z" fill="white" fill-opacity="0.15"/>
<path d="M515 0H512V371H515V0Z" fill="white" fill-opacity="0.15"/>
<path d="M527 0H521V371H527V0Z" fill="white" fill-opacity="0.15"/>
<path d="M536 0H530V371H536V0Z" fill="white" fill-opacity="0.15"/>
<path d="M541 0H538V371H541V0Z" fill="white" fill-opacity="0.15"/>
<path d="M550 0H547V371H550V0Z" fill="white" fill-opacity="0.15"/>
<path d="M559 0H556V371H559V0Z" fill="white" fill-opacity="0.15"/>
<path d="M570 0H564V371H570V0Z" fill="white" fill-opacity="0.15"/>
<path d="M576 0H573V371H576V0Z" fill="white" fill-opacity="0.15"/>
<path d="M585 0H582V371H585V0Z" fill="white" fill-opacity="0.15"/>
<path d="M593 0H590V371H593V0Z" fill="white" fill-opacity="0.15"/>
<path d="M605 0H599V371H605V0Z" fill="white" fill-opacity="0.15"/>
<path d="M613 0H607V371H613V0Z" fill="white" fill-opacity="0.15"/>
<path d="M619 0H616V371H619V0Z" fill="white" fill-opacity="0.15"/>
<path d="M631 0H625V371H631V0Z" fill="white" fill-opacity="0.15"/>
<path d="M636 0H633V371H636V0Z" fill="white" fill-opacity="0.15"/>
<path d="M648 0H642V371H648V0Z" fill="white" fill-opacity="0.15"/>
<path d="M653 0H650V371H653V0Z" fill="white" fill-opacity="0.15"/>
<path d="M662 0H659V371H662V0Z" fill="white" fill-opacity="0.15"/>
</svg>
